<?xml version="1.0" encoding="utf-8"?>
<!-- Generator: Adobe Illustrator 19.2.1, SVG Export Plug-In . SVG Version: 6.00 Build 0)  -->
<svg version="1.1" id="Layer_1" xmlns="http://www.w3.org/2000/svg" xmlns:xlink="http://www.w3.org/1999/xlink" x="0px" y="0px"
	 viewBox="0 0 595.3 124.2" style="enable-background:new 0 0 595.3 124.2;" xml:space="preserve">
<style type="text/css">
	.st0{fill:#224585;}
</style>
<g>
	<g>
		<g>
			<g id="city">
				<g>
					<path class="st0" d="M176.6,28.2h-2.2v-3.5l-0.3-0.6c-0.7-0.3-1.5-0.5-2.4-0.5c-4.8,0-8.9,5-8.9,11.3c0,1.2,0.2,3.3,1.4,4.9
						c1.5,1.9,3.6,2.1,4.9,2.1c0.6,0,1.2-0.1,1.7-0.2l0.6-0.6l1.5-4h2.1l-1,5.5c-3,1-5.1,1.2-6.3,1.2c-3,0-9.4-1.2-9.4-9.1
						c0-4.2,1.8-7.7,4.4-10c1.6-1.4,4.5-3.2,8.8-3.2c1.2,0,3.2,0.2,5.9,1.1L176.6,28.2z"/>
				</g>
				<g>
					<path class="st0" d="M186.3,22.4c0,1.4-0.9,2.4-2.4,2.4c-1.3,0-2.1-0.8-2.1-2.1c0-1.4,1-2.4,2.5-2.4
						C185.5,20.3,186.3,21.1,186.3,22.4 M185,27.8l-2,10.8c0,0.3-0.2,1-0.2,1.4c0,1.2,0.5,1.7,1.5,1.7c0.4,0,1.6-0.3,2.2-0.4v1.3
						c-1.8,0.6-3.6,1.2-5.4,1.2c-1.6,0-2.5-0.9-2.5-2.4c0-0.6,0.1-1.2,0.3-2.2l1.7-8.6l-2.6-0.4v-1.1l5.5-1.2H185z"/>
				</g>
				<g>
					<path class="st0" d="M195.6,24.4l-0.7,4.1h4.4v1.9h-4.7l-1.4,7.8c-0.1,0.4-0.2,1.2-0.2,1.7c0,1.8,1.2,2,1.9,2
						c0.9,0,2.1-0.3,2.8-0.6v1.3c-0.4,0.1-2,0.7-3.2,1c-1.3,0.3-2,0.3-2.5,0.3c-1.6,0-3-0.9-3-3c0-0.6,0.1-1.4,0.2-2l1.6-8.4h-2.1
						v-1.2l2.7-1.4l2.1-3.5H195.6z"/>
				</g>
				<g>
					<path class="st0" d="M203.5,27.8c0.3,0.1,0.8,0.3,1.3,0.9c0.3,0.4,0.7,1.2,1.2,4l1.1,7c1.7-4.5,2.3-6.1,4.9-11.9h1l2.5,0.8v0.9
						l-1.9,1.1c-1.6,2-2.6,4.5-3.6,6.9c-2,4.5-2.5,5.7-4.8,8.9c-1.2,1.6-2.2,2.5-2.9,3c-0.8,0.6-2,1.2-3.1,1.2c-1,0-2.7-0.8-2.7-2.5
						c0-1.4,1.2-2,1.9-2.2l2.1,2c1.6-0.3,3.4-2.4,4.8-5.2h-1.2l-2-10.2c-0.2-0.8-0.3-1.6-0.8-2.4l-2.8-0.3v-1.1L203.5,27.8z"/>
				</g>
			</g>
			<g id="business">
				<g>
					<path class="st0" d="M164.8,74c0.4,0,0.9,0.1,1.5,0.1c1.2,0,3.1-0.1,4.3-1.2c1-0.9,1.2-2.1,1.2-3.1c0-1.1-0.2-2.5-1.6-3.4
						c-1.1-0.7-2.9-0.7-3.5-0.7c-0.2,0-0.6,0-1.8,0.1V74z M164.8,63.9c0.2,0,0.5,0,0.9,0c1.1,0,2.7-0.2,3.7-1c1-0.9,1.2-2.1,1.2-3.1
						c0-1-0.2-2.2-1.2-3c-1-0.8-2.5-0.8-3.5-0.8c-0.4,0-0.8,0-1.1,0.1V63.9z M168.1,54.4c1.9,0,6.9,0.5,6.9,5c0,3.2-2.2,4.5-4.6,5.1
						v0.1h0.2c3.7,0,5.6,2.4,5.6,5.3c0,5.5-6,6.2-8.1,6.2h-10v-1.6l1.9-0.2l0.5-0.5V56.5l-0.5-0.4l-1.9-0.2v-1.6H168.1z"/>
				</g>
				<g>
					<path class="st0" d="M184.3,59.9v9.9c0,0.7,0,1.9,0.7,2.7c0.6,0.8,1.5,0.9,2.2,0.9c0.8,0,1.9-0.2,2.9-0.5V62.7H188v-1.3l4.6-1.5
						h1.5v13.9l0.4,0.4l1.6,0.2v1.4h-6v-1.8c-1.4,0.9-3.3,2.1-5.5,2.1c-3.7,0-4.3-3.5-4.3-5.5v-8h-2.1v-1.3l4.5-1.5H184.3z"/>
				</g>
				<g>
					<path class="st0" d="M209.4,64.9h-1.9l-0.3-2.4l-0.4-0.4c-1-0.5-1.7-0.5-2.1-0.5c-1,0-2.4,0.3-2.4,2c0,0.9,0.5,1.5,3.2,2.8
						c2.4,1.2,3.3,1.8,3.8,2.4c0.6,0.7,0.7,1.4,0.7,2.1c0,2.5-1.5,5.2-6.6,5.2c-1.1,0-3.1-0.2-5.2-0.7v-4.7h2l0.4,2.8l0.3,0.3
						c1.1,0.5,2,0.6,2.6,0.6c2.2,0,2.9-0.9,2.9-2.3c0-0.9-0.3-1.4-2.7-2.5c-3.2-1.4-5.1-2.5-5.1-4.9c0-3.8,4.1-4.7,6.4-4.7
						c1.1,0,2.8,0.1,4.7,0.8V64.9z"/>
				</g>
				<g>
					<path class="st0" d="M216.3,52.7c1.3,0,2.4,1.1,2.4,2.4c0,1.3-1.1,2.4-2.4,2.4c-1.3,0-2.4-1.1-2.4-2.4
						C213.9,53.7,214.9,52.7,216.3,52.7 M218.1,60v13.8l0.5,0.4l1.8,0.2v1.4H212v-1.4l1.8-0.2l0.4-0.4V62.7H212v-1.3l4.6-1.5H218.1z"
						/>
				</g>
				<g>
					<path class="st0" d="M221.8,74.4l1.6-0.2l0.5-0.4V62.8h-2.2v-1.3l4.6-1.5h1.5v1.9c1.7-1,3.8-2,5.6-2c4,0,4.2,4.1,4.2,5.3v8.6
						l0.4,0.4l1.7,0.2v1.4h-7.9v-1.4l1.4-0.2l0.4-0.4v-7.6c0-1.9-0.8-3.6-2.9-3.6c-0.3,0-1.2,0-3,0.6v10.6l0.4,0.4l1.4,0.2v1.4h-7.9
						V74.4z"/>
				</g>
				<g>
					<path class="st0" d="M251.7,66v-0.3c0-2.6-1.2-4.1-2.8-4.1c-1.6,0-3.3,1.6-3.3,4.4H251.7z M255.9,74.3c-1.3,0.8-3.7,1.9-6.6,1.9
						c-2.9,0-4.7-1.1-5.8-2.2c-0.9-1-2.1-2.8-2.1-5.8c0-2.6,1-4.8,2.5-6.2c1-0.9,2.8-2,5.5-2c5.9,0,6.6,4.5,6.6,7.8h-10.5
						c0,2.7,0.9,5.9,5.2,5.9c1.1,0,2.9-0.3,5.3-1.7V74.3z"/>
				</g>
				<g>
					<path class="st0" d="M269.6,64.9h-1.9l-0.3-2.4l-0.4-0.4c-1-0.5-1.7-0.5-2.1-0.5c-1,0-2.4,0.3-2.4,2c0,0.9,0.6,1.5,3.2,2.8
						c2.4,1.2,3.3,1.8,3.8,2.4c0.6,0.7,0.7,1.4,0.7,2.1c0,2.5-1.5,5.2-6.6,5.2c-1.1,0-3.1-0.2-5.2-0.7v-4.7h1.9l0.4,2.8l0.3,0.3
						c1.1,0.5,2,0.6,2.6,0.6c2.2,0,2.9-0.9,2.9-2.3c0-0.9-0.3-1.4-2.7-2.5c-3.2-1.4-5.1-2.5-5.1-4.9c0-3.8,4.1-4.7,6.4-4.7
						c1.1,0,2.8,0.1,4.7,0.8V64.9z"/>
				</g>
				<g>
					<path class="st0" d="M283.9,64.9H282l-0.3-2.4l-0.4-0.4c-1-0.5-1.7-0.5-2.1-0.5c-1,0-2.4,0.3-2.4,2c0,0.9,0.5,1.5,3.2,2.8
						c2.4,1.2,3.3,1.8,3.8,2.4c0.6,0.7,0.7,1.4,0.7,2.1c0,2.5-1.5,5.2-6.6,5.2c-1.1,0-3.1-0.2-5.2-0.7v-4.7h2l0.3,2.8l0.3,0.3
						c1.1,0.5,2,0.6,2.6,0.6c2.2,0,2.9-0.9,2.9-2.3c0-0.9-0.3-1.4-2.7-2.5c-3.2-1.4-5.1-2.5-5.1-4.9c0-3.8,4.1-4.7,6.4-4.7
						c1.1,0,2.8,0.1,4.7,0.8V64.9z"/>
				</g>
			</g>
			<g id="school">
				<g>
					<path class="st0" d="M159.1,101.6h2.4l0.5,3.8l0.4,0.5c1.1,0.4,2.2,0.5,2.8,0.5c1.9,0,4.1-0.9,4.1-3.1c0-2.7-3.2-3.9-4.7-4.6
						c-4-1.9-5.1-4.3-5.1-6.3c0-2,1.2-6.2,7.8-6.2c2.1,0,4.4,0.6,5.8,1.1v5.2h-2.3l-0.5-3.3l-0.4-0.4c-0.5-0.2-1.3-0.4-2.2-0.4
						c-1.7,0-2.6,0.6-2.8,0.8c-0.5,0.4-1,1.1-1,2.3c0,1.6,0.7,2.5,4.1,4.1c1.3,0.6,3,1.3,4.2,2.4c0.7,0.6,1.8,2,1.8,4
						c0,1.3-0.5,3.4-2.5,4.9c-1.7,1.2-4,1.7-6.3,1.7c-2.6,0-4.8-0.7-5.9-1.1V101.6z"/>
				</g>
				<g>
					<path class="st0" d="M190.4,106.6c-2.7,1.6-5.2,1.7-6,1.7c-2.7,0-4.5-1.1-5.5-2.1c-1.3-1.2-2.2-3.2-2.2-5.8c0-2.6,1-4.7,2.5-6.2
						c0.9-0.9,2.8-2.2,5.8-2.2c1.4,0,2.9,0.3,4,1.1c1.1,0.9,1.3,1.9,1.3,2.4c0,1.4-1,2.2-2.3,2.2c-0.5,0-1.1-0.1-1.9-0.6v-3.4
						c-0.3-0.1-0.5-0.1-0.8-0.1c-3.4,0-4.1,4.6-4.1,6c0,2.6,0.9,3.9,1.3,4.5c0.9,1.1,2.1,1.6,3.6,1.6c1.9,0,3.7-1,4.4-1.5V106.6z"/>
				</g>
				<g>
					<path class="st0" d="M198.2,84.4v9.7c2-1.1,3.8-2,5.7-2c2.1,0,4.2,1.2,4.2,5.3v8.6l0.4,0.4l1.7,0.2v1.4h-7.9v-1.4l1.4-0.2
						l0.5-0.4v-7.7c0-1.9-0.8-3.5-2.9-3.5c-1.2,0-2.5,0.4-3.1,0.6V106l0.5,0.4l1.4,0.2v1.4h-7.9v-1.4l1.6-0.2l0.5-0.4V87.2H192v-1.3
						l4.7-1.5H198.2z"/>
				</g>
				<g>
					<path class="st0" d="M217.1,95.7c-0.4,0.8-0.9,2.2-0.9,4.5c0,2.3,0.7,6.4,3.7,6.4c3.1,0,3.8-4.2,3.8-6.3c0-1.8-0.6-6.5-3.8-6.5
						C218.2,93.8,217.4,95,217.1,95.7 M225.5,94c1.2,1,2.6,2.9,2.6,6.2c0,6.5-4.7,8.1-8.2,8.1c-4.4,0-8.1-2.5-8.1-8.1
						c0-5.9,3.9-8.2,8.4-8.2C222.5,92.1,224.3,92.9,225.5,94"/>
				</g>
				<g>
					<path class="st0" d="M235.8,95.7c-0.4,0.8-0.9,2.2-0.9,4.5c0,2.3,0.7,6.4,3.7,6.4c3.1,0,3.8-4.2,3.8-6.3c0-1.8-0.6-6.5-3.8-6.5
						C236.9,93.8,236.2,95,235.8,95.7 M244.3,94c1.2,1,2.6,2.9,2.6,6.2c0,6.5-4.7,8.1-8.2,8.1c-4.4,0-8.1-2.5-8.1-8.1
						c0-5.9,3.9-8.2,8.4-8.2C241.2,92.1,243,92.9,244.3,94"/>
				</g>
				<polygon class="st0" points="248,106.8 249.8,106.7 250.3,106.2 250.3,87.4 248,87.4 248,86.1 252.8,84.6 254.2,84.6 
					254.2,106.2 254.7,106.7 256.5,106.8 256.5,108.3 248,108.3 			"/>
			</g>
		</g>
		<g>
			<g>
				<path class="st0" d="M116.7,72c4.6-0.4,9.6,0.8,11.3,4.3c0.7,1.4,0.1,2.5-0.6,1.6c-2.2-2.1-4.1-1.9-4.1-1.9s3.9,1.5,5.1,4.4
					c0.5,1,0.2,2-0.2,2.8c-0.4,0.8-1,0-1.3-0.7c-0.6-1.3-2.3-3.6-3.2-4.5c-1-0.9-3.3-2.2-3.7-2.7c-1.3-1.5-2.5-1.6-2.5-1.6l0.5,0.9
					c0,0,0.5,0.8,0.4,1.8c0,0.5-0.1,0.9-0.4,1.4c-0.1,0.2-0.3,0.4-0.5,0.6c-1.3-0.8-2.6-1.7-3.8-2.5c-0.2-3.3-1.9-5.5-3.4-6.9
					c-1.3-1.2-8.4-5.7-8.2-13.2c0-1.7,1.7-3.7,4.5-2.5c-1.1-1.3-2.2-1.2-3.3-1.7c-0.8-0.4-1.1-0.8-1-1.5c0-0.7,0.7-1.1,1.6-0.6
					c1.6,0.8,4.3,1.7,7.8,1.7c-1.6,1.9-3.8,2.8-3.8,2.8s1.2,2.6,4.9,4.1c-0.7,0.3-1.4,0.4-1.9,0.3c-1.5,0-2.5-0.9-3.5-2.1
					c-0.2-0.2-1-1.4-1.8-0.5c-0.6,0.6,0,2.4,3.7,6.6c2.4,2.8,6.4,4.7,9.7,5.5c5.1,1.2,7.9,0.6,8.3,0.5c-0.4,0.2-0.7,0.4-1.1,0.6
					c-3.1,1.3-5.9,0.6-9.2,0.3c-1.5-0.1-2.9,0-2.8,1.4C114.1,72.1,116.7,72,116.7,72 M121.8,79c0.1-1.1,0.9-0.8,1.3-0.3
					c1.6,1.6,3.2,4,3.6,5.6c0.1,0.5,0.1,1.7-0.4,2.2c-0.5,0.6-1-0.1-1.1-0.6c-0.3-1.3-1.7-3.3-2.7-4.6
					C122.2,80.8,121.7,80.1,121.8,79 M122.6,87.2c-1.4,1-2.6,1.4-3.9,1.5c-1.9,0.1-2.4-0.6-2.4-1.6c0-0.6,0.7-1.2,1.6-1.8
					c1-0.7,1.8-1.2,2.7-2.5C121.9,84.5,122.3,85.8,122.6,87.2 M125.2,91.4c-2.3,3.8-7.3,6.7-16.3,6.5c-3.5-0.1-6.4-1.3-9.1-1.4
					c-0.6,0-1.1,0-1.6,0.1c0.7-0.8,1.4-1.5,2.3-2.1c0.7-0.4,1.4-0.6,2.2-0.6c1.9,0.1,3.4,1.1,3.4,1.1s-0.1-2-1.8-3.2
					c0.4-0.1,0.7-0.1,1-0.1c1.6,0,2.7,1.3,4.2,3.1c0.1,0.1,0.1,0.1,0.2,0.2c0.1,0.1,0.2,0.3,0.4,0.4c0.1,0.1,0.2,0.1,0.2,0.2
					c0.1,0.1,0.2,0.2,0.3,0.2c0.1,0,0.2,0.1,0.2,0.1c0.1,0.1,0.2,0.1,0.3,0.1c0.1,0,0.2,0,0.2,0.1c0.1,0,0.1,0,0.2,0
					c0.1,0,0.1,0,0.1,0c0,0,0,0,0,0c0.3,0,0.6-0.1,0.9-0.3c0.3-0.2,0.4-0.6,0.4-0.8c0-0.1,0-0.1,0-0.1c0-0.1,0-0.2,0-0.3
					c0-0.1,0-0.2,0-0.3c-0.1-0.3-0.3-0.6-0.6-0.9c-0.2-0.2-0.5-0.4-0.8-0.6c-1-0.6-1.8-1.2-2.4-1.8c-0.1-0.1-0.2-0.3-0.4-0.5
					c0-0.1-0.1-0.1-0.2-0.2c-0.1-0.2-0.2-0.3-0.3-0.5c0-0.1-0.1-0.2-0.1-0.3c-0.1-0.1-0.1-0.3-0.1-0.4c0-0.2-0.1-0.3-0.1-0.5
					c0-0.1,0-0.2,0-0.2c0-0.2-0.1-0.5-0.1-0.7v-0.1c0-0.3,0-0.7,0-1v0v0c0-0.6,0-1.1,0-1.6v-0.1c0-0.1,0-0.3-0.1-0.4
					c0-0.3-0.1-0.7-0.2-0.9c-0.2-0.7-0.7-1.2-1.3-1.2h0h0c-0.2,0-0.5,0-0.8,0.4c-0.2,0.3-0.2,0.5-0.3,0.8v0c0,0.2,0,0.3,0,0.5
					c0,0,0,0-0.1,0c-0.1-0.1-0.3-0.2-0.4-0.3c0,0-0.1-0.1-0.1-0.1c-0.1-0.1-0.2-0.2-0.3-0.3c0,0,0,0-0.1-0.1c-0.4-0.4-0.7-1-0.7-1.9
					c0.1-1.8,1-2.2,1.9-2.2h0c0.9,0,1.3,0.6,1.8,1.3c0.2,0.2,0.3,0.5,0.5,0.7c0,0.1,0.1,0.2,0.2,0.2c0,0,0.1,0.1,0.1,0.1
					c0.1,0.1,0.2,0.2,0.3,0.3c0,0,0,0,0,0c0.1,0.1,0.3,0.2,0.5,0.2c0,0,0.1,0,0.1,0c0.1,0,0.2,0,0.3,0c0,0,0,0,0,0
					c0.1,0,0.2-0.1,0.3-0.2c0,0,0.1,0,0.1,0c0.2-0.2,0.3-0.4,0.3-0.6c0.1-0.2,0.1-0.5,0.1-0.7c0,0,0,0,0-0.1c0-1.2-0.4-2.7-0.6-3.7
					c-0.2-0.9-0.3-1.7-0.3-2.6c-0.1-1.9-0.1-3.8-0.9-5.6c1.7,1.1,4.9,3.8,4.7,8.6c-0.1,2.9-1.6,5.2-1.7,8.6
					c-0.1,4.2,1.9,7.4,6.5,7.5c2.1,0.1,3.9-0.7,5.3-2.3c-2.1,1.1-3.6,1.5-5.3,1.5c-4.3-0.1-5.8-3.6-5.7-6.1c0.1-4.3,4.4-5.3,6.4-8
					c0.4-0.6,0.6-1.3,0.6-1.8c0-0.4-0.1-0.8-0.1-1.2c0.7,0.6,1.6,1.7,1.5,3.8c-0.1,3.3-2.3,4.6-4,5.7c-1,0.7-1.6,1.7-1.6,2.6
					c0,1.5,1.2,2.8,3.3,2.8c2.6,0.1,7.9-1,9.8-4.9C127.6,88.4,125.2,91.3,125.2,91.4 M114.3,103.1
					C114.3,103.1,114.3,103.1,114.3,103.1c0.1-0.3,0.1-0.6,0.2-1c0,0,0-0.1,0-0.1c0-0.3,0-0.4-0.1-0.8c-0.2-0.4-0.6-0.5-0.8-0.5
					c0,0-0.1,0-0.1,0c-0.3,0-0.7,0.1-1.1,0.3c-0.1,0-0.1,0-0.2,0.1c-2.1,1.1-3.8,1.5-5.2,1.5c-0.1,0-0.1,0-0.2,0
					c-2.9-0.2-4.2-2.2-5.7-3.3c-0.9-0.7-1.7-1.1-2.4-1.5c-0.3-0.2-0.6-0.3-0.8-0.4c0.6-0.2,1.2-0.2,1.8-0.2c2.5,0.1,5.4,1.3,9.1,1.4
					h0c9,0.9,12.1-1,14.6-3.5C122.8,96.8,117.5,103.4,114.3,103.1 M105.3,103.9c0.2,0,0.4,0.1,0.6,0.1c0.1,0,0.1,0,0.2,0
					c0.1,0,0.3,0,0.4-0.1c0.4,0.1,0.8,0.2,0.9,0.4c0.8,0.9,0.2,2.7-0.6,3.4c-0.9,0.8-2.3,0.7-3.3,0.3c-0.8-0.4-1.1-1-0.9-1.3
					c0.3-0.6,1.7-0.5,2.4,0C105.7,105.6,105.7,104.6,105.3,103.9 M106.5,111.4c-2.2,0.4-3.8,0.5-5.9-0.5c-1.9-0.9-3.8-2-5.9-2.3
					c-0.6-0.2-1.2-0.4-1.7-0.4c-0.2,0-0.4,0-0.6,0c-0.3,0-0.6,0-0.9,0c-0.1,0-0.2,0.1-0.3,0.1c-0.9,0.2-1.5,0.7-1.9,1.3
					c-0.3,0.5-0.5,1.1-0.5,1.7c0,0.1,0,0.3,0,0.4c-0.1-0.3-0.2-0.6-0.3-0.9c-0.3-1.7,0.4-3.7,1.7-4.9c1.3-1.1,3.3-0.9,4.7-0.3
					c0.3,0.1,1.7,1.1,2.8,1.9c0,0.1,0,0.2,0.1,0.3c0.3,0.8,2.1,2.1,2.4,0.6c0.1-0.3-0.6-0.9-0.7-1.1c-0.2-0.8-0.1-2.1,0.3-2.8
					c0.5-1,1.4-1.7,2.9-1.1c0,0,0,0,0,0c0.6,0.3,0.9,0.7,1.1,1.2c0.1,0.3,0.2,0.7,0.2,0.9c0,0-0.1,0-0.1,0c-0.1,0-0.3-0.1-0.5-0.1
					c0,0-0.1,0-0.1,0c-0.2,0-0.4,0-0.6,0.1c0,0,0,0,0,0c0,0,0,0,0,0c-0.1,0-0.2,0.1-0.3,0.1c0,0-0.1,0-0.1,0c-0.1,0-0.1,0.1-0.2,0.1
					c-0.1,0-0.1,0.1-0.2,0.1c0,0-0.1,0.1-0.1,0.1c-0.1,0.1-0.1,0.1-0.2,0.2c0,0-0.1,0.1-0.1,0.1c0,0.1-0.1,0.1-0.1,0.2c0,0,0,0,0,0
					c0,0,0,0,0,0c0,0.1-0.1,0.2-0.1,0.3c0,0.1,0,0.1,0,0.2c0,0.4,0.1,0.9,0.3,1.2c0,0,0,0.1,0.1,0.1c0.2,0.3,0.5,0.6,0.8,0.8
					c0.1,0.1,0.2,0.1,0.3,0.2c0.1,0,0.2,0.1,0.3,0.1c0.9,0.3,2.1,0.3,3.6-0.1c1.4-0.4,1.9-2.2,1.8-3.5c0-0.4-0.5-1.4-1.1-2.1
					c0.8-0.3,1.5-0.6,2.2-0.6c0,0,0.1,0,0.1,0C112.4,106.1,110.5,110.7,106.5,111.4 M90.4,110.4c0.2-0.4,1.5-0.9,1.7,0.5
					c0.2,1-0.4,1.5-0.9,1.6c-0.5,0.1-0.9-0.3-1-1C90.1,111.2,90.1,110.8,90.4,110.4 M101.5,115.7c0,0-1.6,1.2-1.9,1.3
					c-0.6,0.2-1.4,0.2-2.1,0.3c-1.9,0.3-3.8-0.2-5.6-0.8c0.8,1.2,3.9,1.5,4.1,2.6c0.1,0.6-0.1,1.1-1.2,1.4c0-0.1-0.1-0.3-0.2-0.4
					c-0.1-0.3-0.4-0.5-0.7-0.8c-0.3-0.3-0.7-0.5-1.3-0.6c-1.9-0.5-3.2-1-3.5-3c0,0,0,0,0,0c0-0.3-0.1-0.5-0.3-0.7
					c-0.3-0.5-0.8-0.8-1.2-0.7c-0.1,0-0.2,0.1-0.3,0.1c-0.5,0.2-0.8,0.8-0.6,1.5c0,0.1,0,0.2,0.1,0.2c0.1,0.4,0.5,1.3,0.7,2.2
					c0.1,0.6,0.1,1.2-0.1,1.8c-0.8-0.9-1.7-1.2-1.7-1.2l-0.1,0.4c0,0.2-0.1,0.4-0.2,0.6c0,0.1-0.1,0.2-0.1,0.2
					c-0.1,0.2-0.1,0.3-0.2,0.4c0,0.1-0.1,0.2-0.1,0.2c-0.1,0.1-0.1,0.2-0.2,0.3c0,0.1-0.1,0.2-0.2,0.3c-0.1,0.1-0.1,0.1-0.2,0.2
					c-0.1,0.1-0.2,0.2-0.2,0.2c-0.1,0.1-0.1,0.1-0.2,0.2c-0.1,0.1-0.2,0.1-0.3,0.2c-0.1,0.1-0.2,0.1-0.3,0.2c-0.1,0-0.2,0.1-0.3,0.1
					c-0.2,0.1-0.4,0.2-0.6,0.2c-0.1,0-0.1,0-0.2,0.1c-0.1,0-0.3,0.1-0.4,0.1c0,0,0,0-0.1,0c0,0,0,0,0,0c-0.3,0.1-0.6,0.1-0.9,0.1
					c0,0-0.1,0-0.2,0c-0.2,0-0.4,0-0.6,0c-0.1,0-0.1,0-0.2,0c-0.2,0-0.4,0-0.6-0.1c0,0,0,0-0.1,0c-0.2,0-0.4-0.1-0.6-0.1
					c0,0,0,0,0,0c-0.2,0-0.3-0.1-0.5-0.2c0,0-0.1,0-0.1,0c-0.1-0.1-0.2-0.1-0.4-0.2c0,0,0,0,0,0c-0.1,0-0.1-0.1-0.2-0.1
					c-0.1-0.1-0.2-0.2-0.3-0.2c0,0-0.1,0-0.1-0.1c0.2,0,0.4,0,0.6,0c0.1,0,0.2,0,0.3,0c0.1,0,0.2,0,0.3,0c0.2,0,0.4,0,0.6-0.1
					c0.1,0,0.2,0,0.3-0.1c1.5-0.3,2.7-1.1,3.6-2.2c0.5-0.6,0.9-1.3,1.3-2.1c0.6-1.5,1.1-3,1.7-4.4c0.1-0.3,0.3-0.6,0.4-0.9
					c0.1-0.1,0.1-0.2,0.1-0.3c0.1-0.3,0.3-0.6,0.4-0.9c0.1-0.1,0.1-0.2,0.1-0.3c0.2-0.3,0.3-0.7,0.5-1c0,0,0,0,0-0.1
					c0.4-0.7,0.8-1.4,1.2-2c0,0,0,0,0-0.1c-0.5,1.1-0.6,2.3-0.5,3.4c0.2,0.9,0.6,1.8,1.3,2.4c0.5,0.4,1,0.6,1.6,0.7c0,0,0,0,0,0
					c0,0,0.1,0,0.1,0c0.2,0,0.3,0,0.5,0c1.3-0.2,2.3-1.5,2-3.2c0-0.1,0-0.2-0.1-0.3c0.1,0,0.2,0.1,0.3,0.1c0,0,0.1,0,0.1,0
					c0.2,0.1,0.4,0.2,0.6,0.3c0.1,0.1,0.2,0.1,0.3,0.2c0.1,0.1,0.3,0.2,0.4,0.3c0,0,0,0,0,0c0.1,0.1,0.3,0.3,0.4,0.5c0,0,0,0,0,0
					c0.1,0.2,0.2,0.4,0.3,0.6c0,0,0,0,0,0c0,0.1,0,0.2,0,0.2c0,0.2,0,0.3,0,0.5c0,0.1,0,0.2,0,0.3c0,0.4-0.1,0.6-0.1,0.6l-0.4,0.9
					l0.9-0.5c0,0,0.1,0,0.2-0.1c0.1-0.1,0.3-0.1,0.6-0.2C98.5,114.1,100,115.2,101.5,115.7 M106.8,70.4c-1-1-2.2-2.3-2.8-3
					c-2-2.3-2.3-4.3-2.3-5.2c0-1,0.6-1,1-0.2c1.2,2.3,2.4,3.7,3.5,5c0.3,0.4,1.3,1.3,1.5,2.5C108.1,70.9,107.3,70.8,106.8,70.4
					 M101.7,41.3v-4.3v-0.8H101h-4.7c-0.6-0.3-0.9-0.7-1.1-1c-0.4-0.5-0.7-1.1-1-1.7c-0.1-0.3-0.4-1.5,0.3-2.3
					c0.3-0.1,0.7-0.2,1-0.3c0,0,0,0,0,0c1.7-0.4,3.4,0,4.8,1.8c1.5,1.9,1.8,2.5,3.1,4.7c1.4,2.2,3.8,4.9,6.6,4.9
					c1.4,0,2.8-0.9,2.8-2.6c0-1-1.6-2.3-2.5,0.7c-1.1-3,0.1-4.1,1.8-4.2c2.5,0,4.2,1.9,4.4,4c0,0.2,0,0.4,0,0.6c0,0.1,0,0.1,0,0.2
					c0,0.2,0,0.5,0,0.7c0,0.1,0,0.1,0,0.2c0,0.3-0.1,0.5-0.2,0.8c-0.4,1.4-1.3,2.6-2.6,3.7c-1.8,1.2-3.9,2-6.2,2
					c-1.1,0-2.3-0.1-3.4-0.5c-1.1-0.4-2.3-1.6-1.2-2.8c0.8-0.8,1.5-0.2,2.4,0.1c2.3,0.8,4.8,0.3,6.8-1.4
					C106.8,45,103.3,43.3,101.7,41.3 M83.5,107.5c-4.2,4-8.4,6.8-11.6,8.7c-2.5,1.5-4.4,2.3-5,2.5c-0.6-0.3-2.5-1.1-5-2.5
					c-9.4-5.4-27.9-19.6-28.3-47.5c0-0.3,0-0.7,0-1V39.1v-1.4h1.5h63.6h1.5v1.4v6.8v21.7c0,0.3,0,0.7,0,1
					C100,87.2,91.8,99.6,83.5,107.5 M21.9,43.9c2,1.7,4.5,2.1,6.8,1.4c0.9-0.3,1.6-0.9,2.4-0.1c1.1,1.1-0.1,2.4-1.2,2.8
					c-1,0.4-2.3,0.5-3.3,0.5c-2.3,0-4.4-0.7-6.2-2c-1.4-1.1-2.3-2.4-2.6-3.7c-0.1-0.3-0.1-0.5-0.2-0.8c0-0.1,0-0.1,0-0.2
					c0-0.2,0-0.4,0-0.7c0-0.1,0-0.1,0-0.2c0-0.2,0-0.4,0-0.6c0.2-2.1,1.9-4,4.4-4c1.6,0.1,2.9,1.1,1.8,4.2c-0.9-3-2.5-1.7-2.5-0.7
					c0,1.6,1.4,2.6,2.8,2.6c2.8,0,5.2-2.7,6.6-4.9c1.3-2.2,1.7-2.8,3.1-4.7c1.4-1.8,3-2.3,4.8-1.8c0,0,0,0,0,0
					c0.4,0.1,0.8,0.2,1.3,0.4c0.4,0.7,0.1,1.9,0,2.2c-0.3,0.6-0.7,1.2-1,1.7c-0.2,0.3-0.4,0.7-1,1h-5.5v0.8v4.3
					C30.6,43.3,27.1,45,21.9,43.9 M29.8,67.4c-0.6,0.7-1.7,2-2.8,3c-0.4,0.4-1.3,0.5-1-0.9c0.2-1.2,1.2-2.1,1.5-2.5
					c1.1-1.3,2.3-2.7,3.5-5c0.4-0.8,1-0.8,1,0.2C32.1,63.2,31.8,65.1,29.8,67.4 M23.7,68.9c-1.5,1.4-3.2,3.6-3.4,6.9
					c-1.2,0.9-2.5,1.7-3.8,2.5c-0.2-0.2-0.4-0.4-0.5-0.6c-0.3-0.5-0.4-0.9-0.4-1.4c0-1,0.5-1.8,0.4-1.8l0.5-0.9c0,0-1.3,0-2.5,1.6
					c-0.4,0.5-2.7,1.8-3.7,2.7c-0.9,0.9-2.7,3.2-3.2,4.5c-0.3,0.7-0.9,1.5-1.3,0.7c-0.4-0.8-0.6-1.8-0.2-2.8
					c1.2-2.9,5.1-4.4,5.1-4.4s-1.9-0.2-4.1,1.9c-0.7,0.9-1.3-0.1-0.6-1.6c1.7-3.6,6.8-4.7,11.3-4.3c0,0,2.5,0.1,2.6-1.5
					c0.1-1.5-1.4-1.6-2.8-1.4c-3.2,0.3-6,1-9.2-0.3c-0.4-0.2-0.8-0.4-1.1-0.6c0.4,0.1,3.2,0.7,8.3-0.5c3.4-0.8,7.3-2.8,9.7-5.5
					c3.7-4.2,4.3-6,3.7-6.6c-0.8-0.9-1.7,0.3-1.8,0.5c-1,1.2-2,2.1-3.5,2.1c-0.5,0-1.2-0.1-1.9-0.3c3.7-1.5,4.9-4.1,4.9-4.1
					s-2.3-0.8-3.8-2.8c3.5,0.1,6.2-0.9,7.8-1.7c0.9-0.4,1.5-0.1,1.6,0.6c0,0.7-0.2,1.1-1,1.5c-1.1,0.5-2.2,0.4-3.3,1.7
					c2.9-1.2,4.5,0.8,4.5,2.5C32.1,63.2,25,67.8,23.7,68.9 M13.3,82.9c0.9,1.3,1.7,1.8,2.7,2.5c0.9,0.6,1.6,1.2,1.6,1.8
					c0,1-0.5,1.6-2.3,1.6c-1.3,0-2.5-0.4-3.9-1.5C11.6,85.8,11.9,84.5,13.3,82.9 M11.4,81.2c-1,1.3-2.4,3.3-2.7,4.6
					c-0.1,0.5-0.6,1.2-1.1,0.6c-0.5-0.5-0.5-1.7-0.4-2.2c0.4-1.5,2-4,3.6-5.6c0.4-0.4,1.2-0.7,1.3,0.3
					C12.2,80.1,11.7,80.8,11.4,81.2 M24.8,74c-0.1,0.9-0.1,1.7-0.3,2.6c-0.2,1-0.6,2.5-0.6,3.7c0,0,0,0,0,0.1c0,0.2,0.1,0.5,0.1,0.7
					c0.1,0.2,0.2,0.4,0.3,0.6c0,0,0.1,0,0.1,0c0.1,0.1,0.2,0.1,0.3,0.2c0,0,0,0,0,0c0.1,0,0.2,0,0.3,0c0,0,0.1,0,0.1,0
					c0.2,0,0.4-0.1,0.5-0.2c0,0,0,0,0,0c0.1-0.1,0.2-0.2,0.3-0.3c0,0,0.1-0.1,0.1-0.1c0.1-0.1,0.1-0.2,0.1-0.2
					c0.2-0.2,0.3-0.5,0.5-0.7c0.5-0.7,0.9-1.3,1.8-1.3h0c0.9,0,1.8,0.5,1.9,2.2c0,0.9-0.3,1.5-0.6,1.9c0,0,0,0-0.1,0.1
					c-0.1,0.1-0.2,0.2-0.3,0.3c0,0-0.1,0.1-0.1,0.1c-0.2,0.1-0.3,0.2-0.4,0.3c0,0,0,0-0.1,0c0-0.2,0-0.3,0-0.5c0,0,0,0,0,0
					c0-0.3,0-0.5-0.2-0.8c-0.3-0.4-0.6-0.4-0.8-0.4h-0.1h0c-0.5,0-1.1,0.6-1.3,1.2c-0.1,0.3-0.1,0.6-0.2,0.9c0,0.1,0,0.3-0.1,0.4
					v0.1c0,0.5,0,1,0,1.6v0v0c0,0.4,0,0.7,0,1v0.1c0,0.3-0.1,0.5-0.1,0.7c0,0.1,0,0.2,0,0.2c0,0.2-0.1,0.3-0.1,0.5
					c0,0.1-0.1,0.3-0.1,0.4c0,0.1-0.1,0.2-0.1,0.3c-0.1,0.2-0.2,0.4-0.3,0.5c-0.1,0.1-0.1,0.1-0.2,0.2c-0.1,0.2-0.2,0.3-0.4,0.5
					c-0.6,0.7-1.4,1.3-2.4,1.8c-0.3,0.2-0.6,0.4-0.8,0.6c-0.3,0.3-0.5,0.6-0.6,0.9c0,0.1,0,0.2-0.1,0.3c0,0.1,0,0.2,0,0.3
					c0,0,0,0,0,0.1c0,0.2,0.1,0.5,0.4,0.8c0.3,0.2,0.6,0.3,0.9,0.3c0,0,0,0,0,0c0,0,0.1,0,0.1,0c0.1,0,0.1,0,0.2,0
					c0.1,0,0.1,0,0.2-0.1c0.1,0,0.2-0.1,0.3-0.1c0.1,0,0.1-0.1,0.2-0.1c0.1-0.1,0.2-0.1,0.3-0.2c0.1-0.1,0.1-0.1,0.2-0.2
					c0.1-0.1,0.2-0.2,0.4-0.4c0.1-0.1,0.1-0.1,0.2-0.2c1.5-1.7,2.6-3,4.2-3.1c0.3,0,0.7,0,1,0.1c-1.7,1.2-1.8,3.2-1.8,3.2
					s1.5-1,3.4-1.1c0.8,0,1.5,0.1,2.2,0.6c0.9,0.6,1.6,1.4,2.3,2.1c-0.5-0.1-1.1-0.1-1.6-0.1c-2.7,0.1-5.6,1.3-9.1,1.4
					c-9,0.2-14.1-2.7-16.3-6.5c0,0-2.4-2.9-2.7-6.1c1.9,3.9,7.2,5,9.8,4.9c2.1-0.1,3.3-1.3,3.3-2.8c0-1-0.6-2-1.6-2.6
					c-1.7-1.1-3.9-2.4-4-5.7c-0.1-2.1,0.8-3.2,1.5-3.8c-0.1,0.4-0.1,0.7-0.1,1.2c0,0.6,0.2,1.2,0.6,1.8c2,2.8,6.3,3.7,6.4,8
					c0.1,2.5-1.5,6-5.7,6.1c-1.7,0-3.2-0.4-5.3-1.5c1.5,1.5,3.2,2.3,5.3,2.3c4.6-0.1,6.7-3.3,6.5-7.5c-0.1-3.4-1.6-5.7-1.7-8.6
					c-0.2-4.8,3-7.5,4.7-8.6C24.9,70.2,24.9,72.1,24.8,74 M35.1,97.8c-0.7,0.3-1.5,0.8-2.4,1.5c-1.4,1-2.8,3.1-5.7,3.3
					c0,0-0.1,0-0.2,0c-1.3,0-3-0.3-5.1-1.5c-0.1,0-0.1-0.1-0.2-0.1c-0.4-0.2-0.8-0.3-1.1-0.3c0,0,0,0-0.1,0c-0.2,0-0.6,0.1-0.8,0.5
					c-0.2,0.4-0.1,0.6-0.1,0.8c0,0,0,0.1,0,0.1c0,0.4,0.1,0.7,0.2,1c0,0,0,0,0,0c-3.2,0.3-8.5-6.3-9.2-8.1c2.5,2.6,5.6,4.4,14.6,3.5
					h0c3.6-0.1,6.6-1.3,9-1.4c0.6,0,1.2,0,1.8,0.2C35.7,97.5,35.4,97.6,35.1,97.8 M28.8,106.7c0.8-0.5,2.2-0.6,2.4,0
					c0.1,0.3-0.1,0.9-0.9,1.3c-1,0.5-2.4,0.5-3.3-0.3c-0.8-0.7-1.4-2.5-0.6-3.4c0.2-0.2,0.6-0.3,0.9-0.4c0.1,0,0.3,0.1,0.4,0.1
					c0.1,0,0.1,0,0.2,0c0.2,0,0.4-0.1,0.6-0.1C28.2,104.6,28.2,105.6,28.8,106.7 M33.8,104.4c0.4,0.7,0.5,2.1,0.3,2.8
					c-0.1,0.3-0.7,0.9-0.7,1.1c0.4,1.4,2.1,0.2,2.4-0.6c0-0.1,0.1-0.2,0.1-0.3c1.1-0.8,2.6-1.7,2.8-1.9c1.5-0.7,3.4-0.8,4.7,0.3
					c1.3,1.1,2,3.2,1.7,4.9c0,0.3-0.1,0.6-0.3,0.9c0-0.1,0-0.3,0-0.4c0-0.6-0.2-1.2-0.5-1.7c-0.4-0.6-1.1-1.1-1.9-1.3
					c-0.1,0-0.2-0.1-0.3-0.1c-0.3,0-0.6-0.1-0.9,0c-0.2,0-0.4,0-0.6,0c-0.5,0.1-1.1,0.2-1.7,0.4c-2.1,0.3-4,1.4-5.9,2.3
					c-2,1-3.6,0.9-5.9,0.5c-4-0.6-5.9-5.3-3.6-8.4c0.1,0,0.1,0,0.1,0c0.6-0.1,1.4,0.3,2.2,0.6c-0.6,0.7-1,1.7-1.1,2.1
					c-0.1,1.3,0.4,3,1.8,3.5c1.5,0.5,2.7,0.4,3.6,0.1c0.1,0,0.2-0.1,0.3-0.1c0.1-0.1,0.2-0.1,0.3-0.2c0.4-0.2,0.6-0.5,0.8-0.8
					c0,0,0,0,0.1-0.1c0.2-0.4,0.3-0.8,0.3-1.2c0-0.1,0-0.1,0-0.2c0-0.1-0.1-0.2-0.1-0.3c0,0,0,0,0,0c0,0,0,0,0,0
					c0-0.1-0.1-0.1-0.1-0.2c0,0-0.1-0.1-0.1-0.1c-0.1-0.1-0.1-0.1-0.2-0.2c0,0-0.1-0.1-0.1-0.1c-0.1,0-0.1-0.1-0.2-0.1
					c-0.1,0-0.1-0.1-0.2-0.1c0,0-0.1,0-0.1,0c-0.1,0-0.2-0.1-0.3-0.1c0,0,0,0,0,0c0,0,0,0,0,0c-0.2,0-0.4-0.1-0.6-0.1
					c0,0-0.1,0-0.1,0c-0.2,0-0.3,0-0.5,0.1c0,0-0.1,0-0.1,0c0-0.2,0.1-0.6,0.2-0.9c0.2-0.5,0.5-0.9,1.1-1.2c0,0,0,0,0,0
					C32.4,102.7,33.4,103.5,33.8,104.4 M41.8,111c0.2-1.4,1.5-0.9,1.7-0.5c0.2,0.4,0.2,0.8,0.2,1.1c-0.1,0.7-0.5,1.1-1,1
					C42.2,112.5,41.6,111.9,41.8,111 M45.5,107.5c0.4,0.6,0.8,1.2,1.2,2c0,0,0,0,0,0.1c0.2,0.3,0.3,0.7,0.5,1c0,0.1,0.1,0.2,0.1,0.3
					c0.1,0.3,0.2,0.6,0.4,0.9c0,0.1,0.1,0.2,0.1,0.3c0.1,0.3,0.3,0.6,0.4,0.9c0.6,1.4,1.1,2.9,1.7,4.4c0.3,0.8,0.7,1.5,1.3,2.1
					c0.9,1.1,2.1,1.8,3.6,2.2c0.1,0,0.2,0.1,0.3,0.1c0.2,0,0.4,0.1,0.6,0.1c0.1,0,0.2,0,0.3,0c0.1,0,0.2,0,0.3,0c0.2,0,0.4,0,0.6,0
					c0,0-0.1,0.1-0.1,0.1c-0.1,0.1-0.2,0.2-0.3,0.2c-0.1,0-0.1,0.1-0.2,0.1c0,0,0,0,0,0c-0.1,0.1-0.2,0.1-0.3,0.2c0,0-0.1,0-0.1,0
					c-0.1,0.1-0.3,0.1-0.4,0.2c0,0,0,0,0,0c-0.2,0.1-0.4,0.1-0.6,0.1c0,0,0,0-0.1,0c-0.2,0-0.4,0-0.6,0.1c-0.1,0-0.1,0-0.2,0
					c-0.2,0-0.4,0-0.6,0c-0.1,0-0.1,0-0.2,0c-0.3,0-0.6,0-0.9-0.1c0,0-0.1,0-0.1,0c0,0,0,0-0.1,0c-0.1,0-0.3-0.1-0.4-0.1
					c-0.1,0-0.2,0-0.2-0.1c-0.2-0.1-0.4-0.1-0.6-0.2c-0.1,0-0.2-0.1-0.3-0.1c-0.1-0.1-0.2-0.1-0.3-0.2c-0.1-0.1-0.2-0.1-0.3-0.2
					c-0.1-0.1-0.1-0.1-0.2-0.2c-0.1-0.1-0.2-0.1-0.2-0.2c-0.1-0.1-0.2-0.1-0.2-0.2c-0.1-0.1-0.1-0.2-0.2-0.3
					c-0.1-0.1-0.1-0.2-0.2-0.3c0-0.1-0.1-0.2-0.1-0.2c-0.1-0.1-0.1-0.3-0.2-0.4c0-0.1,0-0.2-0.1-0.2c-0.1-0.2-0.1-0.4-0.1-0.6
					l-0.1-0.4c0,0-0.9,0.3-1.7,1.2c-0.2-0.5-0.2-1.2-0.1-1.8c0.2-1,0.6-1.8,0.7-2.2c0-0.1,0-0.2,0.1-0.2c0.1-0.7-0.2-1.3-0.6-1.5
					c-0.1-0.1-0.2-0.1-0.3-0.1c-0.5-0.1-0.9,0.2-1.2,0.7c-0.1,0.2-0.2,0.4-0.3,0.7c0,0,0,0,0,0c-0.4,2-1.7,2.6-3.5,3
					c-0.6,0.1-1,0.3-1.3,0.6c-0.3,0.3-0.6,0.5-0.7,0.8c-0.1,0.2-0.1,0.3-0.2,0.4c-1.1-0.3-1.3-0.8-1.2-1.4c0.2-1,3.2-1.4,4.1-2.6
					c-1.7,0.7-3.7,1.1-5.6,0.8c-0.6-0.1-1.5-0.1-2.1-0.3c-0.3-0.1-2-1.2-1.9-1.3c1.5-0.5,3-1.6,4.6-1.3c0.2,0,0.4,0.1,0.6,0.2
					c0.1,0,0.2,0.1,0.2,0.1l0.9,0.5l-0.4-0.9c0,0-0.1-0.3-0.1-0.6c0-0.1,0-0.2,0-0.3c0-0.1,0-0.3,0-0.5c0-0.1,0-0.2,0.1-0.2
					c0,0,0,0,0,0c0.1-0.2,0.1-0.4,0.3-0.6c0,0,0,0,0,0c0.1-0.2,0.2-0.3,0.4-0.5c0,0,0,0,0,0c0.1-0.1,0.2-0.2,0.4-0.3
					c0.1-0.1,0.2-0.2,0.3-0.2c0.2-0.1,0.4-0.2,0.6-0.3c0,0,0.1,0,0.1,0c0.1,0,0.2-0.1,0.3-0.1c0,0.1-0.1,0.2-0.1,0.3
					c-0.3,1.6,0.7,3,2,3.2c0.2,0,0.3,0,0.5,0c0,0,0.1,0,0.1,0c0,0,0,0,0,0c0.5-0.1,1.1-0.3,1.6-0.7c0.7-0.6,1.1-1.5,1.3-2.4
					C46.1,109.8,45.9,108.5,45.5,107.5C45.5,107.5,45.5,107.5,45.5,107.5 M1.1,61.3c0.1,0,5.6,3.9,6.5,2.3c0.4-0.8-1.2-2.1-1.5-2.8
					c-0.8-1.8-0.9-4,0.3-5.5c0.9-1.1,3.2-2.8,3.1-4.2c0.8,0.2,2.4,0.9,2,3.3c-0.2,1.1-1.5,2.5-1.6,3.2c0,0.2,0,0.4,0,0.6
					c0,0.1,0,0.1,0,0.2c0,0.1,0,0.2,0,0.4c0,0,0,0,0,0c0.1,0.4,0.3,0.7,0.5,1l0.5,0.6l0.2-0.7c0,0,0.6-1.9,1.8-3
					c0.1-0.1,0.2-0.2,0.3-0.2c0,0,0.1-0.1,0.1-0.1c0.5-0.4,1.2-0.6,2-0.5c0,0,0.1,0,0.1,0c1,0.2,1.3,0.7,1.5,1.3
					c0.1,0.3,0.1,0.6,0.1,0.8c-0.2,0-0.5,0-0.8,0c-0.6,0.1-1.4,0.3-1.9,1c-0.3,0.3-0.5,0.7-0.6,1.3c0,0.1-0.1,0.2-0.1,0.3
					c0,0.1,0,0.3,0,0.4c0,1.1,0.4,2.2,1.3,3.1c1.3,1.3,4.7,1.5,4.7,1.5c-4.1,2.5-8.1-2.4-8.1-2.4s0.4,1.4,1.7,2.7
					c0.3,0.4,1,1.5-0.8,1.8c-2.5,0.5-5.1,0.3-7.2-0.5C1.8,66,1,61.3,1.1,61.3 M23.2,59.7c4.5-0.3-2.4,4.8-2.4,4.8
					c-0.8,0.2-1.6-0.3-2.5-0.4c-2.5-0.3-3.6-2.1-3.4-3.4c0.2-1.3,1.8-0.8,2.7-1.2c0.4-0.2,0.8-0.6,1.2-1.1c0.3,0.1,0.6,0.2,0.9,0.4
					C20.9,59.4,22.2,59.8,23.2,59.7 M20.1,56.6C20,56.6,20,56.6,20.1,56.6c-0.1,0-0.1,0-0.1,0l-0.7,0.1c-0.1,0.1-0.2,0.2-0.3,0.3
					c-0.9-0.4-1-1.3-1.9-2.1c-1.3-1.1-3.3-0.9-4.6,0c0.8-0.5,0.7-4.4-2.8-5.5c0-0.5,0.1-1,0.2-1.2c0.6-0.8,1.9-0.2,2.6,0.1
					c1.6,0.7,4.3,1.9,7.8,2.1c0.9,1.6,2.8,3.2,3.7,3.8c-0.8,0.9-1.7,1.4-2.4,1.8c-0.4,0.2-0.8,0.4-1.1,0.5
					C20.2,56.6,20.1,56.6,20.1,56.6 M19.8,35.1c-1.6,0.6-3.2,2.3-3.6,4.3c-0.2-0.8-0.3-1.6-0.3-2.3c0-3.4,2-5.8,4-5.8
					C21.6,31.3,21.9,34.4,19.8,35.1 M6.6,46.5c0-3.1,3.6-2.6,3.6-2.6s-4.8-6.9-1.1-10.6C9.4,43,15.8,47,18.6,48
					c-2.4-1.7-8-6.4-8.1-14.3c0-7,4.4-10.1,7.6-11.8c2.1-1.1,4-1.5,5.1-5.1c1,2.1,0,5.7-3.4,6.9c-5.4,1.8-7.1,6.1-6.7,7.5
					c0.7-1.6,3.1-5.6,6.7-5.6c2.7,0,4,1.2,4.1,3.2c0,2.4-1.5,3.5-1.5,3.6c0-0.1-0.2-2.6-3-2.6c-1.9,0-3.4,1.6-4.3,3.6
					c-0.4,1-0.7,2.2-0.7,3.5c0,0,0,0.1,0,0.1h0c0,1.3,0.3,2.7,0.8,4c0,0.1,0,0.1,0.1,0.1c0.2,0.5,0.4,0.9,0.7,1.3
					c0.1,0.3,0.3,0.5,0.4,0.7c0,0,0,0.1,0,0.1c0,0,0,0,0,0c0.9,1.5,2.1,2.7,3.5,3.7c0,0,1.9,1.1,2.9,1.5c-5.2,1.8-10.5-2.3-12.2-2.3
					c-1.1,0-2.1,0.9-2.1,2.1v0v0c0,0.1,0,0.3,0.1,0.5c0,0.1,0,0.2,0.1,0.3C7.8,49,6.6,48.3,6.6,46.5 M33.7,21.2
					c-0.2-0.6-0.3-0.8-0.4-1.3c-0.3-1-0.1-1.5,0.5-1.9c1.1-0.8,3.6-1.9,6.1-2.7c0.7-0.2,1.4-0.4,2.1-0.7c0.3-0.1,0.8-0.1,0.9,0.6
					c0.1,0.6,0.2,1.2,0.4,2c0.2,0.7-0.3,1-0.6,1.1c-2.6,0.7-4.7,1.5-6.3,2.3c-0.6,0.3-1.2,0.6-1.7,0.9C34.5,21.7,34,22,33.7,21.2
					 M32.3,16.7c-0.1-0.4-0.2-0.8-0.5-1.5c-0.2-0.7-0.1-1.2,0.2-1.5c0.3-0.3,0.7-0.6,1.2-1c0.2-0.2,0.8-0.3,1,0.3
					c0.2,0.6,0.3,1.1,0.5,1.9c0.2,0.8-0.2,1.1-0.5,1.2c-0.4,0.2-0.9,0.5-1.1,0.8C32.8,17.3,32.4,17.2,32.3,16.7 M30.8,12
					c-0.2-0.6-0.3-0.9-0.4-1.2c-0.3-1-0.1-1.4,0.3-1.8c0.8-0.8,2.5-1.9,4.9-2.8c0.4-0.1,1.1-0.1,1.3,0.7c0.2,0.8,0.3,1.1,0.4,1.5
					c0.2,0.8-0.4,1.3-0.7,1.5c-1.6,0.6-2.9,1.2-3.9,1.9c-0.3,0.2-0.6,0.4-0.8,0.6C31.5,12.5,31,12.6,30.8,12 M38,11.7
					c0.1,0.5,0.2,0.8,0.4,1.6c0.2,0.8,0,1.1-0.5,1.3c-0.4,0.2-0.7,0.3-1.1,0.4c-0.5,0.1-0.9,0.1-1.1-0.5c-0.2-0.6-0.2-0.8-0.5-1.7
					c-0.2-0.9,0.3-1.3,0.6-1.4c0.3-0.1,0.6-0.3,1-0.4C37.5,10.9,37.9,11.2,38,11.7 M44.9,13.9c3-0.7,9.4-1.6,12.8-1.9
					c0.4,0,1,0.2,1.1,0.9c0.1,0.8,0.1,1.5,0.1,2.2c0.1,1-0.6,1.3-0.9,1.3c-4.6,0.3-8.8,0.9-12.4,1.7c-0.3,0.1-1,0.1-1.2-0.8
					c-0.2-1-0.3-1.4-0.4-2C43.9,14.3,44.5,14,44.9,13.9 M49.9,12c-0.5,0.1-1,0.2-1.5,0.2c-0.3,0.1-0.8,0-0.9-0.7
					c-0.1-0.7-0.3-1.5-0.4-2.3C47,8.3,47.5,8,47.8,8c0.4-0.1,0.9-0.1,1.4-0.2c0.3-0.1,0.9,0,1,0.8c0.1,0.8,0.2,1.8,0.3,2.5
					C50.7,11.8,50.2,12,49.9,12 M46.3,4.2c-0.1-0.8,0.4-1.1,0.7-1.1c1.8-0.3,3.7-0.7,5.8-0.9c0.3,0,0.8,0,0.9,0.8
					c0.1,0.8,0.2,1.7,0.2,2.4c0.1,0.7-0.4,0.9-0.7,0.9c-1.9,0.2-3.8,0.5-5.6,0.8c-0.3,0-0.9,0-1-0.8C46.5,5.6,46.4,5,46.3,4.2
					 M54.1,8c0.1,0.8,0.1,1.3,0.2,2.4c0.1,0.8-0.4,1.1-0.7,1.1c-0.4,0-0.9,0.1-1.4,0.2c-0.3,0-0.9,0.1-1-0.8
					c-0.1-0.9-0.2-1.7-0.3-2.3c-0.1-0.9,0.4-1.1,0.7-1.2c0.5-0.1,0.9-0.1,1.4-0.2C53.4,7.2,54.1,7.3,54.1,8 M60.3,11.8
					c2.1-0.1,4.3-0.2,6.6-0.2l0,0c2.3,0,4.5,0.1,6.6,0.2c0.1,0,0.9,0.2,0.8,1c-0.1,0.8-0.1,1.4-0.1,2.3c-0.1,0.9-0.8,1-1.1,1
					c-2-0.1-4-0.2-6.1-0.2c-2.1,0-4.1,0.1-6.1,0.2c-0.4,0-1.1-0.1-1.1-1c-0.1-0.9-0.1-1.6-0.1-2.3C59.5,12,60.2,11.8,60.3,11.8
					 M66.6,7.3v2.6c0,0.8-0.5,1-0.8,1c-0.5,0-0.9,0-1.3,0c-0.3,0-0.9-0.1-0.9-0.9c0-0.8,0-1.6-0.1-2.5c-0.1-0.9,0.5-1,0.8-1
					c0.5,0,1,0,1.5,0C66,6.4,66.6,6.5,66.6,7.3 M70.4,7.4c-0.1,0.9-0.1,1.6-0.1,2.5c0,0.8-0.6,0.9-0.9,0.9c-0.4,0-0.9,0-1.3,0
					c-0.3,0-0.8-0.2-0.8-1V7.3c0-0.7,0.6-0.9,0.8-0.9c0.5,0,1,0,1.5,0C69.9,6.4,70.5,6.5,70.4,7.4 M64.3,1.3c0.9,0,4.4,0,5.3,0
					c0.4,0,1.1,0.1,1,1.1c0,1,0,1.3-0.1,2.1c0,0.8-0.5,1-1,1c-0.9,0-4.3,0-5.2,0c-0.5,0-1-0.2-1-1c0-0.8,0-1-0.1-2.1
					C63.2,1.4,63.9,1.3,64.3,1.3 M75.1,12.9c0-0.8,0.7-1,1.1-0.9c3.5,0.3,9.8,1.1,12.8,1.9c0.4,0.1,1,0.5,0.8,1.4
					c-0.1,0.6-0.2,1-0.4,2c-0.2,1-0.8,0.9-1.2,0.8c-3.6-0.7-7.8-1.3-12.4-1.7c-0.3,0-0.9-0.3-0.9-1.3C75,14.4,75.1,13.7,75.1,12.9
					 M79.5,10.4c0.1-1.1,0.2-1.6,0.2-2.4c0.1-0.8,0.7-0.9,1-0.8c0.5,0.1,0.9,0.1,1.4,0.2c0.3,0,0.8,0.3,0.7,1.2
					c-0.1,0.7-0.2,1.4-0.3,2.3c-0.1,0.9-0.7,0.9-1,0.8c-0.5-0.1-0.9-0.1-1.4-0.2C79.9,11.5,79.4,11.3,79.5,10.4 M86.8,9.2
					c-0.1,0.8-0.3,1.6-0.4,2.3c-0.1,0.7-0.7,0.8-0.9,0.7c-0.5-0.1-1-0.2-1.5-0.2c-0.3,0-0.8-0.2-0.6-1c0.1-0.7,0.2-1.7,0.3-2.5
					c0.1-0.8,0.7-0.9,1-0.8c0.5,0.1,0.9,0.2,1.4,0.2C86.3,8,86.9,8.3,86.8,9.2 M80,5.4c0.1-0.7,0.2-1.7,0.2-2.4
					c0.1-0.8,0.6-0.8,0.9-0.8c2,0.2,3.9,0.6,5.8,0.9c0.3,0.1,0.8,0.4,0.7,1.1c-0.1,0.8-0.2,1.4-0.4,2.2c-0.1,0.8-0.7,0.8-1,0.8
					c-1.8-0.3-3.6-0.6-5.6-0.8C80.4,6.3,79.9,6.1,80,5.4 M90.5,17.2c0.2-0.8,0.3-1.4,0.4-2c0.1-0.6,0.7-0.6,0.9-0.6
					c0.7,0.2,1.5,0.5,2.1,0.7c2.5,0.8,5,1.9,6.1,2.7c0.5,0.4,0.8,0.9,0.5,1.9c-0.1,0.4-0.2,0.7-0.4,1.3c-0.3,0.8-0.8,0.5-1.1,0.3
					c-0.5-0.3-1-0.6-1.6-0.9c-1.6-0.7-3.7-1.6-6.3-2.3C90.9,18.3,90.4,17.9,90.5,17.2 M95.5,13.3c0.2-0.8,0.3-1.1,0.4-1.6
					c0.1-0.5,0.5-0.9,1.2-0.7c0.3,0.1,0.7,0.3,1,0.4c0.3,0.1,0.9,0.5,0.6,1.4c-0.2,0.9-0.3,1.1-0.5,1.7c-0.2,0.6-0.6,0.6-1.1,0.5
					c-0.4-0.1-0.7-0.2-1.1-0.4C95.5,14.5,95.3,14.1,95.5,13.3 M96.6,8.4C96.7,8,96.8,7.7,97,6.9c0.2-0.8,1-0.8,1.3-0.7
					c2.4,0.9,4.1,2,4.9,2.8c0.3,0.3,0.6,0.8,0.3,1.8c-0.1,0.3-0.2,0.6-0.4,1.2c-0.2,0.6-0.7,0.5-1,0.3c-0.3-0.2-0.5-0.4-0.8-0.6
					c-1-0.6-2.3-1.3-3.9-1.9C97,9.7,96.4,9.2,96.6,8.4 M102.1,15.3c-0.2,0.7-0.3,1-0.5,1.5c-0.1,0.4-0.5,0.5-0.8,0.3
					c-0.3-0.2-0.7-0.5-1.2-0.8c-0.2-0.1-0.7-0.4-0.4-1.2c0.2-0.8,0.4-1.3,0.5-1.9c0.2-0.6,0.8-0.5,1-0.3c0.5,0.3,0.9,0.7,1.2,1
					C102.2,14.1,102.3,14.5,102.1,15.3 M98.7,25.9c-0.2,0.6-0.7,0.5-1,0.3c-0.2-0.2-0.5-0.3-0.8-0.4c-0.4-0.3-0.5-0.7-0.4-1.3
					c0.2-0.7,0.3-1.2,0.5-1.8c0.2-0.6,0.7-0.6,0.9-0.4c0.4,0.2,0.7,0.5,1,0.7c0.3,0.3,0.4,0.8,0.2,1.5C99,25.1,98.9,25.4,98.7,25.9
					 M82,20.9c0.1-0.6,0.1-1.1,0.3-2c0.1-0.9,0.8-0.9,1.1-0.9c2.3,0.3,4.4,0.7,6.3,1.2c2.3,0.5,4.2,1.2,5.8,1.8
					c0.3,0.1,0.7,0.5,0.5,1.2c-0.2,0.7-0.2,0.9-0.5,1.7c-0.2,0.8-0.8,0.8-1.1,0.7c-1.4-0.5-3-0.9-4.9-1.4c-2-0.4-4.2-0.8-6.6-1.2
					C82.1,22.1,81.9,21.7,82,20.9 M67.3,20v-2.1c0-0.8,0.7-1,1-1c4.4,0,8.5,0.3,12.3,0.8c0.3,0,1,0.4,0.9,1.3
					c-0.1,0.7-0.1,0.8-0.2,1.8c-0.1,1-0.8,1-1.2,1c-3.6-0.4-7.6-0.7-11.8-0.7C67.9,21.1,67.3,20.9,67.3,20 M53.2,17.7
					c3.8-0.5,7.9-0.8,12.3-0.8c0.3,0,1,0.1,1,1V20c0,0.9-0.6,1.1-0.9,1.1c-4.2,0-8.2,0.3-11.8,0.7c-0.4,0-1.1,0-1.2-1
					c-0.1-1-0.2-1.1-0.2-1.8C52.2,18.1,52.9,17.8,53.2,17.7 M38.4,21.1c1.6-0.6,3.5-1.3,5.8-1.8c1.9-0.4,4-0.8,6.3-1.2
					c0.3,0,1,0,1.1,0.9c0.1,0.9,0.2,1.4,0.2,2c0.1,0.7-0.1,1.2-0.8,1.3c-2.4,0.3-4.6,0.7-6.6,1.2c-1.9,0.4-3.5,0.9-4.9,1.4
					c-0.3,0.1-0.9,0.2-1.1-0.7c-0.2-0.8-0.3-1-0.5-1.7C37.7,21.6,38.2,21.2,38.4,21.1 M36.2,26.2c-0.3,0.2-0.8,0.3-1-0.3
					c-0.2-0.6-0.3-0.9-0.5-1.5c-0.2-0.6-0.1-1.2,0.2-1.5c0.2-0.2,0.6-0.4,1-0.7c0.2-0.1,0.8-0.1,0.9,0.4c0.2,0.6,0.3,1.1,0.5,1.8
					c0.2,0.6,0.1,1-0.4,1.3C36.7,25.9,36.4,26.1,36.2,26.2 M89.2,30.9c-5.7,0.8-13.6,1.4-22.3,1.4c-8.7,0-16.6-0.5-22.3-1.4
					c0,0-0.1,0-0.1,0c-2.8-0.4-5-0.9-6.6-1.5c-0.3-0.1-0.6-0.2-0.8-0.3c-0.4-0.2-0.6-0.7-0.2-1.2c0.4-0.5,1.3-0.2,1.6-0.1
					c6.3,1.8,19.9,2.7,24.7,1.7c-8.7-0.9-16.1-1.7-21-2.6c-0.8-0.2-1-0.8,0.2-1.2c1.1-0.4,2.7-0.2,3.1-0.1
					c5.6,0.7,14.6,1.4,20.4,0.4c-3.4-0.3-8.6-0.8-13.4-1.3c-1.2-0.1-1-0.7,0-0.9c4.3-0.7,9.2-0.9,14.4-0.9c5.2,0,10.1,0.2,14.4,0.9
					c1,0.2,1.2,0.7,0,0.9c-4.7,0.5-10,1-13.4,1.3c5.8,1,14.8,0.4,20.4-0.4c0.4-0.1,2-0.2,3.1,0.1c1.2,0.4,0.9,1,0.2,1.2
					c-4.9,0.9-12.3,1.7-21,2.6c4.9,1,18.4,0.1,24.7-1.7c0.3-0.1,1.2-0.4,1.6,0.1c0.4,0.5,0.2,1-0.2,1.2c-0.2,0.1-0.5,0.2-0.8,0.3
					c-0.7,0.3-1.6,0.5-2.7,0.8C92,30.4,90.7,30.7,89.2,30.9 M44.5,36.1c0-0.2,0.1-0.4,0.2-0.5c0.4-0.7,0.7-1.5,1-2.3
					c0.1-0.3,0.2-0.8,1.2-0.8c0.4,0,0.8,0.1,1.3,0.1c0.5,0.2,0.3,0.7,0.2,0.9c-0.2,0.8-0.6,1.5-0.9,2.2c-0.1,0.1-0.1,0.3-0.3,0.4
					H44.5z M39.9,36.1c0-0.1,0.1-0.3,0.2-0.4c0.6-0.8,1.1-1.8,1.5-2.8c0.1-0.3,0.4-0.9,1.7-0.7c1.3,0.1,1,0.7,0.9,1
					c-0.4,1-0.8,1.9-1.3,2.7c0,0.1-0.1,0.2-0.2,0.3H39.9z M49.2,36.1c0-0.2,0.1-0.4,0.1-0.5c0.3-0.6,0.5-1.3,0.8-2
					c0.1-0.2,0.2-0.6,0.7-0.7c0.7,0.1,1.3,0.1,2,0.2c0.2,0.2,0.2,0.5,0.1,0.7c-0.2,0.7-0.4,1.4-0.6,2c0,0.1-0.1,0.2-0.2,0.4H49.2z
					 M53.8,36.1c0-0.2,0.1-0.4,0.1-0.5c0.2-0.6,0.4-1.2,0.5-1.8c0-0.2,0.1-0.4,0.3-0.6c0.8,0,1.6,0.1,2.5,0.1c0.1,0.2,0,0.4,0,0.6
					c-0.1,0.6-0.2,1.2-0.4,1.8c0,0.1-0.1,0.3-0.2,0.5H53.8z M58.5,36.1c0-0.2,0-0.3,0-0.5c0.1-0.5,0.2-1.1,0.3-1.7
					c0-0.2,0-0.4,0.2-0.6c0.9,0,1.7,0.1,2.6,0.1c0.1,0.2,0,0.4,0,0.5c-0.1,0.6-0.1,1.2-0.2,1.7c0,0.1,0,0.3-0.1,0.4H58.5z
					 M63.1,36.1c-0.1-0.1,0-0.3,0-0.4c0.1-0.6,0.1-1.2,0.2-1.8c0-0.1,0-0.3,0.1-0.4c0.9,0,1.8,0,2.7,0c0.1,0.2,0.1,0.3,0.1,0.5v1.7
					c0,0.1,0,0.3,0,0.4H63.1z M67.8,36.1c0-0.1,0-0.3,0-0.4V34c0-0.1,0-0.3,0.1-0.5c0.9,0,1.8,0,2.7,0c0.1,0.1,0.1,0.3,0.1,0.4
					c0.1,0.7,0.1,1.3,0.2,1.8c0,0.1,0,0.2,0,0.4H67.8z M72.5,36.1c-0.1-0.1-0.1-0.3-0.1-0.4c-0.1-0.5-0.1-1.1-0.2-1.7
					c0-0.1-0.1-0.4,0-0.5c0.9,0,1.8-0.1,2.6-0.1C75,33.6,75,33.8,75,34c0.1,0.6,0.2,1.2,0.4,1.7c0,0.1,0.1,0.3,0,0.5H72.5z
					 M77.2,36.1C77,36,77,35.8,77,35.7c-0.1-0.5-0.2-1.1-0.4-1.8c0-0.1-0.1-0.4,0-0.6c0.8,0,1.7-0.1,2.5-0.1
					c0.2,0.2,0.3,0.4,0.3,0.6c0.2,0.6,0.3,1.2,0.5,1.8c0.1,0.2,0.1,0.4,0.1,0.5H77.2z M81.8,36.1c-0.1-0.1-0.2-0.3-0.2-0.4
					c-0.2-0.6-0.4-1.3-0.6-2c0-0.2-0.1-0.5,0.1-0.7c0.7-0.1,1.3-0.1,2-0.2c0.5,0.2,0.6,0.5,0.7,0.7c0.2,0.7,0.5,1.4,0.8,2
					c0.1,0.1,0.1,0.3,0.1,0.5H81.8z M88.1,33.3c0.3,0.8,0.7,1.6,1,2.3c0.1,0.1,0.2,0.3,0.2,0.5h-2.8c-0.1-0.1-0.2-0.3-0.3-0.4
					c-0.3-0.7-0.6-1.4-0.9-2.2c-0.1-0.2-0.3-0.7,0.2-0.9c0.4,0,0.8-0.1,1.3-0.1C87.9,32.6,88,33.1,88.1,33.3 M91.2,36.1
					c-0.1-0.1-0.2-0.2-0.2-0.3c-0.5-0.8-0.9-1.7-1.3-2.7c-0.1-0.3-0.4-0.9,0.9-1c1.3-0.1,1.6,0.5,1.7,0.7c0.4,1,0.9,2,1.5,2.8
					c0.1,0.1,0.2,0.3,0.2,0.4H91.2z M114.1,35.1c-2.1-0.8-1.8-3.8-0.1-3.8c2,0,4,2.4,4,5.8c0,0.7-0.1,1.5-0.3,2.3
					C117.3,37.5,115.7,35.7,114.1,35.1 M109.9,28.9c0.1-2,1.3-3.3,4.1-3.2c3.7,0,6,4,6.7,5.6c0.4-1.4-1.3-5.7-6.7-7.5
					c-3.4-1.2-4.4-4.8-3.4-6.9c1.1,3.6,3,4,5.1,5.1c3.2,1.6,7.6,4.8,7.6,11.8c0,7.9-5.7,12.6-8.1,14.3c2.8-1,9.2-5,9.5-14.8
					c3.7,3.7-1.1,10.6-1.1,10.6s3.6-0.5,3.6,2.6c0,1.8-1.2,2.5-2,2.7c0-0.1,0-0.2,0-0.3c0-0.2,0.1-0.3,0.1-0.5v0v0
					c0-1.2-1-2.1-2.1-2.1c-1.7,0-7.1,4.1-12.2,2.3c1-0.3,2.8-1.4,2.9-1.5c1.4-1,2.5-2.2,3.5-3.7c0,0,0,0,0,0c0,0,0-0.1,0-0.1
					c0.1-0.2,0.3-0.5,0.4-0.7c0.2-0.4,0.5-0.9,0.7-1.3c0,0,0-0.1,0.1-0.1c0.6-1.4,0.8-2.7,0.8-4l0,0c0,0,0-0.1,0-0.1
					c0-1.3-0.3-2.5-0.7-3.5c-0.9-2-2.4-3.6-4.3-3.6c-2.8,0-3,2.5-3,2.6C111.3,32.4,109.9,31.3,109.9,28.9 M114.1,58.8
					c0.3-0.2,0.6-0.3,0.9-0.4c0.4,0.5,0.8,0.9,1.2,1.1c0.9,0.4,2.6-0.2,2.7,1.2c0.2,1.3-0.9,3.1-3.4,3.4c-0.9,0.1-1.7,0.6-2.5,0.4
					c0,0-6.8-5.1-2.4-4.8C111.7,59.8,113,59.4,114.1,58.8 M121.4,55c-1.3-0.8-3.3-1.1-4.6,0c-0.9,0.8-1,1.7-1.9,2.1
					c-0.1-0.1-0.2-0.2-0.3-0.3l-0.7-0.1c0,0,0,0,0,0c0,0-0.1,0-0.1,0c-0.1,0-0.2,0-0.3-0.1c-0.3-0.1-0.7-0.2-1.1-0.5
					c-0.7-0.4-1.6-0.9-2.4-1.8c0.9-0.5,2.8-2.1,3.7-3.8c3.5-0.2,6.2-1.4,7.8-2.1c0.7-0.3,2-0.9,2.6-0.1c0.1,0.2,0.2,0.7,0.2,1.2
					C120.7,50.6,120.5,54.5,121.4,55 M127.4,55.2c1.2,1.6,1.1,3.7,0.3,5.5c-0.3,0.7-1.9,2-1.5,2.8c0.9,1.6,6.4-2.3,6.5-2.3
					c0.2,0-0.7,4.7-3.9,5.9c-2,0.7-4.7,0.9-7.2,0.5c-1.7-0.3-1.1-1.4-0.8-1.8c1.4-1.3,1.7-2.7,1.7-2.7s-4,4.8-8.1,2.4
					c0,0,3.4-0.2,4.7-1.5c0.9-0.9,1.3-2,1.3-3.1c0-0.1,0-0.2,0-0.4c0-0.1,0-0.2-0.1-0.3c-0.1-0.6-0.4-1-0.6-1.3
					c-0.6-0.7-1.3-0.9-1.9-1c-0.3,0-0.6,0-0.8,0c0-0.2,0-0.5,0.1-0.8c0.2-0.6,0.5-1.1,1.5-1.3c0,0,0.1,0,0.1,0
					c0.8-0.1,1.5,0.1,2,0.5c0,0,0.1,0.1,0.1,0.1c0.1,0.1,0.2,0.1,0.3,0.2c1.2,1.1,1.8,3,1.8,3l0.2,0.7l0.4-0.6
					c0.2-0.3,0.4-0.6,0.5-1c0,0,0,0,0,0c0-0.1,0-0.2,0-0.4c0-0.1,0-0.1,0-0.2c0-0.2,0-0.4,0-0.6c-0.1-0.7-1.5-2.1-1.6-3.2
					c-0.4-2.5,1.2-3.1,2-3.3C124.2,52.4,126.6,54.1,127.4,55.2 M131.6,67.2c2.4-2.3,2.5-7.2,2.1-9c-0.1,0-0.7,1.4-2,2.3
					c-2.1,1.4-2.9,1.7-3.7,1.6c1.4-1.5,2.4-4.7,1.7-6.7c-1.1-2.6-4.2-3-4.2-4.8c1.9-0.5,3.3-1.6,3.3-4.1c0-1.3-0.4-2.3-1-3.1
					c-0.5-0.5-1.1-0.8-1.7-1c1.1-2,3.8-7.9-1.4-11.3c-1.1-6.4-4.9-8.6-7.7-10.2c-2.7-1.5-4.5-1.7-6-6.4c-3.3,2.1-2.7,7.5,0.6,9.6
					c-4.2,2.2-3.3,6.1-2.1,8.6c0.8,1.6,0.4,2.5-0.2,3c-0.6,0.5-1.4,1.3-1.6,2c-0.1,0.3,0,0.9-0.3,1.1c-1.8,1.5-8.7-10.1-7.4-13.4
					l0,0c1.5-4.7,4.8-15.3,4.8-15.3V10c0-1.2-0.9-2.1-2.2-3c-1.3-0.9-3.2-1.8-5.6-2.6l-0.5-0.2c0,0-1.6,6.8-2,8.2
					c-0.3,1.4-1.3,1.4-1.7,1.2c-1.2-0.4-2.5-0.7-4.1-1.1c-0.4-0.1-1.3-0.4-1-1.8c0.2-1.4,1.5-8.5,1.5-8.5l-0.6-0.1
					c-2.7-0.6-5.6-1-8.7-1.4l-0.6-0.1c0,0-0.7,7.4-0.9,8.8c-0.1,1.3-1,1.4-1.4,1.3c-1.4-0.1-2.8-0.2-4.2-0.3c-0.5,0-1.3-0.3-1.3-1.6
					c0-1.3,0.3-8.8,0.3-8.8l-0.6,0C69.8,0,68.4,0,66.9,0c-1.4,0-2.9,0-4.3,0.1l-0.6,0c0,0,0.3,7.5,0.3,8.8c0,1.3-0.9,1.6-1.3,1.6
					c-1.4,0.1-2.8,0.2-4.2,0.3c-0.4,0-1.3,0-1.4-1.3c-0.1-1.3-0.9-8.8-0.9-8.8L54,0.7c-3.1,0.3-6,0.8-8.7,1.4l-0.6,0.1
					c0,0,1.2,7.2,1.5,8.5c0.2,1.4-0.6,1.7-1.1,1.8c-1.5,0.4-2.8,0.8-4.1,1.1c-0.5,0.1-1.4,0.2-1.7-1.2c-0.3-1.4-2-8.2-2-8.2
					l-0.6,0.2c-2.4,0.8-4.3,1.7-5.6,2.6C29.9,7.9,29,8.8,29,10v0.1c0,0,3.3,10.6,4.8,15.3c1.2,3.3-5.7,14.9-7.4,13.4
					c-0.3-0.2-0.2-0.8-0.3-1.1c-0.2-0.7-1-1.5-1.6-2c-0.6-0.5-1-1.4-0.2-3c1.2-2.4,2.2-6.4-2-8.6c3.3-2.1,3.9-7.5,0.6-9.6
					c-1.4,4.8-3.2,4.9-6,6.4c-2.8,1.5-6.6,3.8-7.7,10.2c-5.1,3.3-2.5,9.3-1.4,11.3c-0.6,0.1-1.2,0.5-1.7,1c-0.7,0.7-1,1.8-1,3.1
					c0,2.5,1.4,3.5,3.3,4.1c0,1.9-3.2,2.2-4.2,4.8c-0.8,1.9,0.2,5.2,1.6,6.7c-0.8,0.1-1.7-0.2-3.7-1.6c-1.2-0.9-1.8-2.3-2-2.3
					c-0.4,1.8-0.3,6.8,2.1,9c2.1,1.9,6.1,3.9,9,3.3c-4.8,1-6.9,4.2-7.4,7.7C3.1,83.6,5.7,89,7.3,91.8c2,3.5,6,9.5,9.5,11.8
					c1.2,0.8,2.4,1,3.7,1c0.3,0.2,0.7,0.5,0.8,0.7c0.6,0.8,0.6,2,0.9,2.9c0.3,1,0.8,1.9,1.5,2.7c1.3,1.6,3.2,2.5,5.3,2.4
					c2.5-0.1,4.9-1.1,7.1-2.2c0.2-0.1,0.6-0.2,0.9-0.4c-0.3,0.9-0.5,2.1-0.1,2.2c-2.3-0.5-4.4,2.2-6.9,2.4c0.4,0,2.1,1.3,2.5,1.5
					c1,0.7,1.9,1.3,3.2,1.6c0.3,0.1,0.7,0.1,1,0c0,0.1,0,0.2,0,0.3c-0.2,1.4,1.3,3.1,3.6,2.9c0.1-0.6,0.2-1.4,1.5-1.8
					c1.3-0.3,2.8-0.8,3.7-2c0,0,0,0.1,0,0.1c-0.2,1-0.2,2.9,1.4,4c0.3-0.5,0.9-0.9,0.9-0.9c0.9,1.9,2.7,2.8,4.5,3.1
					c5.6,0.9,6.9-3.3,6.7-3.5c-1.3,0-2.8-0.1-3.4-0.2c-2.1-0.4-3.4-1.6-4.2-3.5c-2.3-5.4-3.7-12-8.9-13.1c-0.1,0-0.2,0-0.4-0.1
					c-1.5-0.1-4.5,0.5-6.1,1.9c-0.3-0.9-0.8-1.7-1.3-2.3c-0.8-0.8-1.8-1.2-2.8-1.2c0.7-0.6,1.2-1.2,1.7-1.6c1.5-1.2,3.6-2.5,4.9-2.8
					c-0.8-1.1-2.7-3.6-4.3-4.7c-0.7-0.4-1.4-0.7-2-0.8c-0.5-2-2.8-2.3-3.6-2.3c-0.6,0-1.2,0.2-1.7,0.4c0.9-1.9,0.7-4.4,0.7-4.6
					c0.1,0,4.3-0.9,4.3-4.7c0-1.3-0.5-2.3-1.2-2.9c-0.7-0.6-1.5-0.9-2.2-0.8c-1.5,0-2.4,1.2-2.8,2c-0.1,0.2-0.2,0.4-0.3,0.5
					c0.1-0.8,0.4-2.1,0.6-2.9c0.3-1.4,0.3-2.6,0.4-3.8c2.3-1.8,4.1-4,4.6-4.7c0.5-0.6,1.1-0.8,1.4-0.2c0.4,38.7,34.5,51.9,34.5,51.9
					l0.2,0.1l0.2-0.1c0,0,34.1-13.2,34.5-52c0.2-0.7,0.9-0.4,1.3,0.2c0.5,0.7,2.3,2.8,4.6,4.7c0.1,1.2,0.1,2.5,0.4,3.8
					c0.2,0.8,0.5,2.1,0.6,2.9c-0.1-0.2-0.2-0.3-0.3-0.5c-0.5-0.8-1.3-1.9-2.9-2c-0.7,0-1.5,0.2-2.2,0.8c-0.7,0.6-1.1,1.6-1.2,2.9
					c0,3.8,4.2,4.7,4.3,4.7c0,0.2-0.2,2.6,0.7,4.6c-0.5-0.2-1-0.4-1.7-0.4c-0.8,0-3,0.3-3.6,2.3c-0.7,0.1-1.4,0.3-2,0.8
					c-1.6,1.1-3.5,3.5-4.3,4.7c1.3,0.3,3.4,1.6,4.9,2.8c0.5,0.4,1.1,1,1.7,1.6c-1,0-2.1,0.3-2.8,1.2c-0.5,0.5-1,1.4-1.3,2.3
					c-1.6-1.4-4.5-2.1-6.1-1.9c-0.1,0-0.3,0-0.4,0.1c-5.1,1.1-6.6,7.7-8.9,13.1c-0.8,1.9-2.1,3.2-4.2,3.5c-0.6,0.1-2.2,0.3-3.4,0.2
					c-0.1,0.2,1.1,4.4,6.7,3.5c1.7-0.3,3.6-1.2,4.5-3.1c0,0,0.6,0.4,0.9,0.9c1.5-1.1,1.6-3,1.4-4c0,0,0-0.1,0-0.1
					c0.9,1.2,2.4,1.8,3.7,2c1.3,0.4,1.4,1.2,1.5,1.8c2.3,0.2,3.8-1.5,3.6-2.9c0-0.1,0-0.2-0.1-0.3c0.4,0.1,0.7,0.1,1,0
					c1.3-0.2,2.2-0.9,3.2-1.6c0.4-0.2,2.1-1.6,2.5-1.5c-2.4-0.3-4.5-3-6.9-2.4c0.4-0.1,0.1-1.3-0.1-2.2c0.4,0.1,0.7,0.3,0.9,0.4
					c2.2,1.1,4.6,2.1,7.1,2.2c2.1,0.1,4-0.8,5.3-2.4c0.6-0.8,1.1-1.7,1.4-2.7c0.3-0.9,0.3-2.1,0.9-2.9c0.1-0.1,0.5-0.4,0.8-0.7
					c1.3,0,2.4-0.2,3.7-1c3.5-2.3,7.5-8.3,9.5-11.8c1.6-2.8,4.2-8.2,3.5-13.6c-0.5-3.5-2.6-6.7-7.4-7.7
					C125.5,71.1,129.6,69.1,131.6,67.2"/>
			</g>
			<g>
				<path class="st0" d="M36.4,40.8L36.4,40.8h61v25.7c0,31.5-24.8,44.9-30.5,47.6c-5.9-2.7-30.5-15.8-30.5-47.6c0,0,0,0,0-0.1V40.8
					z M35.7,66.6L35.7,66.6v1.1c0,32.5,25.4,45.8,31,48.4l0.1,0.1l0.1-0.1c5.6-2.6,31.1-16.2,31.1-48.4V40.1H35.7V66.6z"/>
			</g>
			<g>
				<path class="st0" d="M88.8,66.6c0,0.4,0.2,0.9,0.5,1.2c0.3,0.3,0.7,0.5,1.2,0.5c0.5,0,0.9-0.2,1.4-0.7c0.9-0.9,1.5-3.5,1.5-3.5
					l0.1-0.5L93,63.8c0,0-2.6,0.6-3.5,1.5C89,65.7,88.8,66.2,88.8,66.6"/>
			</g>
			<g>
				<path class="st0" d="M73.3,73.2c-0.9,0-1.7,0.7-1.7,1.9c0,1.4,1.4,3.5,1.4,3.5l0.3,0.5l0.3-0.5c0,0,1.4-2.3,1.4-3.5
					C75,73.9,74.2,73.2,73.3,73.2C73.3,73.2,73.3,73.2,73.3,73.2"/>
			</g>
			<g>
				<path class="st0" d="M71.7,48.9c0.5,0,1-0.2,1.4-0.6c0.9-0.9,1.5-3.5,1.5-3.5l0.1-0.5l-0.5,0.1c0,0-2.6,0.6-3.5,1.5
					c-0.4,0.4-0.6,0.9-0.6,1.4c0,0.4,0.2,0.9,0.5,1.2C70.8,48.7,71.2,48.9,71.7,48.9"/>
			</g>
			<g>
				<path class="st0" d="M45.2,70.3c0.4,0,0.9,0.2,1,0.7c0,0.1,0.1,0.2,0.1,0.3c0,0.1,0,0.2-0.1,0.3c-0.1,0.6-0.6,0.7-1,0.7
					c-0.5,0-1.5-0.5-2.4-1.1C43.6,70.8,44.7,70.3,45.2,70.3 M50.3,68.3c-0.1,0.1-0.1,0.2-0.2,0.3l0,0c-0.1,0.1-0.2,0.2-0.3,0.2l0,0
					c-0.5,0.3-1,0.1-1.3-0.2c-0.4-0.4-0.7-1.4-0.9-2.4c1,0.2,2.1,0.6,2.4,0.9C50.4,67.4,50.6,67.8,50.3,68.3 M66.9,74L66.9,74
					C66.9,74.1,66.9,74.1,66.9,74C66.9,74.1,67,74.1,66.9,74L66.9,74c0.2-0.2,1.4-2,3-2.1c-1.8,2.3-2,7-1.8,10.3
					c0,1.1-0.8,1.5-0.8,1.8c0,0.3,1.1,0.4,1.3,1.6c0.1,1.1-1.1,1.1-1.1,1.4c0,0.3,1.7,0.6,1.9,1.7c0.2,1.2-1.5,0.8-1.4,1.2
					c0.1,0.4,2.3,0.9,2.5,1.8c0.2,0.8-0.5,0.8-1,0.7c-0.9-0.1-1.7-0.2-2.5-0.2c-0.8,0-1.6,0.1-2.5,0.2c-0.5,0.1-1.2,0.1-1-0.7
					c0.2-0.8,2.4-1.4,2.5-1.8c0.1-0.4-1.6,0-1.4-1.2c0.2-1.2,1.9-1.5,1.9-1.7c0-0.3-1.2-0.3-1.1-1.4c0.1-1.1,1.3-1.3,1.3-1.6
					c0-0.3-0.8-0.7-0.8-1.8c0.3-3.3,0.1-7.9-1.8-10.3C65.6,72.1,66.8,73.8,66.9,74 M67,69.6c0.5,0,0.9,0.4,0.9,0.9
					c0,0.5-0.4,0.9-0.9,0.9c-0.5,0-0.9-0.4-0.9-0.9C66,70,66.5,69.6,67,69.6 M65.9,49.4c0-0.5,0.5-1.5,1.1-2.4
					c0.5,0.9,1.1,1.9,1.1,2.4c0,0.5-0.2,1.1-1.1,1.1C66.1,50.5,65.9,49.9,65.9,49.4 M63.3,63.8c-0.1,0-0.2,0-0.3-0.1l0,0
					c-0.6-0.1-0.7-0.6-0.7-1c0-0.5,0.5-1.5,1.1-2.4c0.5,0.9,1.1,1.9,1.1,2.4c0,0.4-0.2,0.9-0.7,1C63.5,63.8,63.4,63.8,63.3,63.8
					L63.3,63.8z M59.3,68c-0.1,0.6-0.6,0.7-1,0.7c-0.5,0-1.5-0.5-2.4-1.1c0.9-0.5,1.9-1.1,2.4-1.1c0.4,0,0.9,0.2,1,0.7l0,0
					c0,0.1,0.1,0.2,0.1,0.3C59.4,67.8,59.3,67.9,59.3,68 M58.7,59.4c-0.6-0.1-0.7-0.6-0.7-1c0-0.5,0.5-1.5,1.1-2.4
					c0.5,0.9,1.1,1.9,1.1,2.4c0,0.4-0.2,0.9-0.7,1c-0.1,0-0.2,0.1-0.3,0.1C58.8,59.5,58.8,59.5,58.7,59.4 M55,63.7
					c-0.1,0.6-0.6,0.7-1,0.7c-0.5,0-1.5-0.5-2.4-1.1c0.9-0.5,1.9-1.1,2.4-1.1c0.4,0,0.9,0.2,1,0.7c0,0.1,0.1,0.2,0.1,0.3
					C55.1,63.5,55.1,63.6,55,63.7 M54.4,55.1c-0.6-0.1-0.7-0.6-0.7-1c0-0.5,0.5-1.5,1.1-2.4c0.5,0.9,1.1,1.9,1.1,2.4
					c0,0.4-0.2,0.9-0.7,1c-0.1,0-0.2,0.1-0.3,0.1C54.6,55.2,54.5,55.2,54.4,55.1 M50.8,59.1c0,0.1,0,0.2-0.1,0.3v0
					c-0.1,0.6-0.6,0.7-1,0.7c-0.5,0-1.5-0.5-2.4-1.1c0.9-0.5,1.9-1.1,2.4-1.1c0.4,0,0.9,0.2,1,0.7v0C50.8,58.9,50.8,59,50.8,59.1
					L50.8,59.1z M50.3,54.2c-0.1,0.1-0.1,0.2-0.2,0.3c-0.1,0.1-0.2,0.2-0.3,0.2c-0.5,0.3-1,0.1-1.3-0.2c-0.4-0.4-0.7-1.5-0.9-2.4
					c1,0.2,2.1,0.6,2.4,0.9C50.4,53.3,50.6,53.7,50.3,54.2 M64.4,54C64.4,54,64.4,54,64.4,54c-0.1,0.1-0.1,0.2-0.2,0.3
					c-0.1,0.1-0.2,0.2-0.3,0.2c-0.5,0.3-1,0.1-1.3-0.2c-0.4-0.4-0.7-1.4-0.9-2.4c1,0.2,2.1,0.6,2.4,0.9C64.5,53.1,64.7,53.5,64.4,54
					 M69.7,52.8c0.4-0.4,1.4-0.7,2.4-0.9c-0.2,1-0.6,2.1-0.9,2.4c-0.3,0.3-0.7,0.6-1.3,0.2c-0.1-0.1-0.2-0.1-0.3-0.2
					c-0.1-0.1-0.2-0.2-0.2-0.3l0,0C69.2,53.5,69.4,53.1,69.7,52.8 M70.3,63.7c-0.6-0.1-0.7-0.6-0.7-1c0-0.5,0.5-1.5,1.1-2.4
					c0.5,0.9,1.1,1.9,1.1,2.4c0,0.4-0.2,0.9-0.7,1l0,0c-0.1,0-0.2,0.1-0.3,0.1h0C70.5,63.8,70.4,63.8,70.3,63.7 M74.6,59.4
					c-0.6-0.1-0.7-0.6-0.7-1c0-0.5,0.5-1.5,1.1-2.4c0.5,0.9,1.1,1.9,1.1,2.4c0,0.4-0.2,0.9-0.7,1c-0.1,0-0.2,0.1-0.3,0.1
					C74.8,59.5,74.7,59.5,74.6,59.4 M78.8,55.1c-0.6-0.1-0.7-0.6-0.7-1c0-0.5,0.5-1.5,1.1-2.4c0.5,0.9,1.1,1.9,1.1,2.4
					c0,0.4-0.2,0.9-0.7,1c-0.1,0-0.2,0.1-0.3,0.1C79,55.2,78.9,55.2,78.8,55.1 M83.8,53c0.4-0.4,1.4-0.7,2.4-0.9
					c-0.2,1-0.6,2.1-0.9,2.4c-0.3,0.3-0.8,0.5-1.3,0.2c-0.1-0.1-0.2-0.1-0.3-0.2c-0.1-0.1-0.2-0.2-0.2-0.3
					C83.3,53.7,83.5,53.3,83.8,53 M83.1,59.1c0-0.1,0-0.2,0.1-0.3c0,0,0,0,0,0c0.1-0.6,0.6-0.7,1-0.7c0.5,0,1.5,0.5,2.4,1.1
					c-0.9,0.5-1.9,1.1-2.4,1.1c-0.4,0-0.9-0.2-1-0.7v0C83.1,59.3,83.1,59.2,83.1,59.1L83.1,59.1z M78.8,63.1c0.1-0.6,0.6-0.7,1-0.7
					c0.5,0,1.5,0.5,2.4,1.1c-0.9,0.5-1.9,1.1-2.4,1.1c-0.4,0-0.9-0.2-1-0.7c0-0.1-0.1-0.2-0.1-0.3C78.8,63.3,78.8,63.2,78.8,63.1
					 M74.6,67.3L74.6,67.3c0.1-0.6,0.6-0.7,1-0.7c0.5,0,1.5,0.5,2.4,1.1c-0.9,0.5-1.9,1.1-2.4,1.1c-0.4,0-0.9-0.2-1-0.7
					c0-0.1-0.1-0.2-0.1-0.3C74.5,67.6,74.5,67.5,74.6,67.3 M83.8,67.1c0.4-0.4,1.4-0.7,2.4-0.9c-0.2,1-0.6,2.1-0.9,2.4
					c-0.3,0.3-0.8,0.6-1.3,0.2v0c-0.1-0.1-0.2-0.1-0.3-0.2c-0.1-0.1-0.1-0.2-0.2-0.3C83.3,67.8,83.5,67.4,83.8,67.1 M87.7,71
					c0.1-0.6,0.6-0.7,1-0.7c0.5,0,1.5,0.5,2.4,1.1c-0.9,0.5-1.9,1.1-2.4,1.1c-0.4,0-0.9-0.2-1-0.7c0-0.1-0.1-0.2-0.1-0.3
					C87.6,71.2,87.6,71.1,87.7,71 M83.6,74.4L83.6,74.4c0.1-0.1,0.1-0.2,0.2-0.3c0.1-0.1,0.2-0.2,0.3-0.2v0c0.5-0.3,1-0.1,1.3,0.2
					c0.4,0.4,0.7,1.5,0.9,2.4c-1-0.2-2.1-0.6-2.4-0.9C83.5,75.3,83.3,74.9,83.6,74.4 M77.5,74.4c0-0.1,0.1-0.2,0.2-0.3
					c0.1-0.1,0.2-0.2,0.3-0.2c0.5-0.3,1-0.1,1.3,0.2c0.4,0.4,0.7,1.4,0.9,2.4c-1-0.2-2.1-0.6-2.4-0.9C77.5,75.3,77.2,74.9,77.5,74.4
					 M56.1,75.6c-0.4,0.4-1.4,0.7-2.4,0.9c0.2-1,0.6-2.1,0.9-2.4c0.3-0.3,0.8-0.6,1.3-0.2c0.1,0.1,0.2,0.1,0.3,0.2
					c0.1,0.1,0.1,0.2,0.2,0.3C56.7,74.9,56.4,75.3,56.1,75.6 M50,75.6c-0.4,0.4-1.4,0.7-2.4,0.9c0.2-1,0.6-2.1,0.9-2.4
					c0.3-0.3,0.7-0.6,1.3-0.2c0,0,0,0,0,0c0.1,0.1,0.2,0.1,0.3,0.2l0,0c0.1,0.1,0.2,0.2,0.2,0.3l0,0C50.6,74.9,50.4,75.3,50,75.6
					 M44.8,73.6c1.3,0,2.1-0.7,2.4-1.6h2.1h2.4l-1.1,1.1c-0.4-0.3-0.8-0.5-1.3-0.5c-0.6,0-1.3,0.3-1.8,0.9c-1.2,1.2-2,4.8-2,4.8
					l-0.1,0.5l0.5-0.1c0,0,3.6-0.9,4.8-2c0.6-0.6,0.9-1.2,0.9-1.8c0-0.5-0.2-0.9-0.5-1.3c0,0,1.4-1.6,3.6-1.6h3.2l-1.1,1.1
					c-0.4-0.3-0.8-0.5-1.3-0.5c-0.6,0-1.2,0.3-1.8,0.9c-1.2,1.2-2,4.8-2,4.8l-0.1,0.5l0.5-0.1c0,0,3.6-0.9,4.8-2
					c0.6-0.6,0.9-1.2,0.9-1.8c0-0.5-0.2-0.9-0.5-1.3c0,0,1.1-1.6,3.5-1.6c1.9,0,2.8,1.4,3.2,2.4c1.4,4.2,0.6,11.8-1.6,16.8
					c-1.6,3.7-4.9,4.9-7.2,5.1c1.6,1.2,4.7,0,6.2-1c0.8-0.5,1.4-1.1,2.3-1.1c1.1,0,0.8,1.9,0.4,2.7c1.4,0,2.1-3.1,3.1-3.1l0,0
					c1,0,1.7,3.1,3.1,3.1c-0.4-0.8-0.7-2.7,0.4-2.7c0.9,0,1.6,0.6,2.3,1.1c1.5,1,4.6,2.2,6.2,1c-2.3-0.2-5.6-1.4-7.2-5.1
					c-2.2-5.1-3-12.6-1.6-16.8c0.3-1,1.3-2.4,3.2-2.4c2.4,0,3.5,1.6,3.5,1.6c-0.3,0.4-0.5,0.8-0.5,1.3c0,0.6,0.3,1.2,0.9,1.8
					c1.2,1.2,4.8,2,4.8,2l0.5,0.1l-0.1-0.5c0,0-0.9-3.6-2-4.8c-0.6-0.6-1.2-0.9-1.8-0.9c-0.5,0-0.9,0.2-1.3,0.5L76.1,72h3.2
					c2.2,0,3.6,1.6,3.6,1.6c-0.3,0.4-0.5,0.8-0.4,1.3c0,0.6,0.3,1.2,0.8,1.8c1.2,1.2,4.8,2,4.8,2l0.5,0.1l-0.1-0.5
					c0,0-0.9-3.6-2-4.8c-0.6-0.6-1.2-0.9-1.8-0.9c-0.5,0-0.9,0.2-1.3,0.5L82.2,72h2.4h2.1c0.3,0.9,1.1,1.6,2.4,1.6
					c1.7,0,4.8-2,4.8-2l0.5-0.3l-0.5-0.3c0,0-3.2-1.9-4.8-2c-1.3,0-2.1,0.7-2.4,1.6h-4.5l1.1-1.1c0.4,0.3,0.8,0.5,1.3,0.5h0
					c0.6,0,1.3-0.3,1.8-0.9c1.2-1.2,2-4.8,2-4.8l0.1-0.5l-0.5,0.1c0,0-3.6,0.9-4.8,2c-0.6,0.6-0.9,1.2-0.9,1.8
					c0,0.5,0.2,0.9,0.5,1.3c0,0-1.5,1.6-3.6,1.6h-8.5c-1.3,0-1.2-1-0.7-1.4c1.4-1.4,3.5-1.2,3.5-1.2c0.1,1.1,1,1.9,2.5,1.9
					c1.7,0,4.8-2,4.9-2l0.5-0.3l-0.5-0.3c0,0-3.2-1.9-4.9-2l0,0c-1.5,0-2.3,0.9-2.5,1.9h-1.6c0,0,1-1,2.2-2.2
					c1.7-1.7,3.7-1.4,3.7-1.4c0.2,1.1,1,1.9,2.5,1.9c1.7,0,4.8-2,4.9-2l0.5-0.3l-0.5-0.3c0,0-3.2-1.9-4.9-2v0
					c-1.5,0-2.3,0.8-2.5,1.9h-1.6c0,0,1.4-1.4,2.1-2.1c1.5-1.5,3.8-1.5,3.8-1.5c0.2,1.1,1,1.9,2.5,1.9c1.7,0,4.8-1.9,4.9-2l0.5-0.3
					l-0.5-0.3c0,0-3.2-1.9-4.9-2c-1.5,0-2.3,0.9-2.5,1.9h-1.6l3.2-3.2c0.3,0.2,0.6,0.3,1,0.3h0c0.6,0,1.2-0.3,1.8-0.9
					c1.2-1.2,2-4.8,2-4.8l0.1-0.5l-0.5,0.1c0,0-3.6,0.9-4.8,2.1c-0.6,0.6-0.9,1.2-0.9,1.8c0,0.4,0.1,0.7,0.3,1l-3.2,3.2v-1.6
					c0.2,0,0.4-0.1,0.6-0.2c0.6-0.3,1.1-0.8,1.2-1.6c0.1-0.2,0.1-0.5,0.1-0.8c0-1.1-0.9-2.9-1.4-3.9c-0.3-0.5-0.5-0.9-0.5-0.9
					l-0.2-0.4l0-0.1v0l-0.3,0.5c0,0-0.2,0.3-0.4,0.7c-0.6,1-1.5,2.9-1.5,4.1c0,1.5,0.8,2.3,1.9,2.5c0,0,0.1,2.2-1.4,3.7
					c-1.5,1.5-2.2,2.2-2.2,2.2v-1.6c1.1-0.2,1.9-1,1.9-2.5c0-0.5-0.2-1.1-0.4-1.7c-0.6-1.5-1.5-3.1-1.5-3.1l-0.3-0.5h0l-0.1,0.2
					l-0.1,0.2c0,0-0.3,0.6-0.7,1.4c-0.5,1.1-1.2,2.5-1.2,3.5c0,0.3,0,0.5,0.1,0.8c0.1,0.5,0.4,1,0.8,1.3c0.3,0.2,0.7,0.4,1.1,0.5
					c0,0,0.2,2-1.2,3.5c-1.5,1.5-2.4,2.4-2.4,2.4v-1.6c1.1-0.2,1.9-1,1.9-2.5c0-1.7-2-4.8-2-4.8L70.6,57l-0.3,0.5c0,0-1.9,3.2-2,4.8
					c0,1.5,0.8,2.3,1.9,2.5c0,0,0.2,2.1-0.9,3.2c-0.6,0.6-1.7,0.8-1.7-1.2v-7.3c0-2.8,1.6-4.3,1.6-4.3c0.4,0.3,0.8,0.5,1.3,0.5h0
					c0.6,0,1.2-0.3,1.8-0.9c1.2-1.2,2-4.8,2.1-4.8l0.1-0.5L74,49.6c0,0-3.6,0.9-4.8,2c-0.6,0.6-0.9,1.2-0.9,1.8
					c0,0.5,0.2,0.9,0.5,1.3l-1.1,1.1v-4.5c0.9-0.3,1.6-1.1,1.6-2.4c0-1.7-1.9-4.8-2-4.9l-0.3-0.5l0,0l-0.3,0.5c0,0-1.9,3.2-2,4.9
					c0,1.3,0.7,2.1,1.6,2.4v4.5l-1.1-1.1c0.3-0.4,0.5-0.8,0.5-1.3c0-0.6-0.3-1.2-0.9-1.8c-1.2-1.2-4.8-2-4.8-2l-0.5-0.1l0.1,0.5
					c0,0,0.9,3.6,2.1,4.8c0.6,0.6,1.2,0.9,1.8,0.9h0c0.5,0,0.9-0.2,1.3-0.5c0,0,1.6,1.5,1.6,4.3v7.3c0,1.9-1.1,1.8-1.7,1.2
					c-1.1-1.1-0.9-3.2-0.9-3.2c1.1-0.2,1.9-1,1.9-2.5c0-1.7-2-4.8-2-4.8L63.3,57L63,57.5c0,0-1.9,3.2-2,4.8c0,1.5,0.9,2.3,1.9,2.5
					v1.6c0,0-0.9-0.9-2.4-2.4c-1.5-1.5-1.2-3.5-1.2-3.5c0.4-0.1,0.7-0.2,1.1-0.5c0.4-0.3,0.6-0.7,0.8-1.3c0.1-0.2,0.1-0.5,0.1-0.8
					c0-1-0.7-2.4-1.2-3.5c-0.4-0.8-0.8-1.4-0.8-1.4l-0.1-0.2L59,52.7l0,0l-0.3,0.5c0,0-1,1.6-1.5,3.1c-0.2,0.6-0.4,1.2-0.4,1.7
					c0,1.5,0.9,2.3,1.9,2.5v1.6c0,0-0.7-0.7-2.2-2.2C55,58.4,55,56.2,55,56.2c1.1-0.2,1.9-1,1.9-2.5c0-1.2-1-3.1-1.5-4.1
					c-0.2-0.4-0.4-0.7-0.4-0.7l-0.3-0.5v0l-0.1,0.1l-0.2,0.4c0,0-0.2,0.4-0.5,0.9c-0.6,1.1-1.4,2.8-1.4,3.9c0,0.3,0,0.5,0.1,0.8
					c0.2,0.8,0.6,1.3,1.2,1.6c0.2,0.1,0.4,0.1,0.6,0.2v1.6l-3.2-3.2c0.2-0.3,0.3-0.6,0.3-1c0-0.6-0.3-1.2-0.9-1.8
					c-1.2-1.2-4.8-2-4.8-2.1l-0.6-0.1l0.1,0.5c0,0,0.9,3.6,2,4.8c0.6,0.6,1.2,0.9,1.8,0.9h0c0.4,0,0.7-0.1,1-0.3l3.2,3.2h-1.6
					c-0.2-1.1-1-1.9-2.5-1.9c-1.7,0-4.8,1.9-4.8,2L44,59.1l0.5,0.3c0,0,3.2,1.9,4.8,2c1.5,0,2.3-0.8,2.5-1.9c0,0,2.2,0,3.8,1.5
					c0.7,0.7,2.2,2.1,2.2,2.1h-1.6c-0.2-1.1-1-1.9-2.5-1.9v0c-1.7,0-4.8,2-4.9,2l-0.5,0.3l0.5,0.3c0,0,3.2,1.9,4.9,2
					c1.5,0,2.3-0.8,2.5-1.9c0,0,1.9-0.3,3.7,1.4c1.2,1.2,2.2,2.2,2.2,2.2h-1.6c-0.1-1.1-1-1.9-2.5-1.9l0,0c-1.7,0-4.8,2-4.8,2
					l-0.5,0.3l0.5,0.3c0,0,3.2,1.9,4.8,2c1.5,0,2.3-0.9,2.5-1.9c0,0,2.1-0.2,3.5,1.2c0.4,0.4,0.6,1.4-0.7,1.4h-8.5
					c-2.1,0-3.6-1.6-3.6-1.6c0.3-0.4,0.5-0.8,0.5-1.3c0-0.6-0.3-1.2-0.9-1.8c-1.2-1.2-4.8-2-4.8-2l-0.5-0.1l0.1,0.5
					c0,0,0.9,3.6,2,4.8c0.6,0.6,1.2,0.9,1.8,0.9h0c0.5,0,0.9-0.2,1.3-0.5l1.1,1.1h-4.5c-0.3-0.9-1.1-1.6-2.4-1.6
					c-1.7,0-4.8,1.9-4.9,2l-0.5,0.3l0.5,0.3C40,71.6,43.1,73.6,44.8,73.6"/>
			</g>
			<g>
				<path class="st0" d="M60.6,79.1l0.3-0.5c0,0,1.4-2.2,1.4-3.5c0-1.2-0.8-1.9-1.7-1.9c0,0,0,0,0,0c-0.9,0-1.7,0.7-1.7,1.9
					c0,1.3,1.4,3.5,1.4,3.5L60.6,79.1z"/>
			</g>
			<g>
				<path class="st0" d="M60.8,48.2c0.4,0.4,0.9,0.6,1.4,0.6c0.4,0,0.9-0.2,1.2-0.5c0.3-0.3,0.5-0.7,0.5-1.2c0-0.5-0.2-1-0.7-1.4
					c-0.9-0.9-3.5-1.5-3.5-1.5l-0.5-0.1l0.1,0.5C59.4,44.7,60,47.3,60.8,48.2"/>
			</g>
			<g>
				<path class="st0" d="M42,67.7c0.4,0.4,0.9,0.7,1.4,0.7c0.5,0,0.9-0.2,1.2-0.5c0.3-0.3,0.5-0.7,0.5-1.2c0-0.5-0.2-0.9-0.7-1.4
					c-0.9-0.9-3.5-1.5-3.5-1.5l-0.5-0.1l0.1,0.5C40.5,64.2,41.1,66.7,42,67.7"/>
			</g>
			<g>
				<path class="st0" d="M69.8,102.7l-0.8,0l-0.2-1.3l-0.2-0.2c-0.3-0.1-0.6-0.2-1-0.2c-1.9,0.1-3.1,1.9-2.7,4.2
					c0.1,0.4,0.3,1.2,0.9,1.8c0.7,0.7,1.5,0.7,2.1,0.7c0.2,0,0.5,0,0.7-0.1l0.2-0.2l0.3-1.4l0.8,0l0,2c-1.1,0.4-1.9,0.5-2.4,0.5
					c-1.2,0-3.7-0.3-4.3-3.2c-0.3-1.5,0.2-2.8,1-3.7c0.5-0.5,1.5-1.2,3.2-1.3c0.5,0,1.2,0,2.4,0.3L69.8,102.7z"/>
			</g>
		</g>
	</g>
	<g>
		<polygon class="st0" points="362.6,119.7 362.6,14.7 364.3,14.7 364.3,119.7 362.6,119.7 		"/>
	</g>
	<g>
		<g id="new-level">
			<path class="st0" d="M458.5,63.9V41.7h3.1l7.1,11.2c1.6,2.6,2.9,4.9,4,7.2l0.1,0c-0.3-3-0.3-5.7-0.3-9.1v-9.3h2.7v22.2h-2.9
				l-7.1-11.3c-1.6-2.5-3-5-4.2-7.4l-0.1,0c0.2,2.8,0.2,5.5,0.2,9.2v9.5H458.5z"/>
			<path class="st0" d="M481.7,56.5c0.1,3.9,2.6,5.5,5.5,5.5c2.1,0,3.3-0.4,4.4-0.8l0.5,2.1c-1,0.5-2.8,1-5.3,1
				c-4.9,0-7.8-3.3-7.8-8.1c0-4.8,2.8-8.6,7.5-8.6c5.2,0,6.6,4.6,6.6,7.5c0,0.6-0.1,1.1-0.1,1.4H481.7z M490.2,54.4
				c0-1.8-0.8-4.7-4-4.7c-2.9,0-4.2,2.7-4.4,4.7H490.2z"/>
			<path class="st0" d="M497.8,48l2.1,8.1c0.5,1.8,0.9,3.4,1.2,5.1h0.1c0.4-1.6,0.9-3.3,1.4-5.1l2.6-8.1h2.4l2.5,8
				c0.6,1.9,1,3.6,1.4,5.2h0.1c0.3-1.6,0.7-3.3,1.2-5.2l2.3-8h2.9l-5.1,16h-2.6l-2.4-7.6c-0.6-1.8-1-3.4-1.4-5.2h-0.1
				c-0.4,1.9-0.9,3.6-1.4,5.3l-2.6,7.6h-2.6l-4.8-16H497.8z"/>
			<path class="st0" d="M527.8,40.5h2.9v23.4h-2.9V40.5z"/>
			<path class="st0" d="M537.2,56.5c0.1,3.9,2.6,5.5,5.5,5.5c2.1,0,3.3-0.4,4.4-0.8l0.5,2.1c-1,0.5-2.8,1-5.3,1
				c-4.9,0-7.8-3.3-7.8-8.1c0-4.8,2.8-8.6,7.5-8.6c5.2,0,6.6,4.6,6.6,7.5c0,0.6-0.1,1.1-0.1,1.4H537.2z M545.7,54.4
				c0-1.8-0.8-4.7-4-4.7c-2.9,0-4.2,2.7-4.4,4.7H545.7z"/>
			<path class="st0" d="M553.3,48l3.1,9c0.5,1.5,1,2.8,1.3,4.1h0.1c0.4-1.3,0.8-2.6,1.4-4.1l3.1-9h3l-6.3,16h-2.8l-6.1-16H553.3z"/>
			<path class="st0" d="M569.3,56.5c0.1,3.9,2.6,5.5,5.5,5.5c2.1,0,3.3-0.4,4.4-0.8l0.5,2.1c-1,0.5-2.8,1-5.3,1
				c-4.9,0-7.8-3.3-7.8-8.1c0-4.8,2.8-8.6,7.5-8.6c5.2,0,6.6,4.6,6.6,7.5c0,0.6-0.1,1.1-0.1,1.4H569.3z M577.8,54.4
				c0-1.8-0.8-4.7-4-4.7c-2.9,0-4.2,2.7-4.5,4.7H577.8z"/>
			<path class="st0" d="M584.2,40.5h2.9v23.4h-2.9V40.5z"/>
			<path class="st0" d="M593.3,64.3c-1.1,0-1.9-0.9-1.9-2c0-1.2,0.8-2,1.9-2c1.2,0,1.9,0.9,1.9,2C595.3,63.4,594.5,64.3,593.3,64.3
				L593.3,64.3z M592.2,57.5l-0.5-15.8h3.2l-0.5,15.8H592.2z"/>
		</g>
		<g id="new-life">
			<path class="st0" d="M458.5,101.1V78.9h3.1l7.1,11.2c1.6,2.6,2.9,4.9,4,7.2l0.1,0c-0.3-3-0.3-5.7-0.3-9.1v-9.3h2.7v22.2h-2.9
				l-7.1-11.3c-1.6-2.5-3-5-4.2-7.4l-0.1,0c0.2,2.8,0.2,5.5,0.2,9.2v9.5H458.5z"/>
			<path class="st0" d="M481.7,93.7c0.1,3.9,2.6,5.5,5.5,5.5c2.1,0,3.3-0.4,4.4-0.8l0.5,2.1c-1,0.5-2.8,1-5.3,1
				c-4.9,0-7.8-3.3-7.8-8.1c0-4.8,2.8-8.6,7.5-8.6c5.2,0,6.6,4.6,6.6,7.5c0,0.6-0.1,1.1-0.1,1.4H481.7z M490.2,91.6
				c0-1.8-0.8-4.7-4-4.7c-2.9,0-4.2,2.7-4.4,4.7H490.2z"/>
			<path class="st0" d="M497.8,85.2l2.1,8.1c0.5,1.8,0.9,3.4,1.2,5.1h0.1c0.4-1.6,0.9-3.3,1.4-5.1l2.6-8.1h2.4l2.5,8
				c0.6,1.9,1,3.6,1.4,5.2h0.1c0.3-1.6,0.7-3.3,1.2-5.2l2.3-8h2.9l-5.1,16h-2.6l-2.4-7.6c-0.6-1.8-1-3.4-1.4-5.2h-0.1
				c-0.4,1.9-0.9,3.6-1.4,5.3l-2.6,7.6h-2.6l-4.8-16H497.8z"/>
			<path class="st0" d="M527.8,77.7h2.9v23.4h-2.9V77.7z"/>
			<path class="st0" d="M538.9,80.7c0,1-0.7,1.8-1.8,1.8c-1,0-1.7-0.8-1.7-1.8c0-1,0.8-1.8,1.8-1.8C538.2,78.9,538.9,79.7,538.9,80.7
				z M535.6,101.1v-16h2.9v16H535.6z"/>
			<path class="st0" d="M543.6,101.1V87.4h-2.2v-2.2h2.2v-0.8c0-2.2,0.5-4.3,1.8-5.6c1.1-1.1,2.5-1.5,3.9-1.5c1,0,1.9,0.2,2.5,0.5
				l-0.4,2.2c-0.4-0.2-1-0.4-1.8-0.4c-2.5,0-3.1,2.2-3.1,4.6v0.9h3.9v2.2h-3.9v13.7H543.6z"/>
			<path class="st0" d="M554.1,93.7c0.1,3.9,2.6,5.5,5.5,5.5c2.1,0,3.3-0.4,4.4-0.8l0.5,2.1c-1,0.5-2.8,1-5.3,1
				c-4.9,0-7.8-3.3-7.8-8.1c0-4.8,2.8-8.6,7.5-8.6c5.2,0,6.6,4.6,6.6,7.5c0,0.6-0.1,1.1-0.1,1.4H554.1z M562.6,91.6
				c0-1.8-0.8-4.7-4-4.7c-2.9,0-4.2,2.7-4.5,4.7H562.6z"/>
			<path class="st0" d="M570.4,101.5c-1.1,0-1.9-0.9-1.9-2c0-1.2,0.8-2,1.9-2c1.2,0,1.9,0.9,1.9,2
				C572.4,100.6,571.6,101.5,570.4,101.5L570.4,101.5z M569.3,94.7l-0.5-15.8h3.2l-0.5,15.8H569.3z"/>
		</g>
	</g>
</g>

<animateTransform 
      xlink:href="#city"
      attributeName="transform" 
      attributeType="XML"
      type="translate"
      from="0 0"
      to="0 0" 
      values="0; 35; 0"
      keyTimes="0; 0.5; 1"
      dur="3s"
      begin="0s"
      repeatCount="indefinite"
      fill="freeze" 
      />
<animateTransform 
      xlink:href="#business"
      attributeName="transform" 
      attributeType="XML"
      type="translate"
      from="0 0"
      to="0 0" 
      values="0; 35; 0"
      keyTimes="0; 0.5; 1"
      dur="3s"
      begin="0.5s"
      repeatCount="indefinite"
      fill="freeze" 
      />
<animateTransform 
      xlink:href="#school"
      attributeName="transform" 
      attributeType="XML"
      type="translate"
      from="0 0"
      to="0 0" 
      values="0; 35; 0"
      keyTimes="0; 0.5; 1"
      dur="3s"
      begin="1s"
      repeatCount="indefinite"
      fill="freeze" 
      />

<animateTransform 
      xlink:href="#new-level"
      attributeName="transform" 
      attributeType="XML"
      type="translate"
      from="0 0"
      to="0 0" 
      values="0; -35; 0"
      keyTimes="0; 0.5; 1"
      dur="3s"
      begin="0.5s"
      repeatCount="indefinite"
      fill="freeze" 
      />

<animateTransform 
      xlink:href="#new-life"
      attributeName="transform" 
      attributeType="XML"
      type="translate"
      from="0 0"
      to="0 0" 
      values="0; -35; 0"
      keyTimes="0; 0.5; 1"
      dur="3s"
      begin="1s"
      repeatCount="indefinite"
      fill="freeze" 
      />

</svg>
