<?xml version="1.0" encoding="utf-8"?>
<!-- Generator: Adobe Illustrator 19.2.1, SVG Export Plug-In . SVG Version: 6.00 Build 0)  -->
<svg version="1.1" id="Layer_1" xmlns="http://www.w3.org/2000/svg" xmlns:xlink="http://www.w3.org/1999/xlink" x="0px" y="0px"
	 viewBox="0 0 841.9 595.3" style="enable-background:new 0 0 841.9 595.3;" xml:space="preserve">
<g>
	<path id="watch-arrows" d="M441.4,299l-7.7-173.2c-0.3-7.1-6.1-19.8-20.1-19.8c-14,0-19.6,12.8-20.1,19.8l-9.7,189.7c-0.3,4.3,0.7,8.3,2.2,12
		c0.2,6.9,2.5,13.5,7.7,18l119.3,105.8c5.4,4.7,19,9.1,30.3-2.2c11.2-11.3,6.8-24.9,2.2-30.3L441.4,299z"/>
	<path d="M421,0C256.8,0,123.3,133.5,123.3,297.7c0,164.1,133.5,297.6,297.7,297.6c164.1,0,297.6-133.5,297.6-297.6S585.1,0,421,0z
		 M421,551.4c-139.9,0-253.8-113.9-253.8-253.8C167.2,157.7,281,43.9,421,43.9c139.9,0,253.8,113.9,253.8,253.8
		C674.7,437.6,560.9,551.4,421,551.4z"/>
</g>
<animateTransform 
      xlink:href="#watch-arrows"
      attributeName="transform" 
      attributeType="XML"
      type="rotate"
      from="0 420 298"
      to="360 420 298" 
      dur="7s"
      begin="0s"
      repeatCount="indefinite"
      fill="freeze" 
      />
</svg>
