<?xml version="1.0" encoding="utf-8"?>
<!-- Generator: Adobe Illustrator 19.2.1, SVG Export Plug-In . SVG Version: 6.00 Build 0)  -->
<svg version="1.1" id="Слой_1" xmlns="http://www.w3.org/2000/svg" xmlns:xlink="http://www.w3.org/1999/xlink" x="0px" y="0px"
	 viewBox="0 0 123.9 197.5" style="enable-background:new 0 0 123.9 197.5;" xml:space="preserve">
<style type="text/css">
	.st0{fill:#004BA5;}
	.st1{fill:#72CDF4;}
	.st2{fill:#F8971D;}
	.st3{fill:#FFE06A;}
	.st4{fill:none;stroke:#000000;stroke-linecap:round;stroke-linejoin:round;stroke-miterlimit:10;}
	.st5{fill:none;stroke:#000000;stroke-width:2;stroke-linecap:round;stroke-linejoin:round;stroke-miterlimit:10;}
	.st6{fill:none;stroke:#000000;stroke-linecap:round;stroke-linejoin:round;stroke-dasharray:0,14.1335;}
	.st7{fill:none;stroke:#000000;stroke-linecap:round;stroke-linejoin:round;}
	.st8{fill:none;stroke:#000000;stroke-linecap:round;stroke-linejoin:round;stroke-dasharray:0,1.9842;}
	.st9{clip-path:url(#SVGID_2_);}
	.st10{clip-path:url(#SVGID_4_);}
	.st11{clip-path:url(#SVGID_6_);}
	.st12{clip-path:url(#SVGID_8_);}
	.st13{clip-path:url(#SVGID_10_);}
	.st14{clip-path:url(#SVGID_12_);}
	.st15{fill:none;}
	.st16{clip-path:url(#SVGID_14_);}
	.st17{clip-path:url(#SVGID_16_);}
	.st18{clip-path:url(#SVGID_18_);}
	.st19{fill:none;stroke:#000000;stroke-linecap:square;stroke-linejoin:round;stroke-miterlimit:10;}
	.st20{clip-path:url(#SVGID_20_);}
	.st21{clip-path:url(#SVGID_22_);}
	.st22{clip-path:url(#SVGID_24_);}
	.st23{clip-path:url(#SVGID_26_);}
	.st24{fill:none;stroke:#000000;stroke-linecap:round;stroke-linejoin:round;stroke-miterlimit:10;stroke-dasharray:0,2;}
</style>
<g>
	<path class="st4" d="M93,36.5c-0.3-0.4-0.6-0.7-1-1.1c-0.3-0.4-0.5-0.8-0.9-1.2c-4.6-5.7-13.1-6.6-18.8-1.9
		c-5.7,4.6-6.6,13.1-1.9,18.8c0.3,0.4,0.6,0.7,1,1.1c0.3,0.4,0.5,0.8,0.9,1.2c0.7,0.9,1.6,1.7,2.5,2.4c-0.4-1.6-0.1-3.2,0.8-4.6
		c-0.3-0.2-0.6-0.4-0.8-0.6c-0.8-1.6-1.1-3.4-0.9-5.2c0.3-2.7,1.6-5.1,3.6-6.8c3.6-3,8.7-2.9,12.3-0.2c1.9,4.1,0.9,9.1-2.7,12
		c-0.4,0.3-0.9,0.6-1.3,0.9c1.3,2.1,1.1,4.7-0.3,6.7c2-0.4,3.9-1.3,5.6-2.7C96.7,50.6,97.6,42.2,93,36.5z"/>
	<path class="st4" d="M82.5,75.8l-2.6-0.3c-0.7-0.1-1.4,0.7-2,2.4c-0.4,1.1-0.7,2.4-1,3.8l1.9,0c1,0,1.7,0.8,1.7,1.8
		c0,0.5-0.3,1-0.6,1.3c-0.3,0.3-0.7,0.4-1.1,0.4l-2.2,0c-0.2,3.5,0.3,6.7,1.7,6.9l2.6,0.3c0.3,0,0.5-0.1,0.8-0.3
		c0.4-0.4,0.9-1.1,1.3-2.1c0.6-1.5,1-3.5,1.2-5.7C84.4,80.2,84,76,82.5,75.8z"/>
	<g>
		<path class="st4" d="M75.9,2.3c0,0,2.4-2,4.7-2.2c5.1-0.4,7,1.8,7,1.8"/>
	</g>
	<path class="st5" d="M86.4,9.1C82.2,6.1,77.6,9,77.5,9c-0.1,0.1-0.1,0.1-0.1,0.2l-0.8,16.4c-0.2,0.3-0.4,0.6-0.4,0.9
		c0,0.7,0.5,1.4,1.4,1.9c0.1,0,0.2,0.1,0.3,0.1l0,1c-2,0.4-3.9,1.3-5.6,2.7c-5.7,4.6-6.6,13.1-1.9,18.8c0.3,0.4,0.6,0.7,1,1.1
		c0.1,0.1,0.2,0.3,0.3,0.4l-7.4,29.2c-0.1,0-0.2,0-0.3,0l-10.8-0.2c-0.2,0-0.4,0-0.6,0.1c-0.1-0.3-0.2-0.7-0.5-0.8c0,0,0,0,0,0
		c0,0,0,0-0.1,0c0,0,0,0,0,0c0,0,0,0,0,0l-3.6-0.1c-0.5,0-0.7,0.6-0.8,0.9c-0.2,0.5-0.3,1.1-0.4,1.8c-0.1,0.7-0.1,1.3,0,1.8
		c0,0.2,0.2,1,0.7,1l3.7,0.1c0,0,0.1,0,0.1,0c0.1,0,0.2-0.1,0.3-0.1c0.2-0.2,0.4-0.6,0.4-0.7c0.1-0.2,0.1-0.4,0.2-0.6
		c0.2,0.1,0.5,0.2,0.7,0.2l10.2,0.2l-17.9,70.5c0,0,0,0.1,0,0.1l2,13.4c0,0.1,0.1,0.2,0.3,0.2l2.3,0l0.4,8.6c0,0.1,0.1,0.3,0.3,0.3
		c0.1,0,0.2,0,0.2-0.1c0,0,0.1-0.1,0.1-0.1l3-9.7l1.1-0.6c0,0,0,0,0.1,0c0,0,0.1-0.1,0.1-0.2l1.8-7.7c0.2-0.1,0.3-0.2,0.5-0.4
		c0.8-0.6,1.5-1.5,1.6-2.6c0.1-1.1-0.3-2-0.8-2.8l15.7-68.8c0,0,0,0,0.1,0l2.3,0c-0.1,3.5,0.3,6.5,1.7,6.7l2.6,0.3
		c0.3,0,0.5-0.1,0.8-0.3c0.4-0.4,0.9-1.1,1.3-2.1c0.4-1.1,0.8-2.6,1-4.2l2.6-0.1l10.5,71.1c-0.5,0.2-1,0.5-1.5,0.9
		c-2.5,2.1-2.9,5.8-0.9,8.3c0.9,1.1,2.1,1.8,3.4,2l-0.1,3.8c0,0.2,0.1,0.3,0.3,0.3l1.6,0.1l0,5.7c0,0.1,0.1,0.2,0.2,0.3
		c0.1,0,1.7,0.6,2.7,0c0,0,0,0,0,0c0.6-0.5,0.7-3.3,0.7-5.7c0,0,0,0,0,0l2.2-0.7c0,0,0.1,0,0.1-0.1c0,0,0.1-0.1,0.1-0.1l5.3-12
		c0-0.1,0-0.1,0-0.2L98,85.8l7.2,0.1c0.1,0.7,0.2,1.4,0.7,1.5l3.9,0.1c0,0,0.1,0,0.1,0c0.1,0,0.2,0,0.3-0.1c0.7-0.5,0.9-2.5,0.9-2.7
		c0-0.3,0.3-2.8-0.6-3c0,0,0,0,0,0c0,0-0.1,0-0.1,0c0,0,0,0,0,0c0,0,0,0,0,0l-3.9-0.1c-0.4,0-0.7,0.4-0.9,1l-8.2-0.1c0,0,0,0,0,0
		l-5-28.2c4.5-4.8,4.9-12.3,0.7-17.6c-0.3-0.4-0.6-0.7-1-1.1c-0.3-0.4-0.5-0.8-0.9-1.2c-1.9-2.3-4.5-3.9-7.2-4.5l0-0.8
		c0.5-0.2,0.9-0.4,1.2-0.7c0.5-0.4,0.7-0.8,0.7-1.3c0-0.2,0-0.3-0.1-0.5c0,0,0,0,0,0c0,0,0,0,0.1,0c0.1-0.1,0.1-0.1,0.1-0.2
		l0.5-16.8C86.5,9.3,86.4,9.2,86.4,9.1z M84.2,82.3c0.1-3.4-0.4-6.4-1.7-6.5l-2.6-0.3c-0.7-0.1-1.4,0.7-2,2.4c-0.4,1.1-0.8,2.5-1,4
		l-1.9,0l4.9-21.6c0.9,0.1,1.8,0,2.7-0.3l3.3,22.3L84.2,82.3z M89.9,46.4l-0.9-1c-0.1-0.1-0.1-0.2-0.2-0.2c0,0,0-0.1-0.1-0.2
		c-0.1,0-0.2-0.1-0.2,0l-6.8,3.4c-1.1-0.2-2.2-0.1-3.3,0.3L74,48.4c-0.2-1-0.3-2.1-0.2-3.1c0.3-2.7,1.6-5.1,3.6-6.8
		c3.6-3,8.7-2.8,12.2-0.1C90.9,40.9,90.8,43.9,89.9,46.4z"/>
	<path class="st4" d="M86.4,9.1C82.2,6.1,77.6,9,77.5,9c-0.1,0.1-0.1,0.1-0.1,0.2l-0.8,16.4c-0.2,0.3-0.4,0.6-0.4,0.9
		c0,0.7,0.5,1.4,1.4,1.9c0.9,0.5,2.1,0.8,3.3,0.8c1.8,0.1,3.3-0.4,4.2-1.1c0.5-0.4,0.7-0.8,0.7-1.3c0-0.2,0-0.3-0.1-0.5c0,0,0,0,0,0
		c0,0,0,0,0.1,0c0.1-0.1,0.1-0.1,0.1-0.2l0.5-16.8C86.5,9.3,86.4,9.2,86.4,9.1z"/>
	<ellipse transform="matrix(0.7757 -0.6312 0.6312 0.7757 -80.1703 99.0052)" class="st4" cx="99.2" cy="162.3" rx="5.9" ry="5.9"/>
	<ellipse transform="matrix(0.7757 -0.6312 0.6312 0.7757 -33.0777 75.7242)" class="st4" cx="90" cy="84.4" rx="2.4" ry="2.4"/>
	<ellipse transform="matrix(0.7757 -0.6312 0.6312 0.7757 -37.8808 61.5581)" class="st4" cx="67.7" cy="84.1" rx="2.4" ry="2.4"/>
	<path class="st4" d="M84.4,29.7l-0.1-3.3c0-0.2-0.2-0.3-0.3-0.3l-5.4,0c-0.1,0-0.2,0-0.2,0.1c-0.1,0.1-0.1,0.1-0.1,0.2l0,3.2
		C80.3,29.2,82.4,29.2,84.4,29.7z"/>
	<path class="st4" d="M110.5,81.6C110.5,81.6,110.5,81.6,110.5,81.6C110.5,81.6,110.4,81.6,110.5,81.6c-0.1,0-0.1,0-0.1,0
		c0,0,0,0,0,0l-3.9-0.1c-1-0.1-1.3,2.6-1.3,2.9c0,0.3-0.3,3,0.7,3.1l3.9,0.1c0,0,0.1,0,0.1,0c0.1,0,0.2,0,0.3-0.1
		c0.7-0.5,0.9-2.5,0.9-2.7C111.1,84.4,111.3,81.9,110.5,81.6z"/>
	<polyline class="st4" points="77.4,59.6 51.9,169.2 47.8,169.2 45.8,155.9 71.9,52.8 	"/>
	<path class="st4" d="M53.4,84.8L63.7,85l0.9-3.5c-0.1,0-0.2,0-0.3,0l-10.8-0.2c-1,0-1.8,0.8-1.8,1.7C51.7,84,52.5,84.8,53.4,84.8z"
		/>
	<path class="st4" d="M51.7,83.1c0-0.7,0.4-1.2,0.9-1.5c-0.1-0.3-0.2-0.7-0.5-0.8c0,0,0,0.4,0,0.3c0,0,0,0.3-0.1,0.3c0,0,0,0,0,0
		c0,0,0-0.4,0-0.4l-3.6-0.3c-0.5,0-0.7,0.6-0.8,0.8c-0.2,0.5-0.3,1.1-0.4,1.8c-0.1,0.7-0.1,1.3,0,1.8c0,0.2,0.2,1,0.7,1l3.7,0.1
		c0,0,0.1,0,0.1,0c0.1,0,0.2-0.1,0.3-0.1c0.2-0.2,0.4-0.6,0.4-0.7c0.1-0.3,0.2-0.6,0.2-0.9C52,84.3,51.7,83.7,51.7,83.1z"/>
	<polyline class="st4" points="90.3,55.8 107.4,159.2 103.1,172.1 98.1,171.9 98.2,168.3 	"/>
	<path class="st4" d="M103.1,172.1l-3.4-0.1l0,5.9c0,0.1,0.1,0.2,0.2,0.3c0.1,0,1.7,0.6,2.7,0c0,0,0,0,0,0c0.7-0.6,0.8-4.1,0.7-6.8
		L103.1,172.1z"/>
	<path class="st24" d="M0.5,178.3c0,10,22.6,18.2,50.5,18.2c27.8,0,50.3-8.1,50.5-18.1c-0.8,0-1.6-0.3-1.6-0.3
		c-0.1,0-0.2-0.2-0.2-0.3l0-4.4c-5.2-6.8-21.2-12-40.9-13.1"/>
	<path class="st4" d="M78.2,92.1c0,0,2.8-2.6,3-8.8s-1.3-7.7-1.3-7.7"/>
	<path class="st4" d="M105.7,86.9c0,0,1.9-2.9,0.3-5"/>
	<path class="st4" d="M51.5,86.3c0,0-1.8-3.5,0.5-5.5"/>
	<line class="st4" x1="71.4" y1="52.1" x2="74.6" y2="54.4"/>
	<path class="st4" d="M86.5,53.3c0,0,9.1-6.1,5.5-17.9"/>
	<path class="st4" d="M75.2,51.1c0,0-3.2-0.5-5-6.2c-1.9-5.7,2.9-10.5,4.9-12c2.8-2.3,12.1-2.7,14.7,5.4"/>
	<path class="st4" d="M76.2,26.6c0,0,3.9-5.4,9.6-0.2"/>
	<g>
		<path class="st5" d="M39.5,164.2c0,0-2.2-3.1-1.6-9.1c0.7-6,2.7-7.6,2.7-7.6"/>
		<path class="st4" d="M34.3,161.3c0,0-1-2.5-0.9-4.8c0.3-5.1,1.9-6.8,1.9-6.8"/>
	</g>
	<g>
		<path class="st5" d="M114.6,171.9c0,0,3.1-2.3,4.3-8.2c1.2-5.9-0.2-8.1-0.2-8.1"/>
		<path class="st4" d="M120.4,170.7c0,0,1.7-2.1,2.3-4.3c1.3-4.9,0.3-7,0.3-7"/>
	</g>
	<path class="st4" d="M56.6,152.4c-0.1,0-0.2-0.1-0.3,0c-0.1,0-0.2,0.1-0.2,0.2l-1.7,8.2c0,0.1,0,0.2,0.1,0.3
		c0.1,0.1,0.2,0.1,0.3,0.1c0.1,0,1.6-0.5,2.8-1.5c0.8-0.6,1.5-1.5,1.6-2.6C59.5,154.3,56.7,152.5,56.6,152.4z"/>
	<path class="st4" d="M78.8,81.8L75,81.7l-0.8,3.5c0.1,0,0.2,0,0.3,0l4.3,0.1c0.4,0,0.8-0.1,1.1-0.4c0.4-0.3,0.6-0.8,0.6-1.3
		C80.6,82.6,79.8,81.8,78.8,81.8z"/>
	<path class="st4" d="M97.9,85.6l7.2,0.1c0-0.6,0-1.3,0-1.4c0-0.2,0.1-1.3,0.5-2.1l-8-0.1c-0.1,0-0.2,0-0.3,0L97.9,85.6z"/>
	<path class="st4" d="M52.2,169.4C52.1,169.4,52.1,169.4,52.2,169.4c-0.1,0-0.1,0-0.1,0l-1.8,0l0.4,8.6c0,0.1,0.1,0.3,0.3,0.3
		c0.1,0,0.2,0,0.2-0.1c0,0,0.1-0.1,0.1-0.1l3-9.7L52.2,169.4z"/>
	<path class="st4" d="M84,84.3c0,0.5-0.1,0.9-0.2,1.3l2.6-0.1l-0.5-3.5l-1.7,0.1C84.1,82.9,84.1,83.6,84,84.3z"/>
	<ellipse transform="matrix(0.7757 -0.6312 0.6312 0.7757 -16.2128 63.0706)" class="st4" cx="80.6" cy="54.3" rx="6" ry="6"/>
	<path class="st4" d="M93,36.5c-0.3-0.4-0.6-0.7-1-1.1c-0.3-0.4-0.5-0.8-0.9-1.2c-4.6-5.7-13.1-6.6-18.8-1.9
		c-5.7,4.6-6.6,13.1-1.9,18.8c0.3,0.4,0.6,0.7,1,1.1c0.3,0.4,0.5,0.8,0.9,1.2c0.7,0.9,1.6,1.7,2.5,2.4c-0.4-1.6-0.1-3.2,0.8-4.6
		c-0.3-0.2-0.6-0.4-0.8-0.6c-0.8-1.6-1.1-3.4-0.9-5.2c0.3-2.7,1.6-5.1,3.6-6.8c3.6-3,8.7-2.9,12.3-0.2c1.9,4.1,0.9,9.1-2.7,12
		c-0.4,0.3-0.9,0.6-1.3,0.9c1.3,2.1,1.1,4.7-0.3,6.7c2-0.4,3.9-1.3,5.6-2.7C96.7,50.6,97.6,42.2,93,36.5z"/>
	<path class="st4" d="M93,36.5c-0.3-0.4-0.6-0.7-1-1.1c-0.3-0.4-0.5-0.8-0.9-1.2c-4.6-5.7-13.1-6.6-18.8-1.9
		c-5.7,4.6-6.6,13.1-1.9,18.8c0.3,0.4,0.6,0.7,1,1.1c0.3,0.4,0.5,0.8,0.9,1.2c0.7,0.9,1.6,1.7,2.5,2.4c-0.4-1.6-0.1-3.2,0.8-4.6
		c-0.3-0.2-0.6-0.4-0.8-0.6c-0.8-1.6-1.1-3.4-0.9-5.2c0.3-2.7,1.6-5.1,3.6-6.8c3.6-3,8.7-2.9,12.3-0.2c1.9,4.1,0.9,9.1-2.7,12
		c-0.4,0.3-0.9,0.6-1.3,0.9c1.3,2.1,1.1,4.7-0.3,6.7c2-0.4,3.9-1.3,5.6-2.7C96.7,50.6,97.6,42.2,93,36.5z"/>
	<path class="st4" d="M92.3,54c-0.4,0.4-0.8,0.8-1.3,1.2c-1.7,1.4-3.6,2.3-5.6,2.7c-0.3,0.4-0.6,0.8-1,1.1c-0.5,0.4-1.1,0.8-1.8,1
		l14.3,96.9c2.3-1,5.2-0.3,6.8,1.7c2.1,2.5,1.7,6.2-0.9,8.3c-1.4,1.2-3.3,1.5-4.9,1.2l-0.1,3.8c0,0.2,0.1,0.3,0.3,0.3l5,0.2
		c0,0,0,0,0,0c0.1,0,0.2,0.1,0.2,0l2.2-0.7c0,0,0.1,0,0.1-0.1c0,0,0.1-0.1,0.1-0.1l5.3-12c0-0.1,0-0.1,0-0.2L92.3,54z"/>
	<g>
		<path class="st4" d="M75.6,51.1c0.3-0.5,0.8-1,1.3-1.4c0.5-0.4,1-0.7,1.6-0.9L74,48.4c0.2,0.7,0.4,1.4,0.7,2.1
			C75,50.7,75.3,50.9,75.6,51.1z"/>
		<path class="st4" d="M89,45.4c-0.1-0.1-0.1-0.2-0.2-0.2c0,0,0-0.1-0.1-0.2c-0.1,0-0.2-0.1-0.2,0l-6.8,3.4c1.3,0.3,2.6,1,3.5,2.1
			c0.2,0.2,0.3,0.5,0.5,0.7c0.5-0.3,0.9-0.6,1.3-0.9c1.3-1,2.2-2.4,2.8-3.8L89,45.4z"/>
	</g>
	<path class="st4" d="M76,58.1c-0.6-0.7-1-1.6-1.2-2.5c-0.9-0.7-1.8-1.4-2.5-2.4c-0.2-0.3-0.4-0.5-0.6-0.8L45.6,155.7
		c0,0,0,0.1,0,0.1l2,13.4c0,0.1,0.1,0.2,0.3,0.2l4.1,0c0,0,0,0,0,0c0,0,0.1,0,0.1,0l3.1-1.5c0,0,0,0,0.1,0c0,0,0.1-0.1,0.1-0.2
		l1.8-7.7c-1.1,0.7-2.2,1.1-2.3,1.1c-0.1,0-0.2,0-0.3-0.1c-0.1-0.1-0.1-0.2-0.1-0.3l1.7-8.2c0-0.1,0.1-0.2,0.2-0.2
		c0.1,0,0.2,0,0.3,0c0.1,0,1.1,0.7,1.8,1.8l21.5-93.9C78.4,60.1,77,59.4,76,58.1z"/>
</g>
</svg>
