<?xml version="1.0" encoding="utf-8"?>
<!-- Generator: Adobe Illustrator 19.2.1, SVG Export Plug-In . SVG Version: 6.00 Build 0)  -->
<svg version="1.1" id="Слой_1" xmlns="http://www.w3.org/2000/svg" xmlns:xlink="http://www.w3.org/1999/xlink" x="0px" y="0px"
	 viewBox="0 0 124.2 122" style="enable-background:new 0 0 124.2 122;" xml:space="preserve">
<style type="text/css">
	.st0{fill:#004BA5;}
	.st1{fill:#72CDF4;}
	.st2{fill:#F8971D;}
	.st3{fill:#FFE06A;}
	.st4{fill:none;stroke:#000000;stroke-linecap:round;stroke-linejoin:round;stroke-miterlimit:10;}
	.st5{fill:none;stroke:#000000;stroke-width:2;stroke-linecap:round;stroke-linejoin:round;stroke-miterlimit:10;}
	.st6{fill:none;stroke:#000000;stroke-linecap:round;stroke-linejoin:round;stroke-dasharray:0,14.1335;}
	.st7{fill:none;stroke:#000000;stroke-linecap:round;stroke-linejoin:round;}
	.st8{fill:none;stroke:#000000;stroke-linecap:round;stroke-linejoin:round;stroke-dasharray:0,1.9842;}
	.st9{clip-path:url(#SVGID_2_);}
	.st10{clip-path:url(#SVGID_4_);}
	.st11{clip-path:url(#SVGID_6_);}
	.st12{clip-path:url(#SVGID_8_);}
	.st13{clip-path:url(#SVGID_10_);}
	.st14{clip-path:url(#SVGID_12_);}
	.st15{fill:none;}
	.st16{clip-path:url(#SVGID_14_);}
	.st17{clip-path:url(#SVGID_16_);}
	.st18{clip-path:url(#SVGID_18_);}
	.st19{fill:none;stroke:#000000;stroke-linecap:square;stroke-linejoin:round;stroke-miterlimit:10;}
	.st20{clip-path:url(#SVGID_20_);}
	.st21{clip-path:url(#SVGID_22_);}
	.st22{clip-path:url(#SVGID_24_);}
	.st23{clip-path:url(#SVGID_26_);}
	.st24{fill:none;stroke:#000000;stroke-linecap:round;stroke-linejoin:round;stroke-miterlimit:10;stroke-dasharray:0,2;}
</style>
<g>
	<circle class="st5" cx="61.2" cy="61.9" r="60"/>
	<circle class="st4" cx="61.2" cy="61.9" r="50"/>
	<path class="st4" d="M79.9,46.6C79,45.5,66.6,53,61.2,57.9c-2.5,2.3-3,4.5-2.1,5.6c0.9,1.2,3.5,1.1,6-1.1
		C70.5,57.5,80.8,47.8,79.9,46.6z M61.2,62.9c-0.6,0-1-0.4-1-1c0-0.6,0.4-1,1-1s1,0.4,1,1C62.2,62.4,61.7,62.9,61.2,62.9z"/>
	<path class="st4" d="M59,63.6c-0.9-1.2-0.4-3.4,2.1-5.6c1.1-1,2.4-2,3.8-3.1c-0.3-13.5-1.9-35.4-4-35.4c-2.2,0-4,26.2-4,38.9
		c0,5.7,1.8,7.1,4,7.1c1.4,0,2.7-0.5,3.4-2.6C62.2,64.6,59.9,64.6,59,63.6z"/>
	<g>
		<circle class="st6" cx="62.2" cy="61.9" r="45"/>
	</g>
	<path class="st5" d="M103.6,12.2c0,0,15.5,9.4,19.7,31.7"/>
	<path class="st4" d="M111.7,15.3c0,0,5.6,3.4,9.2,12.2"/>
	<path class="st5" d="M19.4,113.4c0,0-11.2-4.9-16-19.4"/>
	<path class="st4" d="M13.3,113.5c0,0-4.1-1.7-7.3-7.4"/>
</g>
</svg>
