<?xml version="1.0" encoding="utf-8"?>
<!-- Generator: Adobe Illustrator 19.2.1, SVG Export Plug-In . SVG Version: 6.00 Build 0)  -->
<svg version="1.1" id="Слой_1" xmlns="http://www.w3.org/2000/svg" xmlns:xlink="http://www.w3.org/1999/xlink" x="0px" y="0px"
	 viewBox="0 0 169.6 150" style="enable-background:new 0 0 169.6 150;" xml:space="preserve">
<style type="text/css">
	.st0{fill:#004BA5;}
	.st1{fill:#72CDF4;}
	.st2{fill:#F8971D;}
	.st3{fill:#FFE06A;}
	.st4{fill:none;stroke:#000000;stroke-linecap:round;stroke-linejoin:round;stroke-miterlimit:10;}
	.st5{fill:none;stroke:#000000;stroke-width:2;stroke-linecap:round;stroke-linejoin:round;stroke-miterlimit:10;}
	.st6{fill:none;stroke:#000000;stroke-linecap:round;stroke-linejoin:round;stroke-dasharray:0,14.1335;}
	.st7{fill:none;stroke:#000000;stroke-linecap:round;stroke-linejoin:round;}
	.st8{fill:none;stroke:#000000;stroke-linecap:round;stroke-linejoin:round;stroke-dasharray:0,1.9842;}
	.st9{clip-path:url(#SVGID_2_);}
	.st10{clip-path:url(#SVGID_4_);}
	.st11{clip-path:url(#SVGID_6_);}
	.st12{clip-path:url(#SVGID_8_);}
	.st13{clip-path:url(#SVGID_10_);}
	.st14{clip-path:url(#SVGID_12_);}
	.st15{fill:none;}
	.st16{clip-path:url(#SVGID_14_);}
	.st17{clip-path:url(#SVGID_16_);}
	.st18{clip-path:url(#SVGID_18_);}
	.st19{fill:none;stroke:#000000;stroke-linecap:square;stroke-linejoin:round;stroke-miterlimit:10;}
	.st20{clip-path:url(#SVGID_20_);}
	.st21{clip-path:url(#SVGID_22_);}
	.st22{clip-path:url(#SVGID_24_);}
	.st23{clip-path:url(#SVGID_26_);}
	.st24{fill:none;stroke:#000000;stroke-linecap:round;stroke-linejoin:round;stroke-miterlimit:10;stroke-dasharray:0,2;}
</style>
<g>
	<path class="st19" d="M165.1,82.5C165.1,82.5,165.1,82.6,165.1,82.5C165.1,82.6,165.1,82.5,165.1,82.5L165.1,82.5
		c-0.2,0.8-5.3,1.6-12.8,2c0,0-10.8,0.3-20.2,0c-7.9-0.4-13.5-1.2-13.6-2.1h0c0,0,0,0,0,0.1c-0.7,0.2-1.1,1.1-0.9,2.2
		c0.2,0.9,0.6,1.4,1.2,1.6c1.8,11,11.4,19.3,22.9,19.3c11.5,0,21-8.3,22.9-19.3c0.7-0.3,1.2-0.8,1.3-1.7
		C166.3,83.7,165.8,82.7,165.1,82.5z"/>
	<g>
		<path class="st4" d="M88.8,20.5V6c0-2.8-3.1-4.5-5.8-4.5h-1.6c-2.8,0-4.6,1.8-4.6,4.5v14.5H88.8z"/>
		<path class="st4" d="M76.8,27.5v104c0,1.6,0.9,3,2.6,3H85c1.6,0,3.8-1.4,3.8-3v-104H76.8z"/>
	</g>
	<path class="st4" d="M52.5,87.9c0,0,2.1-4.2-1.2-8.4"/>
	<path class="st4" d="M115.3,87.9c0,0-2.1-4.2,1.2-8.4"/>
	<path class="st5" d="M18.6,109c0,0-6.9,0.1-13.4-8.1"/>
	<path class="st4" d="M15.9,112.5c0,0-4.6-0.5-8.1-3.5"/>
	<path class="st5" d="M166.7,93.4c0,0-0.9,6.9-10,12"/>
	<path class="st4" d="M169.8,96.7c0,0-1.2,4.5-4.6,7.5"/>
	<path class="st4" d="M144.7,27.1H23c-1.6,0-3-1.3-3-3v-1c0-1.6,1.3-3,3-3h121.6c1.6,0,3,1.3,3,3v1
		C147.7,25.8,146.3,27.1,144.7,27.1z"/>
	<circle class="st4" cx="83.2" cy="23.6" r="1.2"/>
	<circle class="st4" cx="141.9" cy="23.6" r="1.7"/>
	<circle class="st4" cx="25.8" cy="23.6" r="1.7"/>
	<polyline class="st4" points="49,82.5 25.8,24.5 2.6,82.5 	"/>
	<polyline class="st4" points="165.1,82.5 141.9,24.5 118.7,82.5 	"/>
	<path class="st4" d="M39.3,80.6c5.9,0.4,9.7,1.1,9.7,1.9c0,1.3-10.4,2.3-23.2,2.3s-23.2-1-23.2-2.3c0-0.8,3.7-1.4,9.3-1.9"/>
	<path class="st4" d="M49,86c0,1.3-10.4,2.3-23.2,2.3S2.6,87.2,2.6,86"/>
	<ellipse transform="matrix(0.7071 -0.7071 0.7071 0.7071 20.1995 59.6188)" class="st4" cx="82.1" cy="5.4" rx="2.9" ry="1.8"/>
	<line class="st4" x1="86" y1="8.9" x2="86" y2="19.9"/>
	<line class="st4" x1="86" y1="32.5" x2="86" y2="131.4"/>
	<path class="st4" d="M81.4,136.4c-2.3,0-4.5-1.3-5.1-3.8"/>
	<path class="st4" d="M165.1,86c0,1.3-10.4,2.3-23.2,2.3s-23.2-1-23.2-2.3"/>
	<path class="st19" d="M49.7,82.9c0-0.1,0-0.3,0-0.4h0c0,0.1-0.1,0.1-0.2,0.2c-0.1-0.1-0.2-0.1-0.4-0.2c0,0-0.4,0.4-1.4,0.7
		c-3.6,0.8-11.8,1.5-21.3,1.5c-12.7,0-22.9-1.3-23.2-2.3h0c0,0.2,0,0.3,0,0.5c-0.4-0.2-0.6-0.4-0.6-0.4c-0.7,0.1-1.1,1.1-0.9,2.2
		c0.2,1.1,0.8,1.6,1.7,1.8c0,0,0.1,0,0.2,0.1c1.9,11,11.4,19.1,22.8,19.1c11.6,0,21.3-8.4,23-19.7c0.3-0.3,0.5-0.7,0.6-1.3
		C50.2,84,50,83.3,49.7,82.9z"/>
	<g>
		<defs>
			<path id="SVGID_19_" d="M163.3,81.5V58h-41v23.1c-2,0.4-4.1,0.9-4.1,1.4c0,1.3,10.6,2.3,23.4,2.3c12.8,0,23.5-1,23.5-2.3
				C165.1,82.1,164.3,81.8,163.3,81.5z"/>
		</defs>
		<clipPath id="SVGID_2_">
			<use xlink:href="#SVGID_19_"  style="overflow:visible;"/>
		</clipPath>
		<g class="st9">
			<path class="st4" d="M142.5,66.3c0,0,3.7-6.5,9.7-6.5s12.6,8.8,7.1,16.6c-5,7.1-16.8,18.1-16.8,18.1h-0.3c0,0-11.8-11-16.8-18.1
				c-5.5-7.8,1-16.6,7.1-16.6c6.1,0,9.6,6.3,9.7,6.5C142.3,66.6,142.5,66.3,142.5,66.3z"/>
		</g>
	</g>
	<path class="st4" d="M165.1,82.5c0,1.3-10.4,2.3-23.2,2.3s-23.2-1-23.2-2.3"/>
	<g>
		<defs>
			<path id="SVGID_21_" d="M40.3,80.7V52h-31v28.8c-4,0.4-7,1-7,1.7c0,1.3,10.6,2.3,23.4,2.3s23.2-1,23.2-2.3
				C48.9,81.7,45.3,81.1,40.3,80.7z"/>
		</defs>
		<clipPath id="SVGID_4_">
			<use xlink:href="#SVGID_21_"  style="overflow:visible;"/>
		</clipPath>
		<g class="st10">
			<g>
				<line class="st4" x1="19.6" y1="65.2" x2="25.3" y2="56.3"/>
				<path class="st4" d="M29.4,56.7c2.8,0.2,4.2,1.7,3.2,3.3c-1,1.6-4.1,2.7-6.9,2.4"/>
				<line class="st4" x1="25.3" y1="56.3" x2="29.9" y2="56.7"/>
				<line class="st4" x1="19.8" y1="61.9" x2="26.2" y2="62.4"/>
				<line class="st4" x1="18.6" y1="63.8" x2="24.1" y2="64.3"/>
			</g>
			<g>
				<path class="st4" d="M37.9,84.2c-2.6,4-10.4,6.8-17.5,6.2c-4.4-0.4-7.5-2-8.6-4.1c-1.7,3.7,2,7,8.6,7.6
					c7.1,0.6,14.9-2.2,17.5-6.2c1-1.5,1.1-3,0.4-4.2C38.2,83.7,38,84,37.9,84.2z"/>
				<path class="st4" d="M37.9,80.8c-2.6,4-10.4,6.8-17.5,6.2c-4.4-0.4-7.5-2-8.6-4.1c-1.7,3.7,2,7,8.6,7.6
					c7.1,0.6,14.9-2.2,17.5-6.2c1-1.5,1.1-3,0.4-4.2C38.2,80.3,38,80.5,37.9,80.8z"/>
				<path class="st4" d="M37.9,77.3c-2.6,4-10.4,6.8-17.5,6.2c-4.4-0.4-7.5-2-8.6-4.1c-1.7,3.7,2,7,8.6,7.6
					c7.1,0.6,14.9-2.2,17.5-6.2c1-1.5,1.1-3,0.4-4.2C38.2,76.8,38,77,37.9,77.3z"/>
				<path class="st4" d="M38.4,73.3c-0.1,0.3-0.3,0.7-0.5,1c-2.6,4-10.4,6.8-17.5,6.2c-4.6-0.4-7.7-2.1-8.7-4.3
					c-1.4,3.6,2.2,6.8,8.7,7.3c7.1,0.6,14.9-2.2,17.5-6.2C38.8,75.9,38.9,74.5,38.4,73.3z"/>
				<path class="st4" d="M38.4,70.3c-0.1,0.3-0.3,0.7-0.5,1c-2.6,4-10.4,6.8-17.5,6.2c-4.6-0.4-7.7-2.1-8.7-4.3
					c-1.4,3.6,2.2,6.8,8.7,7.3c7.1,0.6,14.9-2.2,17.5-6.2C38.8,72.9,38.9,71.5,38.4,70.3z"/>
				<path class="st4" d="M38.4,67.3c-0.1,0.3-0.3,0.7-0.5,1c-2.6,4-10.4,6.8-17.5,6.2c-4.6-0.4-7.7-2.1-8.7-4.3
					c-1.4,3.6,2.2,6.8,8.7,7.3c7.1,0.6,14.9-2.2,17.5-6.2C38.8,69.9,38.9,68.5,38.4,67.3z"/>
				<path class="st4" d="M38.4,64.3c-0.1,0.3-0.3,0.7-0.5,1c-2.6,4-10.4,6.8-17.5,6.2c-4.6-0.4-7.7-2.1-8.7-4.3
					c-1.4,3.6,2.2,6.8,8.7,7.3c7.1,0.6,14.9-2.2,17.5-6.2C38.8,66.9,38.9,65.5,38.4,64.3z"/>
				<path class="st4" d="M37.9,61.8c-2.6,4-10.4,6.8-17.5,6.2c-7.1-0.6-10.8-4.3-8.2-8.4s10.4-6.8,17.5-6.2
					C36.8,54.1,40.4,57.8,37.9,61.8z"/>
				<path class="st4" d="M38.3,61.1c-0.1,0.2-0.2,0.5-0.4,0.7c-2.6,4-10.4,6.8-17.5,6.2c-4.4-0.4-7.5-2-8.6-4.1
					c-1.7,3.7,1.9,7.1,8.6,7.6c7.1,0.6,14.9-2.2,17.5-6.2C38.8,63.8,38.9,62.4,38.3,61.1z"/>
			</g>
		</g>
	</g>
	<path class="st4" d="M49,82.5c0,1.3-10.4,2.3-23.2,2.3s-23.2-1-23.2-2.3"/>
	<polyline class="st5" points="49,82.5 25.8,24.5 2.6,82.5 	"/>
	<polyline class="st5" points="165.1,82.5 141.9,24.5 118.7,82.5 	"/>
	<path class="st5" d="M144.2,20H88.3V6.8C88.3,3.6,86,1,82.8,1s-5.5,2.6-5.5,5.8V20H23.5c-1.9,0-3.5,1.6-3.5,3.5
		c0,1.9,1.6,3.5,3.5,3.5h53.8v105l0,0H63.5c-4.8,0-9.2,2.9-9.2,7.7v6.4c0,1.3,1.6,2.9,2.9,2.9h53.4c1.3,0,1.8-1.7,1.8-2.9v-6.4
		c0-4.8-3.4-7.7-8.1-7.7H88.3l0,0V27h55.9c1.9,0,3.5-1.6,3.5-3.5C147.7,21.6,146.1,20,144.2,20z"/>
	<path class="st5" d="M165.1,82.5c0,0,0,0.3-0.1,0.3c0,0,0,0.2,0,0.2h0c0-1,0-0.3,0-0.3c0-0.8-3.7-1.6-9.3-2
		c1.3-1.5,2.6-3.1,3.5-4.5c5.5-7.8-1-16.4-7.1-16.4c-6.1,0-9.7,6.5-9.7,6.5s-0.2,0.2-0.3-0.1c-0.2-0.3-3.7-6.6-9.7-6.6
		c-6.1,0-12.6,8.7-7.1,16.5c1,1.4,2.2,2.8,3.5,4.4c-6.1,0.4-10.1,1.4-10.1,2.2c0,0,0-0.7,0,0.3h0c0,0,0-0.2,0-0.2
		c-0.7,0.2-1.1,1-0.9,2c0.2,0.9,0.6,1.3,1.2,1.6c1.8,11,11.4,19.3,22.9,19.3c11.5,0,21-8.4,22.9-19.3c0.7-0.3,1.2-0.8,1.4-1.7
		C166.3,83.7,165.8,82.7,165.1,82.5z"/>
	<path class="st5" d="M49.1,82.5c0,0,0,0.3-0.1,0.3c0,0,0,0.2,0,0.2h0c0-1,0-0.3,0-0.3c0-0.8-4-1.6-10.2-2c-0.1-0.2-0.1-0.4-0.2-0.6
		c0.6-1.2,0.5-2.5,0-3.5c0.5-1.1,0.5-2.3,0.1-3.3c0.4-1.1,0.4-2.1,0-3c0.4-1.1,0.4-2.1,0-3c0.4-1.1,0.4-2.1,0-3
		c0.4-1.1,0.4-2.3-0.1-3.2c1.7-3.7-1.9-7.1-8.6-7.6c-7.1-0.6-14.9,2.2-17.5,6.2c-1,1.5-1.1,3-0.4,4.3c-0.5,1.2-0.5,2.3-0.1,3.3
		c-0.4,1.1-0.4,2.1,0,3c-0.4,1-0.4,2.1,0,3c-0.4,1.1-0.4,2.1,0,3c-0.4,1.1-0.4,2.2,0.1,3.2c-0.2,0.4-0.3,0.9-0.4,1.3
		c-5.6,0.4-9.2,1.3-9.2,2.1c0,0,0-0.7,0,0.3h0c0,0,0-0.2,0-0.2c-0.7,0.2-1.1,1-0.9,2c0.2,0.9,0.6,1.3,1.2,1.6
		c1.8,11,11.4,19.3,22.9,19.3c11.5,0,21-8.4,22.9-19.3c0.7-0.3,1.2-0.8,1.4-1.7C50.2,83.7,49.8,82.7,49.1,82.5z"/>
	<g>
		<path class="st4" d="M128.6,80.6c-6,0.4-10,1.1-10,1.9c0,0.9,5.6,1.7,13.6,2.1C131,83.3,129.8,81.9,128.6,80.6z"/>
		<path class="st4" d="M155.9,80.6c-1.1,1.3-2.3,2.6-3.5,3.9c7.5-0.4,12.7-1.2,12.7-2.1C165.1,81.7,161.5,81.1,155.9,80.6z"/>
	</g>
</g>
</svg>
