<?xml version="1.0" encoding="utf-8"?>
<!-- Generator: Adobe Illustrator 19.2.1, SVG Export Plug-In . SVG Version: 6.00 Build 0)  -->
<svg version="1.1" id="Слой_1" xmlns="http://www.w3.org/2000/svg" xmlns:xlink="http://www.w3.org/1999/xlink" x="0px" y="0px"
	 viewBox="0 0 142.2 144.8" style="enable-background:new 0 0 142.2 144.8;" xml:space="preserve">
<style type="text/css">
	.st0{fill:#004BA5;}
	.st1{fill:#72CDF4;}
	.st2{fill:#F8971D;}
	.st3{fill:#FFE06A;}
	.st4{fill:none;stroke:#000000;stroke-linecap:round;stroke-linejoin:round;stroke-miterlimit:10;}
	.st5{fill:none;stroke:#000000;stroke-width:2;stroke-linecap:round;stroke-linejoin:round;stroke-miterlimit:10;}
	.st6{fill:none;stroke:#000000;stroke-linecap:round;stroke-linejoin:round;stroke-dasharray:0,14.1335;}
	.st7{fill:none;stroke:#000000;stroke-linecap:round;stroke-linejoin:round;}
	.st8{fill:none;stroke:#000000;stroke-linecap:round;stroke-linejoin:round;stroke-dasharray:0,1.9842;}
	.st9{clip-path:url(#SVGID_2_);}
	.st10{clip-path:url(#SVGID_4_);}
	.st11{clip-path:url(#SVGID_6_);}
	.st12{clip-path:url(#SVGID_8_);}
	.st13{clip-path:url(#SVGID_10_);}
	.st14{clip-path:url(#SVGID_12_);}
	.st15{fill:none;}
	.st16{clip-path:url(#SVGID_14_);}
	.st17{clip-path:url(#SVGID_16_);}
	.st18{clip-path:url(#SVGID_18_);}
	.st19{fill:none;stroke:#000000;stroke-linecap:square;stroke-linejoin:round;stroke-miterlimit:10;}
	.st20{clip-path:url(#SVGID_20_);}
	.st21{clip-path:url(#SVGID_22_);}
	.st22{clip-path:url(#SVGID_24_);}
	.st23{clip-path:url(#SVGID_26_);}
	.st24{fill:none;stroke:#000000;stroke-linecap:round;stroke-linejoin:round;stroke-miterlimit:10;stroke-dasharray:0,2;}
</style>
<g>
	<polygon class="st4" points="95.9,70.9 120.3,15.5 62.4,53.4 	"/>
	<polygon class="st4" points="62.4,53.4 120.3,15.5 58.7,51.1 63,70.9 74.5,59.7 	"/>
	<polygon class="st4" points="58.7,51.1 33,40.6 120.3,15.5 	"/>
	<polygon class="st4" points="74.8,59.9 63,70.9 62.4,53.4 	"/>
	<g>
		<g>
			<line class="st7" x1="4.6" y1="132.9" x2="4.6" y2="132.9"/>
			<path class="st8" d="M4.1,131c-1.4-6-3.7-25.4,17-42.7c21-17.5,32.3-24.2,35.4-25.8"/>
			<line class="st7" x1="57.3" y1="62" x2="57.3" y2="62"/>
		</g>
	</g>
<!-- 	<circle class="st5" cx="6.8" cy="139.7" r="5"/>
	<circle class="st5" cx="137" cy="6.8" r="5"/>
 -->	<g>
		<path d="M120.3,15.5L95.9,70.9L74.5,59.7l0.3,0.2L63,70.9l-4.3-19.8L33,40.6L120.3,15.5 M120.3,13.5c-0.2,0-0.4,0-0.6,0.1
			L32.4,38.7c-0.8,0.2-1.4,1-1.4,1.8s0.5,1.6,1.2,2l24.7,10.1L61,71.3c0.2,0.7,0.7,1.3,1.4,1.5c0.2,0.1,0.4,0.1,0.6,0.1
			c0.5,0,1-0.2,1.4-0.5l10.8-10L95,72.6c0.3,0.2,0.6,0.2,0.9,0.2c0.2,0,0.4,0,0.7-0.1c0.5-0.2,0.9-0.6,1.2-1.1l24.5-55.4
			c0.3-0.7,0.2-1.5-0.3-2.1C121.5,13.8,120.9,13.5,120.3,13.5L120.3,13.5z M120.3,17.5L120.3,17.5L120.3,17.5L120.3,17.5z"/>
	</g>
	<path class="st5" d="M30.9,46.2c0,0-5.7-2.8-4.7-7.4"/>
	<path class="st4" d="M25.9,47c0,0-3.3-2-4-4.2"/>
	<path class="st4" d="M98.9,75.5c0,0-3.5,2.5-7-1.4"/>
</g>
</svg>
