<?xml version="1.0" encoding="utf-8"?>
<!-- Generator: Adobe Illustrator 19.2.1, SVG Export Plug-In . SVG Version: 6.00 Build 0)  -->
<svg version="1.1" id="Слой_1" xmlns="http://www.w3.org/2000/svg" xmlns:xlink="http://www.w3.org/1999/xlink" x="0px" y="0px"
	 viewBox="0 0 103.1 148" style="enable-background:new 0 0 103.1 148;" xml:space="preserve">
<style type="text/css">
	.st0{fill:#004BA5;}
	.st1{fill:#72CDF4;}
	.st2{fill:#F8971D;}
	.st3{fill:#FFE06A;}
	.st4{fill:none;stroke:#000000;stroke-linecap:round;stroke-linejoin:round;stroke-miterlimit:10;}
	.st5{fill:none;stroke:#000000;stroke-width:2;stroke-linecap:round;stroke-linejoin:round;stroke-miterlimit:10;}
	.st6{fill:none;stroke:#000000;stroke-linecap:round;stroke-linejoin:round;stroke-dasharray:0,14.1335;}
	.st7{fill:none;stroke:#000000;stroke-linecap:round;stroke-linejoin:round;}
	.st8{fill:none;stroke:#000000;stroke-linecap:round;stroke-linejoin:round;stroke-dasharray:0,1.9842;}
	.st9{clip-path:url(#SVGID_2_);}
	.st10{clip-path:url(#SVGID_4_);}
	.st11{clip-path:url(#SVGID_6_);}
	.st12{clip-path:url(#SVGID_8_);}
	.st13{clip-path:url(#SVGID_10_);}
	.st14{clip-path:url(#SVGID_12_);}
	.st15{fill:none;}
	.st16{clip-path:url(#SVGID_14_);}
	.st17{clip-path:url(#SVGID_16_);}
	.st18{clip-path:url(#SVGID_18_);}
	.st19{fill:none;stroke:#000000;stroke-linecap:square;stroke-linejoin:round;stroke-miterlimit:10;}
	.st20{clip-path:url(#SVGID_20_);}
	.st21{clip-path:url(#SVGID_22_);}
	.st22{clip-path:url(#SVGID_24_);}
	.st23{clip-path:url(#SVGID_26_);}
	.st24{fill:none;stroke:#000000;stroke-linecap:round;stroke-linejoin:round;stroke-miterlimit:10;stroke-dasharray:0,2;}
</style>
<g>
	<path class="st4" d="M77.5,21.5c0.1,0.2,0.1,0.4,0.1,0.6c0,3.6-11.2,6.6-25.1,6.6s-25.1-3-25.1-6.6c0-0.3,0.1-0.5,0.2-0.8
		c-0.9,1-1.7,2.5-1.7,3.8c0,2-0.2,4.1,1.3,5.7c3.3,3.3,11.9,6.2,24.9,6.2c15,0,21.6-3.2,25.1-6.2c1.7-1.5,1.7-3.7,1.7-5.7
		C78.9,23.9,78.3,22.5,77.5,21.5z"/>
	<path class="st4" d="M58.5,15.7V19c0,3.3-2.7,4-6,4c-3.3,0-6-0.7-6-4v-3.3c-11,0.7-19.1,3.3-19.1,6.4c0,3.6,11.2,6.6,25.1,6.6
		s25.1-3,25.1-6.6C77.6,19,69.5,16.4,58.5,15.7z"/>
	<g>
		<g>
			<path d="M52.5,1c3.3,0,6,2.7,6,6v8.7c11,0.7,17.3,3,18.3,5.8c0.8,1,1.8,2.5,1.8,3.7c0,2-0.2,4.2-2,5.7c-3,2.5-7.2,5.2-18.2,6
				v20.9c14,0.7,24.3,3.7,25.9,7.5c1.1,1.2,2.3,3.1,2.3,4.7c0,2.5-1.1,5.4-2.5,6.8c-3.6,3.8-9.8,6.3-25.8,6.8v2
				c18,0.7,31.6,4.4,34.3,9.1c1.5,1.4,3.3,3.7,3.3,5.6c0,2.9-1,6.1-2.7,7.7c-1.9,1.8-3.6,3.4-7.4,4.9c6.6,1.7,10.3,3.9,12.2,6.3
				c1.7,1.2,3.2,3.6,3.7,7c0.4,3.2-1,6.7-2.9,8.6c-5.8,5.5-18.9,10.4-45.7,10.4c-25.6,0-41.7-4.9-47.5-10.5
				c-1.9-1.8-3.3-5.3-2.8-8.5c0.5-3.4,2-5.7,3.7-6.9c1.9-2.5,7.6-4.7,14.3-6.4c-4-1.4-8-3.1-9.9-4.9c-1.7-1.6-2.6-4.8-2.6-7.7
				c0-1.9,1.2-4.2,2.7-5.6c2.7-4.7,17.4-8.4,35.4-9.1v-2c-14-0.5-24-3.1-27.7-6.8c-1.3-1.4-1.4-4.3-1.4-6.8c0-1.6,0.8-3.6,2-4.8
				c1.8-3.7,14.1-6.7,27.1-7.3V36.8c-9-0.7-17.2-3.2-20-6c-1.5-1.5-1-3.7-1-5.7c0-1.3,0.6-2.8,1.5-3.8c1.2-2.8,9.5-5,19.5-5.6V7
				C46.5,3.7,49.2,1,52.5,1 M52.5-1c-4.4,0-8,3.6-8,8v6.8c-5.6,0.5-16.8,2-19.2,6.4c-1.1,1.3-1.8,3.2-1.8,5c0,0.4,0,0.7,0,1.2
				c-0.1,1.7-0.2,4.1,1.6,5.9c3,3,10.7,5.5,19.4,6.4v17.1c-9.4,0.7-23.7,3-26.7,8c-1.5,1.6-2.4,3.9-2.4,6c0,3.1,0.2,6.3,2,8.2
				c2.9,3,8.7,5.1,16.9,6.4c-11.1,1.4-21.7,4.2-24.7,8.8c-1.9,1.8-3.2,4.6-3.2,6.9c0,2.8,0.8,6.9,3.2,9.1c1.1,1,2.7,2,5.1,3.1
				c-4.8,1.6-8,3.4-9.5,5.3c-2.2,1.7-3.7,4.6-4.3,8.1c-0.5,3.6,0.9,7.9,3.4,10.3c7.2,6.9,25.5,11,48.9,11c23.6,0,39.5-3.7,47.1-11
				c2.6-2.4,4-6.7,3.5-10.3c-0.5-3.5-2-6.5-4.3-8.2c-1.7-2.1-4.5-3.9-8.3-5.3c1.4-0.9,2.4-1.9,3.4-2.9l0.1-0.1
				c2.4-2.3,3.3-6.4,3.3-9.1c0-3-2.6-5.8-3.7-6.9c-3-4.7-12.8-7.4-23.6-8.8c7.2-1.1,11.8-3.2,14.9-6.4c1.8-1.8,3-5.3,3-8.2
				c0-2.3-1.6-4.5-2.6-5.8c-3.1-6-18.6-7.8-25.6-8.2V38.7c9.9-1,14.2-3.6,17.4-6.3c2.4-2,2.7-4.9,2.7-7.2c0-1.4-0.7-2.9-2-4.7
				c-2-4.3-10.5-6-18.1-6.6V7C60.5,2.6,57-1,52.5-1L52.5-1z"/>
		</g>
	</g>
	<g>
		<path class="st4" d="M52.1,145c0,0,0.4,0,0.4,0l0,0c-0.1,0-0.1,0-0.2,0C52.2,145,52.2,145,52.1,145L52.1,145z"/>
		<path class="st4" d="M102,126c-0.5-3.4-2-5.8-3.7-7c0.6,0.8,0.9,1.6,0.9,2.4c0,6.8-20.9,12.3-46.7,12.3s-46.7-5.5-46.7-12.3
			c0-0.8,0.3-1.6,0.9-2.4c-1.7,1.2-3.2,3.5-3.7,6.9c-0.5,3.2,0.9,6.7,2.8,8.5c5.8,5.5,20.9,10.4,46.5,10.5
			c26.9,0,40.9-4.9,46.7-10.4C100.9,132.8,102.4,129.2,102,126z"/>
	</g>
	<path class="st4" d="M85.3,112.7c-6,2.2-14.8,3.8-26.8,4.2v2.2c0,3.3-2.7,4-6,4c-3.3,0-6-0.7-6-4v-2.2c-12-0.4-20.2-2-26.3-4.2
		c-8.8,2.2-14.3,5.3-14.3,8.8c0,6.8,20.9,12.3,46.6,12.3s46.8-5.5,46.8-12.3C99.3,118,94,114.9,85.3,112.7z"/>
	<path class="st4" d="M52.9,117c-2.2,0-4.4-0.1-6.4-0.1v2.2c0,3.3,2.7,4,6,4c3.3,0,6-0.7,6-4v-2.2C56.5,116.9,54.9,117,52.9,117z"/>
	<path class="st4" d="M93.3,94.5c0.3,0.5,0.5,1.1,0.5,1.6c0,6-18.5,10.8-41.3,10.8s-41.3-4.9-41.3-10.8c0-0.6,0.2-1.1,0.5-1.6
		c-1.6,1.4-3,3.7-3,5.6c0,2.9,0.8,6.1,2.5,7.7c5.2,4.9,18.5,9.2,41.3,9.2c24,0,35.9-4.3,41-9.2c1.7-1.6,2.7-4.8,2.7-7.7
		C96.2,98.2,94.9,95.9,93.3,94.5z"/>
	<path class="st4" d="M58.5,85.4V93c0,3.3-2.7,4-6,4c-3.3,0-6-0.7-6-4v-7.6c-20,0.8-35.1,5.3-35.1,10.7c0,6,18.4,10.8,41.2,10.8
		s41.4-4.9,41.4-10.8C94.1,90.6,78.5,86.1,58.5,85.4z"/>
	<path class="st4" d="M85.1,65.2c0.1,0.3,0.2,0.7,0.2,1c0,4.8-14.7,8.6-32.8,8.6s-32.8-3.9-32.8-8.6c0-0.4,0.1-0.8,0.3-1.1
		c-1.2,1.2-2.3,3.2-2.3,4.8c0,2.5,0.4,5.4,1.8,6.8c4.1,4.2,14.6,6.9,32.6,6.9c20,0,28.6-2.7,32.7-6.9c1.3-1.4,2.2-4.3,2.2-6.8
		C87.1,68.3,86.2,66.4,85.1,65.2z"/>
	<path class="st4" d="M58.5,57.7V62c0,3.3-2.7,4-6,4c-3.3,0-6-0.7-6-4v-4.3c-15,0.8-26.6,4.3-26.6,8.4c0,4.8,14.6,8.6,32.7,8.6
		s33-3.9,33-8.6C85.6,61.9,73.5,58.4,58.5,57.7z"/>
	<path class="st4" d="M52.5,124.5c-4.1,0-7.4-1.6-7.4-3.6"/>
	<line class="st4" x1="56.4" y1="122.3" x2="56.4" y2="116.9"/>
	<path class="st4" d="M52.5,98.7c-4.1,0-7.4-1.6-7.4-3.6"/>
	<path class="st4" d="M52.5,83.5c-2.1,0-4,0-6-0.1V93c0,3.3,2.7,4,6,4c3.3,0,6-0.7,6-4v-9.6C56.5,83.5,54.6,83.5,52.5,83.5z"/>
	<path class="st4" d="M52.5,67.7c-4.1,0-7.4-1.6-7.4-3.6"/>
	<path class="st4" d="M52.5,37c-2.1,0-4-0.1-6-0.2V62c0,3.3,2.7,4,6,4c3.3,0,6-0.7,6-4V36.8C56.5,37,54.7,37,52.5,37z"/>
	<path class="st4" d="M52.5,24.7c-4.1,0-7.4-1.6-7.4-3.6"/>
	<path class="st4" d="M52.5,23L52.5,23c-3.3,0-6-0.7-6-4V7c0-3.3,2.7-6,6-6h0c3.3,0,6,2.7,6,6v12C58.5,22.3,55.8,23,52.5,23z"/>
	<path class="st5" d="M79.1,18c0,0,3.4,1.8,3.2,6.1"/>
	<path class="st4" d="M81.9,16.6c0,0,2,1.4,2.5,3.3"/>
	<path class="st4" d="M24.4,34.9c0,0-2-1.4-2.5-3.3"/>
	<path class="st4" d="M18.4,82.4c0,0-3.6-2-4.5-4.8"/>
	<g>
		<path class="st4" d="M7.9,111.8c0,0-4.8-2.5-4.7-7.4"/>
	</g>
	<path class="st5" d="M87.1,61.5c0,0,4.7,3.2,4.4,10.9"/>
	<path class="st4" d="M90.9,60.8c0,0,2.8,2.5,3.5,5.8"/>
	<path class="st5" d="M96.1,90.6c0,0,4.7,3.7,4.4,12.8"/>
	<path class="st4" d="M99.9,89.8c0,0,2.8,2.9,3.5,6.8"/>
	<ellipse transform="matrix(0.7071 -0.7071 0.7071 0.7071 11.1603 37.031)" class="st4" cx="50.3" cy="5" rx="2.9" ry="1.5"/>
	<line class="st4" x1="56.4" y1="9.1" x2="56.4" y2="22.1"/>
	<line class="st4" x1="56.4" y1="37.1" x2="56.4" y2="64.9"/>
	<line class="st4" x1="56.4" y1="96.3" x2="56.4" y2="83.5"/>
</g>
</svg>
