<?xml version="1.0" encoding="utf-8"?>
<!-- Generator: Adobe Illustrator 19.2.1, SVG Export Plug-In . SVG Version: 6.00 Build 0)  -->
<svg version="1.1" id="Слой_1" xmlns="http://www.w3.org/2000/svg" xmlns:xlink="http://www.w3.org/1999/xlink" x="0px" y="0px"
	 viewBox="0 0 102.5 233.1" style="enable-background:new 0 0 102.5 233.1;" xml:space="preserve">
<style type="text/css">
	.st0{fill:#004BA5;}
	.st1{fill:#72CDF4;}
	.st2{fill:#F8971D;}
	.st3{fill:#FFE06A;}
	.st4{fill:none;stroke:#000000;stroke-linecap:round;stroke-linejoin:round;stroke-miterlimit:10;}
	.st5{fill:none;stroke:#000000;stroke-width:2;stroke-linecap:round;stroke-linejoin:round;stroke-miterlimit:10;}
	.st6{fill:none;stroke:#000000;stroke-linecap:round;stroke-linejoin:round;stroke-dasharray:0,14.1335;}
	.st7{fill:none;stroke:#000000;stroke-linecap:round;stroke-linejoin:round;}
	.st8{fill:none;stroke:#000000;stroke-linecap:round;stroke-linejoin:round;stroke-dasharray:0,1.9842;}
	.st9{clip-path:url(#SVGID_2_);}
	.st10{clip-path:url(#SVGID_4_);}
	.st11{clip-path:url(#SVGID_6_);}
	.st12{clip-path:url(#SVGID_8_);}
	.st13{clip-path:url(#SVGID_10_);}
	.st14{clip-path:url(#SVGID_12_);}
	.st15{fill:none;}
	.st16{clip-path:url(#SVGID_14_);}
	.st17{clip-path:url(#SVGID_16_);}
	.st18{clip-path:url(#SVGID_18_);}
	.st19{fill:none;stroke:#000000;stroke-linecap:square;stroke-linejoin:round;stroke-miterlimit:10;}
	.st20{clip-path:url(#SVGID_20_);}
	.st21{clip-path:url(#SVGID_22_);}
	.st22{clip-path:url(#SVGID_24_);}
	.st23{clip-path:url(#SVGID_26_);}
	.st24{fill:none;stroke:#000000;stroke-linecap:round;stroke-linejoin:round;stroke-miterlimit:10;stroke-dasharray:0,2;}
</style>
<g>
	<path class="st4" d="M42.8,147.9c0,0-19.9-24.2-19.9-61.6s28.9-68.9,28.9-68.9s28.7,26.8,28.7,66.4s-19.4,64-19.4,64L42.8,147.9z"
		/>
	<path class="st4" d="M98.2,114.4L80,94.2c-0.7,8.2-2.2,15.6-4.1,22.2l10,10l7.7,33.4l5.2-0.5L98.2,114.4z"/>
	<path class="st4" d="M23.2,94.3L4.9,114.5l-0.7,44.8l5.4,0.6l7.9-33.2l9.9-9.9C25.4,110.1,23.8,102.6,23.2,94.3z"/>
	<line class="st4" x1="40.2" y1="32.9" x2="64.5" y2="33.2"/>
	<line class="st4" x1="37" y1="139.2" x2="66.5" y2="139.3"/>
	
		<ellipse transform="matrix(0.7071 -0.7071 0.7071 0.7071 -69.1675 71.4831)" class="st4" cx="51.7" cy="119.2" rx="12.2" ry="12.2"/>
	
		<ellipse transform="matrix(0.7071 -0.7071 0.7071 0.7071 -45.8551 61.7729)" class="st4" cx="51.6" cy="86.2" rx="12.2" ry="12.2"/>
	
		<ellipse transform="matrix(0.7071 -0.7071 0.7071 0.7071 -22.4189 52.2313)" class="st4" cx="51.8" cy="53.2" rx="12.2" ry="12.2"/>
	<g>
		<defs>
			<circle id="SVGID_1_" cx="51.7" cy="119.2" r="12.2"/>
		</defs>
		<clipPath id="SVGID_2_">
			<use xlink:href="#SVGID_1_"  style="overflow:visible;"/>
		</clipPath>
		<g class="st9">
			<circle class="st4" cx="51.9" cy="117.2" r="5.2"/>
			<path class="st4" d="M57.1,132.5H46.7c-1.7,0-3-1.4-3-3v-4.1c0-1.7,1.4-3,3-3h10.4c1.7,0,3,1.4,3,3v4.1
				C60.1,131.2,58.8,132.5,57.1,132.5z"/>
		</g>
	</g>
	<g>
		<defs>
			<circle id="SVGID_3_" cx="51.6" cy="86.2" r="12.2"/>
		</defs>
		<clipPath id="SVGID_4_">
			<use xlink:href="#SVGID_3_"  style="overflow:visible;"/>
		</clipPath>
		<g class="st10">
			<circle class="st4" cx="51.8" cy="84.2" r="5.2"/>
			<path class="st4" d="M57,99.5H46.6c-1.7,0-3-1.4-3-3v-4.1c0-1.7,1.4-3,3-3H57c1.7,0,3,1.4,3,3v4.1C60.1,98.2,58.7,99.5,57,99.5z"
				/>
		</g>
	</g>
	<g>
		<defs>
			<circle id="SVGID_5_" cx="51.8" cy="53.2" r="12.2"/>
		</defs>
		<clipPath id="SVGID_6_">
			<use xlink:href="#SVGID_5_"  style="overflow:visible;"/>
		</clipPath>
		<g class="st11">
			<circle class="st4" cx="52" cy="51.2" r="5.2"/>
			<path class="st4" d="M57.2,66.5H46.8c-1.7,0-3-1.4-3-3v-4.1c0-1.7,1.4-3,3-3h10.4c1.7,0,3,1.4,3,3v4.1
				C60.3,65.1,58.9,66.5,57.2,66.5z"/>
		</g>
	</g>
	
		<ellipse transform="matrix(0.7071 -0.7071 0.7071 0.7071 -69.1675 71.4831)" class="st4" cx="51.7" cy="119.2" rx="12.2" ry="12.2"/>
	
		<ellipse transform="matrix(0.7071 -0.7071 0.7071 0.7071 -45.8551 61.7729)" class="st4" cx="51.6" cy="86.2" rx="12.2" ry="12.2"/>
	
		<ellipse transform="matrix(0.7071 -0.7071 0.7071 0.7071 -22.4189 52.2313)" class="st4" cx="51.8" cy="53.2" rx="12.2" ry="12.2"/>
	<g>
		<path d="M51.8,155c9.4,0,17.1,11.1,17.1,24.9c0,13.7-17.1,51.8-17.1,51.8s-17.1-38.1-17.1-51.8C34.7,166.2,42.3,155,51.8,155
			 M51.8,153c-10.5,0-19.1,12.1-19.1,26.9c0,14,16.5,51,17.3,52.6c0.3,0.7,1,1.2,1.8,1.2s1.5-0.5,1.8-1.2
			c0.7-1.6,17.3-38.6,17.3-52.6C70.8,165.1,62.3,153,51.8,153L51.8,153z"/>
	</g>
	<path class="st4" d="M68.8,178.2c0,11.3-17.1,36-17.1,36s-17.1-24.6-17.1-36S42.3,155,51.8,155S68.8,166.9,68.8,178.2z"/>
	<g>
		<path d="M51.7,17.3c0,0,28.7,26.8,28.7,66.4c0,3.6-0.2,7.1-0.5,10.4l18.2,20.2l0.6,44.9l-5.2,0.5l-7.7-33.4l-10-10
			c-5.7,19.9-14.8,31.4-14.8,31.4l-18.3,0.1c0,0-9.5-11.6-15.4-31.1l-9.9,9.9l-7.9,33.2l-5.4-0.6l0.7-44.8l18.3-20.2
			c-0.2-2.6-0.3-5.3-0.3-8C22.9,48.9,51.7,17.3,51.7,17.3 M51.8,65.4c3.1,0,6.2-1.2,8.6-3.6c4.8-4.8,4.8-12.5,0-17.3
			C58.1,42.2,55,41,51.8,41s-6.2,1.2-8.6,3.6c-4.8,4.8-4.8,12.5,0,17.3C45.6,64.2,48.7,65.4,51.8,65.4 M51.6,98.4
			c3.1,0,6.2-1.2,8.6-3.6c4.8-4.8,4.8-12.5,0-17.3c-2.4-2.4-5.5-3.6-8.6-3.6s-6.2,1.2-8.6,3.6c-4.8,4.8-4.8,12.5,0,17.3
			C45.4,97.3,48.5,98.4,51.6,98.4 M51.7,131.4c3.1,0,6.2-1.2,8.6-3.6c4.8-4.8,4.8-12.5,0-17.3c-2.4-2.4-5.5-3.6-8.6-3.6
			c-3.1,0-6.2,1.2-8.6,3.6c-4.8,4.8-4.8,12.5,0,17.3C45.5,130.2,48.6,131.4,51.7,131.4 M51.7,15.3C51.7,15.3,51.7,15.3,51.7,15.3
			c-0.6,0-1.1,0.3-1.5,0.6c-0.3,0.3-7.4,8.2-14.7,20.8c-6.7,11.7-14.7,29.7-14.7,49.5c0,2.4,0.1,4.8,0.3,7.3L3.4,113.1
			c-0.3,0.4-0.5,0.8-0.5,1.3l-0.7,44.8c0,1,0.7,1.9,1.8,2l5.4,0.6c0.1,0,0.2,0,0.2,0c0.9,0,1.7-0.6,1.9-1.5l7.7-32.7l7.2-7.2
			c5.9,17.8,14.4,28.2,14.8,28.6c0.4,0.5,0.9,0.7,1.5,0.7c0,0,0,0,0,0l18.3-0.1c0.6,0,1.2-0.3,1.6-0.8c0.4-0.5,8.4-10.8,14.2-28.8
			l7.2,7.2l7.6,32.8c0.2,0.9,1,1.6,1.9,1.6c0.1,0,0.1,0,0.2,0l5.2-0.5c1-0.1,1.8-1,1.8-2l-0.6-44.9c0-0.5-0.2-1-0.5-1.3L82.1,93.5
			c0.3-3.2,0.4-6.5,0.4-9.7c0-20.9-8-38.2-14.7-49.1c-7.2-11.7-14.4-18.5-14.7-18.8C52.7,15.5,52.2,15.3,51.7,15.3L51.7,15.3z
			 M51.8,63.4c-2.7,0-5.3-1.1-7.2-3c-1.9-1.9-3-4.5-3-7.2c0-2.7,1.1-5.3,3-7.2c1.9-1.9,4.5-3,7.2-3c2.7,0,5.3,1.1,7.2,3
			c1.9,1.9,3,4.5,3,7.2c0,2.7-1.1,5.3-3,7.2C57.1,62.3,54.6,63.4,51.8,63.4L51.8,63.4z M51.6,96.4c-2.7,0-5.3-1.1-7.2-3
			c-4-4-4-10.5,0-14.4c1.9-1.9,4.5-3,7.2-3c2.7,0,5.3,1.1,7.2,3c4,4,4,10.5,0,14.4C56.9,95.4,54.4,96.4,51.6,96.4L51.6,96.4z
			 M51.7,129.4c-2.7,0-5.3-1.1-7.2-3c-4-4-4-10.5,0-14.4c1.9-1.9,4.5-3,7.2-3c2.7,0,5.3,1.1,7.2,3c4,4,4,10.5,0,14.4
			C57,128.4,54.4,129.4,51.7,129.4L51.7,129.4z"/>
	</g>
	<path class="st5" d="M36.6,20.8c0,0,6.6-14.4,14.9-14.4s14.9,14.4,14.9,14.4"/>
	<path class="st4" d="M59.2,4c0,0-3.8-3-7.7-3c-3.2,0-8.3,3.6-8.3,3.6"/>
	<g>
		<path class="st4" d="M1.1,168.1c0,0,4.7-3.1,9.8,2"/>
	</g>
	<g>
		<path class="st4" d="M92.5,169.1c0,0,4-3.9,10,0.1"/>
	</g>
</g>
</svg>
