<?xml version="1.0" encoding="utf-8"?>
<!-- Generator: Adobe Illustrator 19.2.1, SVG Export Plug-In . SVG Version: 6.00 Build 0)  -->
<svg version="1.1" id="Слой_1" xmlns="http://www.w3.org/2000/svg" xmlns:xlink="http://www.w3.org/1999/xlink" x="0px" y="0px"
	 viewBox="0 0 160.3 159.9" style="enable-background:new 0 0 160.3 159.9;" xml:space="preserve">
<style type="text/css">
	.st0{fill:#004BA5;}
	.st1{fill:#72CDF4;}
	.st2{fill:#F8971D;}
	.st3{fill:#FFE06A;}
	.st4{fill:none;stroke:#000000;stroke-linecap:round;stroke-linejoin:round;stroke-miterlimit:10;}
	.st5{fill:none;stroke:#000000;stroke-width:2;stroke-linecap:round;stroke-linejoin:round;stroke-miterlimit:10;}
	.st6{fill:none;stroke:#000000;stroke-linecap:round;stroke-linejoin:round;stroke-dasharray:0,14.1335;}
	.st7{fill:none;stroke:#000000;stroke-linecap:round;stroke-linejoin:round;}
	.st8{fill:none;stroke:#000000;stroke-linecap:round;stroke-linejoin:round;stroke-dasharray:0,1.9842;}
	.st9{clip-path:url(#SVGID_2_);}
	.st10{clip-path:url(#SVGID_4_);}
	.st11{clip-path:url(#SVGID_6_);}
	.st12{clip-path:url(#SVGID_8_);}
	.st13{clip-path:url(#SVGID_10_);}
	.st14{clip-path:url(#SVGID_12_);}
	.st15{fill:none;}
	.st16{clip-path:url(#SVGID_14_);}
	.st17{clip-path:url(#SVGID_16_);}
	.st18{clip-path:url(#SVGID_18_);}
	.st19{fill:none;stroke:#000000;stroke-linecap:square;stroke-linejoin:round;stroke-miterlimit:10;}
	.st20{clip-path:url(#SVGID_20_);}
	.st21{clip-path:url(#SVGID_22_);}
	.st22{clip-path:url(#SVGID_24_);}
	.st23{clip-path:url(#SVGID_26_);}
	.st24{fill:none;stroke:#000000;stroke-linecap:round;stroke-linejoin:round;stroke-miterlimit:10;stroke-dasharray:0,2;}
</style>
<g>
	<g>
		<path class="st4" d="M84.5,29.9v-6.3c0,0,0-0.2,0-0.2c0-0.5-0.7-0.9-1.7-1.1c1-0.4,1.7-1.1,1.7-1.8c0-0.8-0.8-1.5-2-1.9
			c1.2-1.6,2-7.6,2-10.8c0-5-1.9-5.8-4.2-5.8c-2.3,0-4.2,0.9-4.2,5.8c0,3.2,0.8,9.2,2,10.8c-1.2,0.4-2,1.1-2,1.9c0,0.7,1,1.4,2,1.8
			c-1,0.3-1.5,0.7-1.5,1.1c0,0,0,0.2,0,0.2v6.3"/>
		<path class="st4" d="M84.5,132.9v5.2c0,0,0,0.2,0,0.2c0,0.5-0.7,0.9-1.7,1.1c1,0.4,1.7,1.1,1.7,1.8c0,0.8-0.8,1.5-2,1.9
			c1.2,1.6,2,7.6,2,10.8c0,5-1.9,5.8-4.2,5.8c-2.3,0-4.2-0.9-4.2-5.8c0-3.2,0.8-9.2,2-10.8c-1.2-0.4-2-1.1-2-1.9c0-0.7,1-1.4,2-1.8
			c-1-0.3-1.5-0.7-1.5-1.1c0,0,0-0.2,0-0.2v-5.2"/>
	</g>
	<g>
		<path class="st4" d="M29,77.4h-6.1c0,0-0.2-0.4-0.2-0.4c-0.5,0-0.9,0.5-1.1,1.5c-0.4-1-1.1-1.8-1.8-1.8c-0.8,0-1.5,0.8-1.9,1.9
			c-1.6-1.2-7.6-2-10.8-2c-5,0-5.8,1.9-5.8,4.2c0,2.3,0.9,4.2,5.8,4.2c3.2,0,9.2-0.8,10.8-2c0.4,1.2,1.1,2,1.9,2
			c0.7,0,1.4-0.5,1.8-1.6c0.3,1,0.7,1.9,1.1,1.9c0,0,0.2,0,0.2,0H29"/>
		<path class="st4" d="M132,77.4h5.4c0,0,0.2-0.4,0.2-0.4c0.5,0,0.9,0.5,1.1,1.5c0.4-1,1.1-1.8,1.8-1.8c0.8,0,1.5,0.8,1.9,1.9
			c1.6-1.2,7.6-2,10.8-2c5,0,5.8,1.9,5.8,4.2c0,2.3-0.9,4.2-5.8,4.2c-3.2,0-9.2-0.8-10.8-2c-0.4,1.2-1.1,2-1.9,2
			c-0.7,0-1.4-0.5-1.8-1.6c-0.3,1-0.7,1.9-1.1,1.9c0,0-0.2,0-0.2,0H132"/>
	</g>
	<g>
		<path class="st4" d="M40.9,114.2l-4.2,4.2c0,0-0.2,0.1-0.2,0.1c-0.3,0.3-0.2,1.1,0.4,2c-1-0.4-2-0.5-2.5,0
			c-0.6,0.6-0.5,1.6,0.1,2.8c-2,0.3-6.8,4-9.1,6.2c-3.5,3.5-2.8,5.5-1.1,7.1c1.7,1.7,3.6,2.4,7.1-1.1c2.3-2.3,5.9-7.1,6.2-9
			c1.1,0.6,2.2,0.6,2.8,0.1c0.5-0.5,0.5-1.5,0.1-2.5c0.9,0.5,1.7,0.8,2,0.5c0,0,0.2-0.2,0.2-0.2l4.2-4.2"/>
		<path class="st4" d="M113.5,41.6l4.2-4.2c0,0,0.1-0.2,0.1-0.2c0.3-0.3,1.1-0.2,2,0.4c-0.4-1-0.5-2,0-2.5c0.6-0.6,1.6-0.5,2.8,0.1
			c0.3-2,4-6.8,6.2-9.1c3.5-3.5,5.5-2.8,7.1-1.1c1.7,1.7,2.4,3.6-1.1,7.1c-2.3,2.3-7.1,5.9-9,6.2c0.6,1.1,0.6,2.2,0.1,2.8
			c-0.5,0.5-1.5,0.5-2.5,0.1c0.5,0.9,0.8,1.7,0.5,2c0,0-0.2,0.2-0.2,0.2l-4.2,4.2"/>
	</g>
	<g>
		<path class="st4" d="M113.5,120.1l4.2,4.2c0,0,0.1,0.2,0.1,0.2c0.3,0.3,1.1,0.2,2-0.4c-0.4,1-0.5,2,0,2.5c0.6,0.6,1.6,0.5,2.8-0.1
			c0.3,2,4,6.8,6.2,9.1c3.5,3.5,5.5,2.8,7.1,1.1s2.4-3.6-1.1-7.1c-2.3-2.3-7.1-5.9-9-6.2c0.6-1.1,0.6-2.2,0.1-2.8
			c-0.5-0.5-1.5-0.5-2.5-0.1c0.5-0.9,0.8-1.7,0.5-2c0,0-0.2-0.2-0.2-0.2l-4.2-4.2"/>
		<path class="st4" d="M40.9,47.5l-4.2-4.2c0,0-0.2-0.1-0.2-0.1c-0.3-0.3-0.2-1.1,0.4-2c-1,0.4-2,0.5-2.5,0
			c-0.6-0.6-0.5-1.6,0.1-2.8c-2-0.3-6.8-4-9.1-6.2c-3.5-3.5-2.8-5.5-1.1-7.1c1.7-1.7,3.6-2.4,7.1,1.1c2.3,2.3,5.9,7.1,6.2,9
			c1.1-0.6,2.2-0.6,2.8-0.1c0.5,0.5,0.5,1.5,0.1,2.5c0.9-0.5,1.7-0.8,2-0.5c0,0,0.2,0.2,0.2,0.2l4.2,4.2"/>
	</g>
	<g>
		<path class="st4" d="M84.5,41.4c8,0.8,14.9,3.9,20.8,8.6l1.9-1.9c-6.3-5.2-13.7-8.5-22.7-9.3V41.4z"/>
		<path class="st4" d="M55.4,50c5.8-4.7,13.1-7.8,21.1-8.6v-2.7c-9,0.8-16.5,4.2-22.9,9.4L55.4,50z"/>
		<path class="st4" d="M122.4,85.4h-2.7c-0.8,8-3.9,14.9-8.6,20.7l1.9,2C118.2,101.7,121.6,93.4,122.4,85.4z"/>
		<path class="st4" d="M113,54.2l-1.9,2c4.8,5.9,7.9,13.1,8.7,21.1h2.7C121.7,68.4,118.3,60.6,113,54.2z"/>
		<path class="st4" d="M105.3,111.8c-5.8,4.7-12.8,7.8-20.8,8.6v2.7c9-0.8,16.4-4.2,22.7-9.3L105.3,111.8z"/>
		<path class="st4" d="M76.5,120.4c-8-0.8-15.2-3.9-21.1-8.6l-1.8,1.9c6.3,5.2,13.9,8.6,22.9,9.4V120.4z"/>
		<path class="st4" d="M49.3,106c-4.7-5.8-7.8-12.6-8.5-20.6h-2.7c0.8,8,4.2,16.3,9.3,22.6L49.3,106z"/>
		<path class="st4" d="M38.1,77.4h2.7c0.8-8,3.9-15.3,8.6-21.1l-1.9-1.8C42.3,60.8,38.9,68.4,38.1,77.4z"/>
	</g>
	<circle class="st5" cx="80.3" cy="80.9" r="21.2"/>
	<path class="st4" d="M36,85.4h7.3c0,0,0.1,0,0.1,0c0.6,0,1.1-1.5,1.3-3.3c0.6,1,2,1.7,3.6,1.7s3-0.6,3.6-1.7
		c0.2,1.7,0.8,3.2,1.4,3.2c0,0,0.2,0,0.2,0h5.9c-0.3-2-0.4-2.7-0.4-4.1c0-1.3,0.1-2.9,0.4-3.9h-5.9c0,0-0.2-0.4-0.2-0.4
		c-0.6,0-1.1,1-1.3,2.7c-0.6-1-2-1.9-3.6-1.9c-1.6,0-3,0.7-3.6,1.7C44.6,77.9,44,77,43.4,77c0,0-0.2,0.3-0.2,0.3H36"/>
	<path class="st4" d="M52.1,115l5-5c0,0,0.1-0.1,0.1-0.1c0.4-0.4-0.2-1.8-1.3-3.1c1.2,0.3,2.7-0.2,3.8-1.3c1.1-1.1,1.6-2.6,1.3-3.8
		c1.4,1.1,2.8,1.7,3.2,1.3c0,0,0.2-0.2,0.2-0.2l4.2-4.2c-2.4-1.6-4.4-3.6-6-6l-4.2,4.2c0,0-0.1,0.1-0.2,0.2c-0.4,0.4,0,1.6,1.1,3
		c-1.2-0.3-2.7,0.2-3.8,1.3c-1.1,1.1-1.6,2.6-1.3,3.8c-1.4-1.1-2.6-1.6-3-1.1c0,0-0.1,0.1-0.1,0.1l-5,5"/>
	<path class="st4" d="M84.5,125.9v-8.6c0,0,0-0.1,0-0.2c0-0.6-1.2-1.1-2.9-1.3c1-0.6,1.7-2,1.7-3.6s-0.8-3-1.8-3.6
		c1.7-0.2,3-0.7,3-1.3c0,0,0-0.2,0-0.2v-5.3c-1,0.2-2.6,0.4-3.9,0.4c-1.4,0-3.1-0.1-4.1-0.4v5.3c0,0,0,0.2,0,0.2
		c0,0.6,1.1,1.2,2.9,1.4c-1,0.6-1.9,2-1.9,3.6s0.9,3,1.9,3.6c-1.7,0.2-2.9,0.7-2.9,1.3c0,0,0,0.1,0,0.1v8.6"/>
	<path class="st4" d="M114.2,109l-5-5c0,0-0.1-0.1-0.1-0.1c-0.4-0.4-1.8,0.2-3.1,1.3c0.3-1.2-0.2-2.7-1.3-3.8
		c-1.1-1.1-2.6-1.6-3.8-1.3c1.1-1.4,1.7-2.8,1.3-3.2c0,0-0.2-0.2-0.2-0.2l-4.1-4.1c-1.6,2.4-3.6,4.4-6,6l4.1,4.1
		c0,0,0.1,0.1,0.2,0.2c0.4,0.4,1.6,0,3-1.1c-0.3,1.2,0.2,2.7,1.3,3.8c1.1,1.1,2.6,1.6,3.8,1.3c-1.1,1.4-1.6,2.6-1.1,3
		c0,0,0.1,0.1,0.1,0.1l5,5"/>
	<path class="st4" d="M123,77.4h-6.4c0,0-0.1-0.4-0.2-0.4c-0.6,0-1.1,0.9-1.3,2.7c-0.6-1-2-1.8-3.6-1.8s-3,0.7-3.6,1.8
		c-0.2-1.7-0.7-2.6-1.3-2.6c0,0-0.2,0.4-0.2,0.4h-5.2c0.2,1,0.4,2.6,0.4,3.9c0,1.4-0.1,2.1-0.4,4.1h5.2c0,0,0.2,0,0.2,0
		c0.6,0,1.2-1.5,1.4-3.3c0.6,1,2,1.7,3.6,1.7c1.6,0,3-0.6,3.6-1.7c0.2,1.7,0.7,3.2,1.3,3.2c0,0,0.1,0,0.1,0h6.4"/>
	<path class="st4" d="M108.3,46.8l-5.3,5.3c0,0-0.1,0.1-0.1,0.1c-0.4,0.4,0,1.6,1.1,3c-1.2-0.3-2.7,0.2-3.8,1.3
		c-1.1,1.1-1.6,2.7-1.3,3.8c-1.4-1.1-2.6-1.6-3-1.1c0,0-0.2,0.2-0.2,0.2l-3.7,3.7c2.4,1.6,4.4,3.6,6,6l3.7-3.7c0,0,0.1-0.1,0.2-0.2
		c0.4-0.4-0.1-1.8-1.3-3.2c1.2,0.3,2.7-0.2,3.8-1.3c1.1-1.1,1.6-2.6,1.3-3.8c1.4,1.1,2.7,1.7,3.1,1.3c0,0,0.1-0.1,0.1-0.1l5.3-5.3"
		/>
	<path class="st4" d="M76.5,38.9V44c0,0,0,0.1,0,0.1c0,0.6,1.1,1.1,2.9,1.3c-1,0.6-1.9,2-1.9,3.6s0.9,3,2,3.6
		c-1.7,0.2-2.9,0.8-2.9,1.4c0,0,0,0.2,0,0.2v5.8c1-0.3,2.7-0.4,4.1-0.4c1.4,0,2.9,0.1,3.9,0.4v-5.8c0,0,0-0.2,0-0.2
		c0-0.6-1.2-1.1-2.9-1.3c1-0.6,1.8-2,1.8-3.6s-0.7-3-1.8-3.6c1.7-0.2,3-0.7,3-1.3c0,0,0-0.2,0-0.2v-5.1"/>
	<path class="st4" d="M46.1,52.8l5.3,5.3c0,0,0.1,0.1,0.1,0.1c0.4,0.4,1.6,0,3-1.1c-0.3,1.2,0.2,2.7,1.3,3.8
		c1.1,1.1,2.7,1.6,3.8,1.3c-1.1,1.4-1.6,2.6-1.1,3c0,0,0.2,0.2,0.2,0.2l3.8,3.8c1.6-2.4,3.6-4.4,6-6l-3.8-3.8c0,0-0.1-0.1-0.2-0.2
		c-0.4-0.4-1.8,0.1-3.2,1.3c0.3-1.2-0.2-2.7-1.3-3.8c-1.1-1.1-2.6-1.6-3.8-1.3c1.1-1.4,1.7-2.7,1.3-3.1c0,0-0.1-0.1-0.1-0.1
		l-5.3-5.3"/>
	<path class="st5" d="M154.2,76.6c-3.2,0-9.2,0.8-10.8,2c-0.4-1.2-1.1-2-1.9-2c-0.7,0-1.4,0.7-1.8,1.8c-0.3-1.1-0.7-1.2-1.1-1.2
		c0,0-0.2,0.6-0.2,0.6h-4.4c-0.9-12-5.4-22.6-12.5-30.9l3.1-3.4c0,0,0.1-0.3,0.2-0.3c0.3-0.3,0.1-1.2-0.5-2.1c1,0.5,2,0.4,2.5-0.1
		c0.6-0.6,0.5-1.6-0.1-2.8c2-0.3,6.8-4,9-6.2c3.5-3.5,2.8-5.5,1.1-7.1s-3.6-2.4-7.1,1.1c-2.3,2.3-5.9,7.1-6.2,9
		c-1.1-0.6-2.2-0.6-2.8-0.1c-0.5,0.5-0.5,1.5,0,2.5c-0.9-0.6-1.7-0.7-2-0.4c0,0-0.1,0.2-0.1,0.2l-3.7,3.1C106.6,33.5,96,29,84,28.1
		v-4.5c0,0,0.6-0.2,0.6-0.2c0-0.5-0.3-0.9-1.4-1.1c1-0.4,1.9-1.1,1.9-1.8c0-0.8-0.7-1.5-1.9-1.9c1.2-1.6,2-7.6,2-10.8
		c0-5-1.9-5.8-4.2-5.8s-4.2,0.9-4.2,5.8c0,3.2,0.8,9.2,2,10.8c-1.2,0.4-2,1.1-2,1.9c0,0.7,0.3,1.4,1.3,1.8c-1,0.3-2.1,0.7-2.1,1.1
		c0,0,0,0.2,0,0.2v4.6C65,29,54.6,33.5,46.3,40.6l-3-3.3c0,0,0-0.1,0-0.2c-0.3-0.3-1.1-0.1-2,0.5c0.5-1,0.5-2,0-2.5
		c-0.6-0.6-1.6-0.5-2.7,0.1c-0.3-2-3.9-6.8-6.2-9c-3.5-3.5-5.5-2.8-7.1-1.1c-1.7,1.7-2.4,3.6,1.1,7.1c2.3,2.3,7.1,5.9,9.1,6.2
		c-0.6,1.1-0.6,2.2-0.1,2.8c0.5,0.5,1.5,0.5,2.5,0c-0.6,0.9-0.7,1.7-0.4,2c0,0,0.2,0.1,0.2,0.1l3.3,3.7
		c-7.1,8.3-11.6,18.8-12.5,30.8h-4.6c0,0-0.2-0.6-0.2-0.6c-0.5,0-0.9,0.3-1.1,1.4c-0.4-1-1.1-1.9-1.8-1.9c-0.8,0-1.5,0.7-1.9,1.9
		c-1.6-1.2-7.6-2-10.8-2c-5,0-5.8,1.9-5.8,4.2c0,2.3,0.9,4.2,5.8,4.2c3.2,0,9.2-0.8,10.8-2c0.4,1.2,1.1,2,1.9,2
		c0.7,0,1.4-0.3,1.8-1.3c0.3,1,0.7,2.1,1.1,2.1c0,0,0.2,0,0.2,0h4.6c0.9,11,5.4,21.5,12.4,29.7l-3.2,3c0,0-0.2,0-0.2,0
		c-0.3,0.3-0.2,1,0.4,1.9c-1-0.4-2-0.5-2.5,0c-0.6,0.6-0.5,1.6,0.1,2.7c-2,0.3-6.8,3.9-9.1,6.2c-3.5,3.5-2.8,5.5-1.1,7.1
		c1.7,1.7,3.6,2.4,7.1-1.1c2.3-2.3,5.9-7.1,6.2-9.1c1.1,0.6,2.2,0.6,2.8,0.1c0.5-0.5,0.5-1.5,0.1-2.5c0.9,0.5,1.7,0.8,2,0.5
		c0,0,0.2-0.2,0.2-0.2l2.7-3.2c8.3,7.1,18.8,11.6,29.8,12.5v4.4c0,0,0,0.2,0,0.2c0,0.4,1.1,0.8,2.1,1.1c-1,0.4-1.6,1.1-1.6,1.8
		c0,0.8,0.9,1.5,2.1,1.9c-1.2,1.6-1.9,7.6-1.9,10.8c0,5,1.9,5.8,4.3,5.8s4.3-0.9,4.3-5.8c0-3.2-0.8-9.2-2-10.8c1.2-0.4,2-1.1,2-1.9
		c0-0.7-0.7-1.4-1.7-1.8c1.1-0.3,1.1-0.7,1.1-1.1c0,0-0.6-0.2-0.6-0.2v-4.4c12-0.9,22.6-5.4,30.9-12.5l3.4,3.1c0,0,0.2,0.2,0.3,0.2
		c0.3,0.3,1.1,0.2,2.1-0.4c-0.4,1-0.4,2,0.1,2.5c0.6,0.6,1.6,0.5,2.8-0.1c0.3,2,4,6.8,6.2,9.1c3.5,3.5,5.5,2.8,7.1,1.1
		c1.7-1.7,2.4-3.6-1.1-7.1c-2.3-2.3-7.1-5.9-9-6.2c0.6-1.1,0.6-2.2,0.1-2.8c-0.5-0.5-1.5-0.5-2.5-0.1c0.5-0.9,0.8-1.7,0.5-2
		c0,0-0.2-0.2-0.2-0.2l-3.1-2.6c7-8.3,11.6-18.8,12.5-29.8h4.4c0,0,0.2,0,0.2,0c0.4,0,0.8-1.1,1.1-2.1c0.4,1,1.1,1.6,1.8,1.6
		c0.8,0,1.5-0.9,1.9-2.1c1.6,1.2,7.6,1.9,10.8,1.9c5,0,5.8-1.9,5.8-4.3C160,78.5,159.1,76.6,154.2,76.6z M101.5,81.3
		c0,1.6-0.2,2.6-0.5,4.6h6.2c0,0,0.2,0,0.2,0c0.6,0,1.2-1.8,1.4-3.5c0.6,1,2,1.6,3.6,1.6c1.6,0,3-0.4,3.6-1.5
		c0.2,1.7,0.7,3.4,1.3,3.4c0,0,0.1,0,0.1,0h5.9c-0.8,8-4.2,16-9.4,22.3l-3.8-4c0,0-0.1-0.2-0.1-0.2c-0.4-0.4-1.8,0.1-3.1,1.2
		c0.3-1.2-0.2-2.7-1.3-3.8c-1.1-1.1-2.6-1.6-3.8-1.3c1.1-1.4,1.7-2.8,1.3-3.2c0,0-0.2-0.2-0.2-0.2l-4.6-4.6
		c-1.5,2.4-3.5,4.5-5.8,6.2l4.5,4.5c0,0,0.1,0.1,0.2,0.2c0.4,0.4,1.6,0,3-1.1c-0.3,1.2,0.2,2.7,1.3,3.8c1.1,1.1,2.6,1.6,3.8,1.3
		c-1.1,1.4-1.6,2.6-1.1,3c0,0,0.1,0.1,0.1,0.1l3.2,3.7C101,118.9,93,122.3,84,123v-5.8c0,0,0.6-0.1,0.6-0.2c0-0.6-0.8-1.1-2.6-1.3
		c1-0.6,1.9-2,1.9-3.6s-0.7-3-1.7-3.6c1.7-0.2,2.4-0.7,2.4-1.3c0,0-0.6-0.2-0.6-0.2v-5.2c-1,0.2-2.3,0.3-3.4,0.3
		c-1.6,0-3.6-0.2-4.6-0.5v5.4c0,0,0,0.2,0,0.2c0,0.6,1.8,1.2,3.6,1.4c-1,0.6-1.6,2-1.6,3.6s0.4,3,1.4,3.6c-1.7,0.2-3.4,0.7-3.4,1.3
		c0,0,0,0.1,0,0.1v5.8c-8-0.8-15.9-4.2-22.3-9.4l3.9-3.6c0,0,0.2-0.1,0.2-0.1c0.4-0.4-0.1-1.8-1.2-3.1c1.2,0.3,2.7-0.2,3.9-1.3
		c1.1-1.1,1.6-2.6,1.3-3.8c1.4,1.1,2.8,1.7,3.2,1.3c0,0,0.2-0.2,0.2-0.2l3.9-3.9c-2.4-1.5-4.5-3.5-6.1-5.8l-3.7,3.7
		c0,0-0.1,0.1-0.2,0.2c-0.4,0.4,0,1.6,1.1,3c-1.2-0.3-2.7,0.2-3.8,1.3c-1.1,1.1-1.6,2.6-1.3,3.8c-1.4-1.1-2.6-1.6-3-1.1
		c0,0-0.1,0.1-0.1,0.1l-3.6,4.1c-5.1-6.3-8.5-14.2-9.3-22.2h5.1c0,0,0.1,0,0.1,0c0.6,0,1.1-1.8,1.3-3.5c0.6,1,2,1.6,3.6,1.6
		s3-0.4,3.6-1.5c0.2,1.7,0.8,3.4,1.4,3.4c0,0,0.2,0,0.2,0h5.2c-0.3-2-0.5-3-0.5-4.6c0-1.2,0.1-2.4,0.3-3.4h-5c0,0-0.2-0.6-0.2-0.6
		c-0.6,0-1.1,0.9-1.3,2.6c-0.6-1-2-1.9-3.6-1.9c-1.6,0-3,0.7-3.6,1.7c-0.2-1.7-0.7-2.3-1.3-2.3c0,0-0.2,0.6-0.2,0.6H39
		c0.8-9,4.2-16.9,9.3-23.3l4,3.8c0,0,0.1,0,0.1,0c0.4,0.4,1.6-0.1,3-1.2c-0.3,1.2,0.2,2.6,1.3,3.8c1.1,1.1,2.7,1.6,3.8,1.3
		c-1.1,1.4-1.6,2.6-1.1,3c0,0,0.2,0.2,0.2,0.2l3.3,3.3c1.6-2.3,3.7-4.3,6.2-5.8l-3.5-3.5c0,0-0.1-0.1-0.2-0.2
		c-0.4-0.4-1.8,0.1-3.2,1.3c0.3-1.2-0.2-2.7-1.3-3.8c-1.1-1.1-2.6-1.6-3.8-1.3c1.1-1.4,1.7-2.7,1.3-3.1c0,0-0.1-0.1-0.1-0.1l-4.6-4
		C60.1,43,68,39.6,76,38.7V44c0,0,0,0.1,0,0.1c0,0.6,1.8,1.1,3.5,1.3c-1,0.6-1.6,2-1.6,3.6s0.4,3,1.5,3.6C77.7,52.8,76,53.4,76,54
		c0,0,0,0.2,0,0.2v5.9c1-0.3,3-0.5,4.6-0.5c1.2,0,2.4,0.1,3.4,0.3v-5.7c0,0,0.6-0.2,0.6-0.2c0-0.6-0.9-1.1-2.6-1.3
		c1-0.6,1.9-2,1.9-3.6s-0.6-3-1.7-3.6c1.7-0.2,2.3-0.7,2.3-1.3c0,0-0.6-0.2-0.6-0.2v-5.2c9,0.8,17,4.2,23.3,9.3l-3.8,4.1
		c0,0,0.1,0.1,0,0.1c-0.4,0.4,0.1,1.6,1.2,3c-1.2-0.3-2.6,0.2-3.8,1.3c-1.1,1.1-1.6,2.7-1.3,3.8c-1.4-1.1-2.6-1.6-3-1.1
		c0,0-0.2,0.2-0.2,0.2l-4.1,4.1c2.3,1.6,4.3,3.7,5.8,6.2l4.3-4.3c0,0,0.1-0.1,0.2-0.2c0.4-0.4-0.1-1.8-1.3-3.2
		c1.2,0.3,2.7-0.2,3.8-1.3c1.1-1.1,1.6-2.6,1.3-3.8c1.4,1.1,2.7,1.7,3.1,1.3c0,0,0.1-0.1,0.1-0.1l4.1-3.7c5.2,6.4,8.6,14.4,9.4,23.4
		h-5.9c0,0-0.1-0.6-0.2-0.6c-0.6,0-1.1,0.8-1.3,2.5c-0.6-1-2-1.9-3.6-1.9s-3,0.7-3.6,1.7c-0.2-1.7-0.7-2.4-1.3-2.4
		c0,0-0.2,0.6-0.2,0.6h-6C101.3,78.9,101.5,80.2,101.5,81.3z"/>
	<g>
		<circle class="st4" cx="66.4" cy="80.8" r="2.1"/>
		<circle class="st4" cx="93.9" cy="80.8" r="2.1"/>
		<circle class="st4" cx="80.1" cy="94.6" r="2.1"/>
		<circle class="st4" cx="80.1" cy="67.1" r="2.1"/>
		<circle class="st4" cx="80.2" cy="80.8" r="4.2"/>
		<ellipse transform="matrix(0.7071 -0.7071 0.7071 0.7071 -37.7165 90.0564)" class="st4" cx="89.8" cy="90.6" rx="2.1" ry="2.1"/>
		<ellipse transform="matrix(0.7071 -0.7071 0.7071 0.7071 -29.654 70.592)" class="st4" cx="70.4" cy="71.1" rx="2.1" ry="2.1"/>
		<ellipse transform="matrix(0.7071 -0.7071 0.7071 0.7071 -23.953 84.3554)" class="st4" cx="89.8" cy="71.1" rx="2.1" ry="2.1"/>
		<ellipse transform="matrix(0.7071 -0.7071 0.7071 0.7071 -43.4175 76.293)" class="st4" cx="70.4" cy="90.6" rx="2.1" ry="2.1"/>
	</g>
	<g>
		<path class="st4" d="M22,143c0,0-3.7-2.1-4.8-5"/>
		<g>
			<path class="st5" d="M138.4,19c0,0,5.1,3,5.4,11"/>
			<path class="st4" d="M142.3,18c0,0,3,2.4,4,5.8"/>
		</g>
	</g>
</g>
</svg>
