<?xml version="1.0" encoding="utf-8"?>
<!-- Generator: Adobe Illustrator 19.2.1, SVG Export Plug-In . SVG Version: 6.00 Build 0)  -->
<svg version="1.1" id="Слой_1" xmlns="http://www.w3.org/2000/svg" xmlns:xlink="http://www.w3.org/1999/xlink" x="0px" y="0px"
	 viewBox="0 0 168.3 111.1" style="enable-background:new 0 0 168.3 111.1;" xml:space="preserve">
<style type="text/css">
	.st0{fill:#004BA5;}
	.st1{fill:#72CDF4;}
	.st2{fill:#F8971D;}
	.st3{fill:#FFE06A;}
	.st4{fill:none;stroke:#000000;stroke-linecap:round;stroke-linejoin:round;stroke-miterlimit:10;}
	.st5{fill:none;stroke:#000000;stroke-width:2;stroke-linecap:round;stroke-linejoin:round;stroke-miterlimit:10;}
	.st6{fill:none;stroke:#000000;stroke-linecap:round;stroke-linejoin:round;stroke-dasharray:0,14.1335;}
	.st7{fill:none;stroke:#000000;stroke-linecap:round;stroke-linejoin:round;}
	.st8{fill:none;stroke:#000000;stroke-linecap:round;stroke-linejoin:round;stroke-dasharray:0,1.9842;}
	.st9{clip-path:url(#SVGID_2_);}
	.st10{clip-path:url(#SVGID_4_);}
	.st11{clip-path:url(#SVGID_6_);}
	.st12{clip-path:url(#SVGID_8_);}
	.st13{clip-path:url(#SVGID_10_);}
	.st14{clip-path:url(#SVGID_12_);}
	.st15{fill:none;}
	.st16{clip-path:url(#SVGID_14_);}
	.st17{clip-path:url(#SVGID_16_);}
	.st18{clip-path:url(#SVGID_18_);}
	.st19{fill:none;stroke:#000000;stroke-linecap:square;stroke-linejoin:round;stroke-miterlimit:10;}
	.st20{clip-path:url(#SVGID_20_);}
	.st21{clip-path:url(#SVGID_22_);}
	.st22{clip-path:url(#SVGID_24_);}
	.st23{clip-path:url(#SVGID_26_);}
	.st24{fill:none;stroke:#000000;stroke-linecap:round;stroke-linejoin:round;stroke-miterlimit:10;stroke-dasharray:0,2;}
</style>
<g>
	<path class="st4" d="M42.9,53.3l15.9,1.9c0,0,13.7-9.1,22-13.7l-5.6-2.2"/>
	<ellipse transform="matrix(0.1172 -0.9931 0.9931 0.1172 -45.239 110.5743)" class="st4" cx="39.6" cy="80.7" rx="15" ry="15"/>
	<ellipse transform="matrix(0.1172 -0.9931 0.9931 0.1172 -45.239 110.5743)" class="st4" cx="39.6" cy="80.7" rx="9" ry="9"/>
	<ellipse transform="matrix(0.1172 -0.9931 0.9931 0.1172 31.5471 220.6385)" class="st4" cx="139.9" cy="92.6" rx="15" ry="15"/>
	<path class="st4" d="M66,53.9c0.6-0.5,1.3-1,2.1-1.5l1,2L66,53.9z"/>
	<ellipse transform="matrix(0.1172 -0.9931 0.9931 0.1172 31.5471 220.6385)" class="st4" cx="139.9" cy="92.6" rx="9" ry="9"/>
	<path class="st4" d="M101.7,49c-0.5-0.2-0.9-0.5-1.3-0.7L91,66.6c-0.4,0.7-0.1,1.6,0.6,2c0.7,0.4,1.6,0.1,2-0.7l9.4-18.3
		C102.6,49.4,102.1,49.2,101.7,49z"/>
	<g>
		<path class="st4" d="M93.8,61l2.9-5.6L66,54l-3.7,2.6l5.3,0.6c0,0-0.3-2.3,3.9-1.9c4.2,0.4,4.8,1.3,4.6,1.9
			c-0.2,0.6-0.2,1.7-0.2,1.7s12,1.3,17.8,2.1C93.8,61,93.8,61,93.8,61z"/>
		<path class="st4" d="M100,55.5l-2.9,5.7c5.4,0,11.8-1.3,16.4-2.5c5.5-1.5,19.3-1.7,19.3-1.7L100,55.5z"/>
	</g>
	<path class="st4" d="M101.7,49c-0.5-0.2-0.9-0.5-1.3-0.7L91,66.6c-0.4,0.7-0.1,1.6,0.7,2s1.6,0.1,2-0.7l9.4-18.3
		C102.6,49.4,102.1,49.2,101.7,49z"/>
	<ellipse transform="matrix(0.4563 -0.8898 0.8898 0.4563 57.4677 113.6819)" class="st4" cx="121.8" cy="9.8" rx="5" ry="15"/>
	<g>
		<path class="st4" d="M133.8,17.7c-2.6,0.9-8.4-0.4-14.3-3.4c-6.1-3.1-10.5-7.1-11.2-9.8l-0.5,12.8L89.3,35.1
			c-0.2,0.1-0.3,0.3-0.4,0.4l-0.1,0.1l0,0c0,0,0,0,0,0c-1.3,2.5,4.2,8.9,12.8,13.3s17,5.1,18.3,2.6c0.2-0.3,0.2-0.7,0.1-1.2l3.7-25
			L133.8,17.7z"/>
	</g>
	<g>
		<path d="M111.9,1.9c3,0,7.5,1.3,12.1,3.7c7.4,3.8,12.4,8.6,11.2,11.1c-0.2,0.5-0.7,0.8-1.3,1l-10,7.8l-3.7,24.9
			c0.1,0.4,0,0.8-0.1,1.2c-0.5,0.9-2,1.4-4.1,1.4c-3.3,0-8-1.1-12.9-3.4l-9.4,18.3c-0.3,0.5-0.8,0.8-1.3,0.8c-0.2,0-0.5-0.1-0.7-0.2
			c-0.7-0.4-1-1.3-0.7-2l9.4-18.3c-7.9-4.4-12.8-10-11.6-12.4c0,0,0,0,0,0c0,0,0,0.1,0,0.2l0,0l0,0c0,0,0,0,0,0l0.2-0.2
			c0.1-0.2,0.4-0.5,0.5-0.6l18.5-17.9l0.5-12.7c-0.1-0.5-0.2-0.8,0-1.2l0,0C108.8,2.4,110.1,1.9,111.9,1.9 M108.2,3.3
			C108.2,3.3,108.2,3.4,108.2,3.3L108.2,3.3L108.2,3.3 M111.9-0.1L111.9-0.1c-2.8,0-4.3,1-5,1.9c-0.3,0.3-0.5,0.6-0.6,1.1
			c0,0.2-0.1,0.4,0,0.6c0,0.4,0,0.8,0.1,1.2l-0.4,11.6L88,33.6c-0.2,0.2-0.4,0.4-0.6,0.7c-0.2,0.2-0.3,0.3-0.5,0.6c0,0,0,0,0,0
			c-2,3.8,3.7,9.8,10.7,14l-8.5,16.6c-0.4,0.8-0.5,1.8-0.2,2.7c0.3,0.9,0.9,1.6,1.7,2c0.5,0.3,1,0.4,1.6,0.4c1.3,0,2.5-0.7,3.1-1.9
			l8.5-16.6c4.3,1.8,8.7,2.8,12,2.8c3.1,0,5-0.8,5.9-2.5c0.3-0.6,0.5-1.3,0.4-2.1l3.6-23.9l9.1-7.1c1.2-0.5,1.8-1.3,2.1-1.9
			c0.7-1.4,0.9-3.9-2.7-7.4c-2.2-2.2-5.5-4.5-9.3-6.4C120,1.3,115.3-0.1,111.9-0.1L111.9-0.1z"/>
	</g>
	<path class="st4" d="M28.5,98.5c0,0-3.7-2.1-4.8-5"/>
	<path class="st4" d="M128.5,110.5c0,0-3.7-2.1-4.8-5"/>
	<g>
		<path class="st5" d="M135.9,6.4c0,0,5.1,3,5.4,11"/>
		<path class="st4" d="M139.8,5.5c0,0,3,2.4,4,5.8"/>
	</g>
	<g>
		<g>
			<path d="M78,38.6c0,0,2.6,0.4,5.3,1.8c2.7,1.3,0.1,2.6-6.2,6.2c-2.4,1.4-5.1,3.2-7.6,5l1.6,3.4c0.1,0,0.1,0.2,0.3,0.3l0,0
				c0.4,0,1.1,0,2.3,0.2c0.8,0.1,3.1,0.2,6.2,0.2c3.6,0,8.2-0.1,12-0.1c1.1,0,2.1,0,3.1,0l-5.5,10.6c-0.4,0.7-0.2,3.1,1.4,3.7
				c0.4,0.1,0.8,0.2,1.1,0.2c1.3,0,2.4-0.7,2.7-1.3l7.3-13.5c0.6,0,9.5,0.8,9.5,0.8c0.8,0,1.7-0.1,2.8-0.1c8.5,0,25.8,1.4,38,5.2
				c13.8,4.3,14.8,7.1,14.8,8.1c0.1,1-1.7,2.7-1.7,2.7s3,2.4,2,6.7c-1,4.3-2.2,10.5-2.2,10.5c1.4,0.7,0.6,2.3-1.8,7.3
				c-1.6,3.4-5.1,3.9-7.3,3.9c-1.1,0-1.9-0.2-1.9-0.2l0.1-1l-0.7-0.1c-2.3,5.2-7.7,9-13.8,9c-0.6,0-1.1,0-1.7-0.1
				c-6.7-0.8-11.8-6.1-13-12.2l-3.5-0.4l-0.1,1l-66.7-7.9l0.4-1.8l-1.6-0.4c-2.2,5.7-7.7,9.7-14,9.7c-0.6,0-1.2,0-1.8-0.1
				c-7.1-0.8-12.4-6.3-13.2-13.1l-0.3,0.2l-1.5-0.2l-0.1,2c0,0-17.6-4.3-19.4-4.6c-1.8-0.4-3-2.9-0.9-4.1s-0.2-4.4-0.3-7.3
				C2.1,65.8,3,61.7,3,61.7c8.3-6.7,39.6-8.2,39.6-8.2C58.8,43.8,78,38.6,78,38.6 M69.1,54.4l-1-2c-0.7,0.5-1.4,1-2.1,1.5L69.1,54.4
				 M78,36.6c-0.2,0-0.4,0-0.5,0.1C76.7,36.9,58.2,42,42,51.5c-4.2,0.2-32,2-40.2,8.7c-0.3,0.3-0.6,0.7-0.7,1.1c0,0.2-1,4.4-0.9,7.5
				C0.3,70,0.7,71.2,1,72.2c0.2,0.6,0.5,1.6,0.5,2c-1.5,0.9-2.3,2.5-2,4.1c0.3,1.8,1.7,3.3,3.5,3.7c1.8,0.4,19.2,4.6,19.4,4.6
				c0.2,0,0.3,0.1,0.5,0.1c0.2,0,0.5,0,0.7-0.1c2.1,6,7.5,10.4,14.1,11.2c0.7,0.1,1.3,0.1,2,0.1c5.7,0,11.1-3,14.2-7.7
				c0.2,0.1,0.5,0.2,0.8,0.3l66.7,7.9c0.1,0,0.2,0,0.2,0c0.4,0,0.9-0.2,1.2-0.4c0.1-0.1,0.3-0.2,0.4-0.4l0.4,0
				c1.8,6.6,7.6,11.6,14.4,12.4c0.6,0.1,1.3,0.1,2,0.1c5.7,0,11.2-3.1,14.4-7.9c0.4,0.1,1.1,0.1,2,0.1c4.3,0,7.6-1.8,9.1-5.1
				l0.2-0.5c2.1-4.3,2.9-6,2.3-7.7c-0.1-0.2-0.2-0.4-0.3-0.7c0.4-2,1.3-6.2,2-9.3c0.7-3.2-0.3-5.7-1.4-7.1c0.6-0.8,1.1-1.8,1-2.8
				c-0.1-2.3-2.1-5.5-16.2-9.9C140.5,55.4,123,54,114.3,54c-1,0-2,0-2.7,0.1c-2.8-0.3-8.9-0.8-9.5-0.8c0,0,0,0,0,0
				c-0.7,0-1.4,0.4-1.8,1L93,67.7c-0.1,0.1-0.5,0.3-1,0.3c-0.2,0-0.3,0-0.4-0.1c-0.2-0.1-0.3-0.7-0.3-1l5.4-10.5
				c0.3-0.6,0.3-1.4-0.1-1.9c-0.4-0.6-1-1-1.7-1c-0.9,0-2,0-3.1,0c-2,0-4.1,0-6.2,0c-2,0-4,0-5.8,0c-4.1,0-5.4-0.1-5.8-0.2
				c-0.6-0.1-1.2-0.2-1.6-0.2L72,52.2c2-1.4,4.1-2.8,6-3.9c0.5-0.3,1-0.6,1.5-0.9c4.9-2.8,6.9-3.9,6.8-6.1c0-1.2-0.8-2.1-2.2-2.8
				c-2.9-1.4-5.7-1.9-5.8-1.9C78.3,36.6,78.2,36.6,78,36.6L78,36.6z"/>
		</g>
	</g>
</g>
</svg>
