<?xml version="1.0" encoding="utf-8"?>
<!-- Generator: Adobe Illustrator 19.2.1, SVG Export Plug-In . SVG Version: 6.00 Build 0)  -->
<svg version="1.1" id="Слой_1" xmlns="http://www.w3.org/2000/svg" xmlns:xlink="http://www.w3.org/1999/xlink" x="0px" y="0px"
	 viewBox="0 0 168.3 111.1" style="enable-background:new 0 0 168.3 111.1;" xml:space="preserve">
<style type="text/css">
	.st0{fill:#004BA5;}
	.st1{fill:#72CDF4;}
	.st2{fill:#F8971D;}
	.st3{fill:#FFE06A;}
	.st4{fill:none;stroke:#000000;stroke-linecap:round;stroke-linejoin:round;stroke-miterlimit:10;}
	.st5{fill:none;stroke:#000000;stroke-width:2;stroke-linecap:round;stroke-linejoin:round;stroke-miterlimit:10;}
	.st6{fill:none;stroke:#000000;stroke-linecap:round;stroke-linejoin:round;stroke-dasharray:0,14.1335;}
	.st7{fill:none;stroke:#000000;stroke-linecap:round;stroke-linejoin:round;}
	.st8{fill:none;stroke:#000000;stroke-linecap:round;stroke-linejoin:round;stroke-dasharray:0,1.9842;}
	.st9{clip-path:url(#SVGID_2_);}
	.st10{clip-path:url(#SVGID_4_);}
	.st11{clip-path:url(#SVGID_6_);}
	.st12{clip-path:url(#SVGID_8_);}
	.st13{clip-path:url(#SVGID_10_);}
	.st14{clip-path:url(#SVGID_12_);}
	.st15{fill:none;}
	.st16{clip-path:url(#SVGID_14_);}
	.st17{clip-path:url(#SVGID_16_);}
	.st18{clip-path:url(#SVGID_18_);}
	.st19{fill:none;stroke:#000000;stroke-linecap:square;stroke-linejoin:round;stroke-miterlimit:10;}
	.st20{clip-path:url(#SVGID_20_);}
	.st21{clip-path:url(#SVGID_22_);}
	.st22{clip-path:url(#SVGID_24_);}
	.st23{clip-path:url(#SVGID_26_);}
	.st24{fill:none;stroke:#000000;stroke-linecap:round;stroke-linejoin:round;stroke-miterlimit:10;stroke-dasharray:0,2;}
</style>
<g>
	<path class="st0" d="M43.6,69c-8.2-1-15.7,4.9-16.7,13.1c-1,8.2,4.9,15.7,13.1,16.7c8.2,1,15.7-4.9,16.7-13.1
		C57.7,77.5,51.8,70,43.6,69z M50.7,85c-0.6,4.9-5.1,8.5-10,7.9c-4.9-0.6-8.5-5.1-7.9-10s5.1-8.5,10-7.9C47.8,75.6,51.3,80,50.7,85z
		"/>
	<path class="st0" d="M144.1,80c-8.2-1-15.7,4.9-16.7,13.1c-1,8.2,4.9,15.7,13.1,16.7c8.2,1,15.7-4.9,16.7-13.1
		C158.2,88.5,152.3,81,144.1,80z M151.2,96c-0.6,4.9-5.1,8.5-10,7.9c-4.9-0.6-8.5-5.1-7.9-10s5.1-8.5,10-7.9
		C148.3,86.6,151.8,91,151.2,96z"/>
	<path class="st1" d="M126.3,8.6c-7.3-3.8-14.3-4.8-15.6-2.4l-0.1,0l0,0.2c-0.2,0.4-0.2,0.8-0.1,1.3L110,20.4L91.6,38.3
		c-0.2,0.1-0.3,0.3-0.4,0.4l-0.1,0.1l0,0c0,0,0,0,0,0c-1.3,2.5,4.2,8.9,12.8,13.3c8.6,4.4,17,5.1,18.3,2.6c0.2-0.3,0.2-0.7,0.1-1.2
		l3.7-25l10-7.8c0.6-0.2,1.1-0.6,1.3-1C138.6,17.4,133.6,12.3,126.3,8.6z"/>
	<g>
		<g>
			<path class="st2" d="M166.7,75.1c0,0,1.7-1.7,1.7-2.7c-0.1-1-1.1-3.8-14.8-8.1c-13.8-4.3-33.3-6.1-40-5.7c0,0,0.5-1.3,0.5-2.9
				c-2.3-0.5-5-1.3-7.8-2.5c-0.7,0.8-1.2,1.8-1.6,2.5c-1.1,1.9-2.8,3.5-2.8,3.5s-1.8,0-4.5,0l-4.6,8.9c-0.4,0.7-1.3,1-2,0.7
				c-0.7-0.4-1-1.3-0.6-2l3.9-7.6c-7.4-0.1-17.5-0.3-19.2-0.6c-1.2-0.2-1.9-0.2-2.3-0.2l0,0c-0.2,0-0.3-0.3-0.3-0.3l-1.6-3.4
				c2.5-1.7,5.2-3.6,7.6-5c6.3-3.6,8.9-4.9,6.2-6.2c-2.7-1.3-5.3-1.8-5.3-1.8s-1,0.3-2.7,0.8l5.5,2.1c-8.3,4.6-22,13.7-22,13.7
				l-15.9-1.9l0-0.1c-0.1,0.1-0.2,0.1-0.3,0.2c0,0-31.2,1.5-39.6,8.2c0,0-1,4.1-0.8,6.9c0.2,2.9,2.5,6,0.3,7.3
				c-2.2,1.3-0.9,3.7,0.9,4.1S24,87.9,24,87.9l0.1-2l1.5,0.2l0.3-0.2c0,0.1,0,0.2,0,0.3c0,0,0,0,0,0c-0.2-1.3-0.2-2.6-0.1-3.9
				c1-8.2,8.4-14.1,16.7-13.1s14.1,8.4,13.1,16.7c-0.2,1.3-0.5,2.6-1,3.8c0,0,0,0,0,0c0,0,0-0.1,0-0.1l1.6,0.4L56,91.6l66.7,7.9
				l0.1-1l3.5,0.4c0.1,0.4,0.2,0.7,0.3,1.1c0-0.2,0-0.3,0-0.5c-0.5-1.8-0.6-3.6-0.4-5.5c1-8.2,8.4-14.1,16.7-13.1
				c8.2,1,14.1,8.4,13.1,16.7c-0.2,1.6-0.6,3.1-1.3,4.5c0,0.2-0.1,0.5-0.1,0.7c0.1-0.1,0.1-0.3,0.2-0.4l0.7,0.1l-0.1,1
				c0,0,6.8,1.3,9.3-3.8c2.4-5.1,3.3-6.7,1.8-7.3c0,0,1.2-6.2,2.2-10.5C169.7,77.5,166.7,75.1,166.7,75.1z M67.3,57
				c0.6-0.5,1.3-1,2.1-1.5l1,2L67.3,57z"/>
		</g>
	</g>
</g>
<g>
	<path class="st4" d="M42.6,53.4l15.9,1.9c0,0,13.7-9.1,22-13.7l-5.6-2.2"/>
	<ellipse transform="matrix(0.1172 -0.9931 0.9931 0.1172 -45.6726 110.2727)" class="st4" cx="39.2" cy="80.8" rx="15" ry="15"/>
	<ellipse transform="matrix(0.1172 -0.9931 0.9931 0.1172 -45.6726 110.2727)" class="st4" cx="39.2" cy="80.8" rx="9" ry="9"/>
	<ellipse transform="matrix(0.1172 -0.9931 0.9931 0.1172 31.1136 220.3369)" class="st4" cx="139.5" cy="92.7" rx="15" ry="15"/>
	<path class="st4" d="M65.6,53.9c0.6-0.5,1.3-1,2.1-1.5l1,2L65.6,53.9z"/>
	<ellipse transform="matrix(0.1172 -0.9931 0.9931 0.1172 31.1136 220.3369)" class="st4" cx="139.5" cy="92.7" rx="9" ry="9"/>
	<path class="st4" d="M101.3,49.1c-0.5-0.2-0.9-0.5-1.3-0.7l-9.4,18.3c-0.4,0.7-0.1,1.6,0.6,2c0.7,0.4,1.6,0.1,2-0.7l9.4-18.3
		C102.2,49.5,101.7,49.3,101.3,49.1z"/>
	<g>
		<path class="st4" d="M93.4,61.1l2.9-5.6l-30.7-1.4L62,56.7l5.3,0.6c0,0-0.3-2.3,3.9-1.9c4.2,0.4,4.8,1.3,4.6,1.9
			c-0.2,0.6-0.2,1.7-0.2,1.7s12,1.3,17.8,2.1C93.4,61.1,93.4,61.1,93.4,61.1z"/>
		<path class="st4" d="M99.6,55.6l-2.9,5.7c5.4,0,11.8-1.3,16.4-2.5c5.5-1.5,19.3-1.7,19.3-1.7L99.6,55.6z"/>
	</g>
	<path class="st4" d="M101.3,49.1c-0.5-0.2-0.9-0.5-1.3-0.7l-9.4,18.3c-0.4,0.7-0.1,1.6,0.7,2s1.6,0.1,2-0.7l9.4-18.3
		C102.2,49.5,101.7,49.3,101.3,49.1z"/>
	<ellipse transform="matrix(0.4563 -0.8898 0.8898 0.4563 57.1748 113.3887)" class="st4" cx="121.4" cy="9.9" rx="5" ry="15"/>
	<g>
		<path class="st4" d="M133.4,17.8c-2.6,0.9-8.4-0.4-14.3-3.4c-6.1-3.1-10.5-7.1-11.2-9.8l-0.5,12.8L89,35.2
			c-0.2,0.1-0.3,0.3-0.4,0.4l-0.1,0.1l0,0c0,0,0,0,0,0c-1.3,2.5,4.2,8.9,12.8,13.3s17,5.1,18.3,2.6c0.2-0.3,0.2-0.7,0.1-1.2l3.7-25
			L133.4,17.8z"/>
	</g>
	<g>
		<path d="M111.5,2c3,0,7.5,1.3,12.1,3.7c7.4,3.8,12.4,8.6,11.2,11.1c-0.2,0.5-0.7,0.8-1.3,1l-10,7.8l-3.7,24.9
			c0.1,0.4,0,0.8-0.1,1.2c-0.5,0.9-2,1.4-4.1,1.4c-3.3,0-8-1.1-12.9-3.4L93.1,68c-0.3,0.5-0.8,0.8-1.3,0.8c-0.2,0-0.5-0.1-0.7-0.2
			c-0.7-0.4-1-1.3-0.7-2l9.4-18.3c-7.9-4.4-12.8-10-11.6-12.4c0,0,0,0,0,0c0,0,0,0.1,0,0.2l0,0l0,0c0,0,0,0,0,0l0.2-0.2
			c0.1-0.2,0.4-0.5,0.5-0.6l18.5-17.9l0.5-12.7c-0.1-0.5-0.2-0.8,0-1.2l0,0C108.4,2.5,109.7,2,111.5,2 M107.8,3.4
			C107.8,3.4,107.8,3.4,107.8,3.4L107.8,3.4L107.8,3.4 M111.5,0L111.5,0c-2.8,0-4.3,1-5,1.9c-0.3,0.3-0.5,0.6-0.6,1.1
			c0,0.2-0.1,0.4,0,0.6c0,0.4,0,0.8,0.1,1.2l-0.4,11.6L87.6,33.7c-0.2,0.2-0.4,0.4-0.6,0.7c-0.2,0.2-0.3,0.3-0.5,0.6c0,0,0,0,0,0
			c-2,3.8,3.7,9.8,10.7,14l-8.5,16.6c-0.4,0.8-0.5,1.8-0.2,2.7c0.3,0.9,0.9,1.6,1.7,2c0.5,0.3,1,0.4,1.6,0.4c1.3,0,2.5-0.7,3.1-1.9
			l8.5-16.6c4.3,1.8,8.7,2.8,12,2.8c3.1,0,5-0.8,5.9-2.5c0.3-0.6,0.5-1.3,0.4-2.1l3.6-23.9l9.1-7.1c1.2-0.5,1.8-1.3,2.1-1.9
			c0.7-1.4,0.9-3.9-2.7-7.4c-2.2-2.2-5.5-4.5-9.3-6.4C119.6,1.4,114.9,0,111.5,0L111.5,0z"/>
	</g>
	<path class="st4" d="M28.1,98.6c0,0-3.7-2.1-4.8-5"/>
	<path class="st4" d="M128.1,110.6c0,0-3.7-2.1-4.8-5"/>
	<g>
		<path class="st5" d="M135.5,6.5c0,0,5.1,3,5.4,11"/>
		<path class="st4" d="M139.4,5.6c0,0,3,2.4,4,5.8"/>
	</g>
	<g>
		<g>
			<path d="M77.6,38.7c0,0,2.6,0.4,5.3,1.8c2.7,1.3,0.1,2.6-6.2,6.2c-2.4,1.4-5.1,3.2-7.6,5l1.6,3.4c0.1,0,0.1,0.2,0.3,0.3l0,0
				c0.4,0,1.1,0,2.3,0.2c0.8,0.1,3.1,0.2,6.2,0.2c3.6,0,8.2-0.1,12-0.1c1.1,0,2.1,0,3.1,0L89,66.2c-0.4,0.7-0.2,3.1,1.4,3.7
				c0.4,0.1,0.8,0.2,1.1,0.2c1.3,0,2.4-0.7,2.7-1.3l7.3-13.5c0.6,0,9.5,0.8,9.5,0.8c0.8,0,1.7-0.1,2.8-0.1c8.5,0,25.8,1.4,38,5.2
				c13.8,4.3,14.8,7.1,14.8,8.1c0.1,1-1.7,2.7-1.7,2.7s3,2.4,2,6.7c-1,4.3-2.2,10.5-2.2,10.5c1.4,0.7,0.6,2.3-1.8,7.3
				c-1.6,3.4-5.1,3.9-7.3,3.9c-1.1,0-1.9-0.2-1.9-0.2l0.1-1l-0.7-0.1c-2.3,5.2-7.7,9-13.8,9c-0.6,0-1.1,0-1.7-0.1
				c-6.7-0.8-11.8-6.1-13-12.2l-3.5-0.4l-0.1,1l-66.7-7.9l0.4-1.8l-1.6-0.4C51,92,45.4,96,39.2,96c-0.6,0-1.2,0-1.8-0.1
				C30.4,95,25,89.5,24.3,82.7L24,82.9l-1.5-0.2l-0.1,2c0,0-17.6-4.3-19.4-4.6c-1.8-0.4-3-2.9-0.9-4.1S2,71.6,1.8,68.7
				c-0.2-2.9,0.8-6.9,0.8-6.9c8.3-6.7,39.6-8.2,39.6-8.2C58.4,43.9,77.6,38.7,77.6,38.7 M68.7,54.5l-1-2c-0.7,0.5-1.4,1-2.1,1.5
				L68.7,54.5 M77.6,36.7c-0.2,0-0.4,0-0.5,0.1c-0.8,0.2-19.3,5.3-35.5,14.8c-4.2,0.2-32,2-40.2,8.7c-0.3,0.3-0.6,0.7-0.7,1.1
				c0,0.2-1,4.4-0.9,7.5c0.1,1.2,0.4,2.4,0.8,3.5c0.2,0.6,0.5,1.6,0.5,2c-1.5,0.9-2.3,2.5-2,4.1c0.3,1.8,1.7,3.3,3.5,3.7
				c1.8,0.4,19.2,4.6,19.4,4.6c0.2,0,0.3,0.1,0.5,0.1c0.2,0,0.5,0,0.7-0.1c2.1,6,7.5,10.4,14.1,11.2c0.7,0.1,1.3,0.1,2,0.1
				c5.7,0,11.1-3,14.2-7.7c0.2,0.1,0.5,0.2,0.8,0.3l66.7,7.9c0.1,0,0.2,0,0.2,0c0.4,0,0.9-0.2,1.2-0.4c0.1-0.1,0.3-0.2,0.4-0.4
				l0.4,0c1.8,6.6,7.6,11.6,14.4,12.4c0.6,0.1,1.3,0.1,2,0.1c5.7,0,11.2-3.1,14.4-7.9c0.4,0.1,1.1,0.1,2,0.1c4.3,0,7.6-1.8,9.1-5.1
				l0.2-0.5c2.1-4.3,2.9-6,2.3-7.7c-0.1-0.2-0.2-0.4-0.3-0.7c0.4-2,1.3-6.2,2-9.3c0.7-3.2-0.3-5.7-1.4-7.1c0.6-0.8,1.1-1.8,1-2.8
				c-0.1-2.3-2.1-5.5-16.2-9.9c-12.4-3.9-29.9-5.3-38.6-5.3c-1,0-2,0-2.7,0.1c-2.8-0.3-8.9-0.8-9.5-0.8c0,0,0,0,0,0
				c-0.7,0-1.4,0.4-1.8,1l-7.3,13.4c-0.1,0.1-0.5,0.3-1,0.3c-0.2,0-0.3,0-0.4-0.1c-0.2-0.1-0.3-0.7-0.3-1l5.4-10.5
				c0.3-0.6,0.3-1.4-0.1-1.9c-0.4-0.6-1-1-1.7-1c-0.9,0-2,0-3.1,0c-2,0-4.1,0-6.2,0c-2,0-4,0-5.8,0c-4.1,0-5.4-0.1-5.8-0.2
				c-0.6-0.1-1.2-0.2-1.6-0.2l-0.5-1.1c2-1.4,4.1-2.8,6-3.9c0.5-0.3,1-0.6,1.5-0.9c4.9-2.8,6.9-3.9,6.8-6.1c0-1.2-0.8-2.1-2.2-2.8
				c-2.9-1.4-5.7-1.9-5.8-1.9C77.9,36.7,77.8,36.7,77.6,36.7L77.6,36.7z"/>
		</g>
	</g>
</g>
</svg>
