<?xml version="1.0" encoding="utf-8"?>
<!-- Generator: Adobe Illustrator 19.2.1, SVG Export Plug-In . SVG Version: 6.00 Build 0)  -->
<svg version="1.1" id="Слой_1" xmlns="http://www.w3.org/2000/svg" xmlns:xlink="http://www.w3.org/1999/xlink" x="0px" y="0px"
	 viewBox="0 0 142.2 146.5" style="enable-background:new 0 0 142.2 146.5;" xml:space="preserve">
<style type="text/css">
	.st0{fill:#004BA5;}
	.st1{fill:#72CDF4;}
	.st2{fill:#F8971D;}
	.st3{fill:#FFE06A;}
	.st4{fill:none;stroke:#000000;stroke-linecap:round;stroke-linejoin:round;stroke-miterlimit:10;}
	.st5{fill:none;stroke:#000000;stroke-width:2;stroke-linecap:round;stroke-linejoin:round;stroke-miterlimit:10;}
	.st6{fill:none;stroke:#000000;stroke-linecap:round;stroke-linejoin:round;stroke-dasharray:0,14.1335;}
	.st7{fill:none;stroke:#000000;stroke-linecap:round;stroke-linejoin:round;}
	.st8{fill:none;stroke:#000000;stroke-linecap:round;stroke-linejoin:round;stroke-dasharray:0,1.9842;}
	.st9{clip-path:url(#SVGID_2_);}
	.st10{clip-path:url(#SVGID_4_);}
	.st11{clip-path:url(#SVGID_6_);}
	.st12{clip-path:url(#SVGID_8_);}
	.st13{clip-path:url(#SVGID_10_);}
	.st14{clip-path:url(#SVGID_12_);}
	.st15{fill:none;}
	.st16{clip-path:url(#SVGID_14_);}
	.st17{clip-path:url(#SVGID_16_);}
	.st18{clip-path:url(#SVGID_18_);}
	.st19{fill:none;stroke:#000000;stroke-linecap:square;stroke-linejoin:round;stroke-miterlimit:10;}
	.st20{clip-path:url(#SVGID_20_);}
	.st21{clip-path:url(#SVGID_22_);}
	.st22{clip-path:url(#SVGID_24_);}
	.st23{clip-path:url(#SVGID_26_);}
	.st24{fill:none;stroke:#000000;stroke-linecap:round;stroke-linejoin:round;stroke-miterlimit:10;stroke-dasharray:0,2;}
</style>
<g>
	<g>
		<polygon class="st1" points="97.8,72.7 122.3,17.3 35,42.5 60.6,52.9 64.9,72.7 76.8,61.7 76.5,61.5 76.5,61.5 		"/>
		<circle class="st0" cx="5.8" cy="141.5" r="5"/>
		<circle class="st2" cx="136" cy="8.7" r="5"/>
	</g>
	<g>
		<polygon class="st4" points="95,70 119.5,14.7 61.6,52.6 		"/>
		<polygon class="st4" points="61.6,52.6 119.5,14.7 57.8,50.3 62.1,70 73.7,58.9 		"/>
		<polygon class="st4" points="57.8,50.3 32.2,39.8 119.5,14.7 		"/>
		<polygon class="st4" points="74,59 62.1,70 61.6,52.6 		"/>
		<g>
			<g>
				<line class="st7" x1="3.8" y1="132.1" x2="3.8" y2="132.1"/>
				<path class="st8" d="M3.2,130.2c-1.4-6-3.7-25.4,17-42.7c21-17.5,32.3-24.2,35.4-25.8"/>
				<line class="st7" x1="56.5" y1="61.2" x2="56.5" y2="61.2"/>
			</g>
		</g>
		<circle class="st5" cx="6" cy="138.8" r="5"/>
		<circle class="st5" cx="136.2" cy="6" r="5"/>
		<g>
			<path d="M119.5,14.7L95,70L73.7,58.9L74,59L62.1,70l-4.3-19.8L32.2,39.8L119.5,14.7 M119.5,12.7c-0.2,0-0.4,0-0.6,0.1L31.6,37.9
				c-0.8,0.2-1.4,1-1.4,1.8s0.5,1.6,1.2,2l24.7,10.1l4.1,18.7c0.2,0.7,0.7,1.3,1.4,1.5c0.2,0.1,0.4,0.1,0.6,0.1c0.5,0,1-0.2,1.4-0.5
				l10.8-10l19.8,10.3C94.4,72,94.7,72,95,72c0.2,0,0.4,0,0.7-0.1c0.5-0.2,0.9-0.6,1.2-1.1l24.5-55.4c0.3-0.7,0.2-1.5-0.3-2.1
				C120.6,12.9,120.1,12.7,119.5,12.7L119.5,12.7z M119.5,16.7L119.5,16.7L119.5,16.7L119.5,16.7z"/>
		</g>
		<path class="st5" d="M30.1,45.4c0,0-5.7-2.8-4.7-7.4"/>
		<path class="st4" d="M25,46.2c0,0-3.3-2-4-4.2"/>
		<path class="st4" d="M98,74.7c0,0-3.5,2.5-7-1.4"/>
	</g>
</g>
</svg>
