<?xml version="1.0" encoding="utf-8"?>
<!-- Generator: Adobe Illustrator 19.2.1, SVG Export Plug-In . SVG Version: 6.00 Build 0)  -->
<svg version="1.1" id="Слой_1" xmlns="http://www.w3.org/2000/svg" xmlns:xlink="http://www.w3.org/1999/xlink" x="0px" y="0px"
	 viewBox="0 0 124.8 124.1" style="enable-background:new 0 0 124.8 124.1;" xml:space="preserve">
<style type="text/css">
	.st0{fill:#004BA5;}
	.st1{fill:#72CDF4;}
	.st2{fill:#F8971D;}
	.st3{fill:#FFE06A;}
	.st4{fill:none;stroke:#000000;stroke-linecap:round;stroke-linejoin:round;stroke-miterlimit:10;}
	.st5{fill:none;stroke:#000000;stroke-width:2;stroke-linecap:round;stroke-linejoin:round;stroke-miterlimit:10;}
	.st6{fill:none;stroke:#000000;stroke-linecap:round;stroke-linejoin:round;stroke-dasharray:0,14.1335;}
	.st7{fill:none;stroke:#000000;stroke-linecap:round;stroke-linejoin:round;}
	.st8{fill:none;stroke:#000000;stroke-linecap:round;stroke-linejoin:round;stroke-dasharray:0,1.9842;}
	.st9{clip-path:url(#SVGID_2_);}
	.st10{clip-path:url(#SVGID_4_);}
	.st11{clip-path:url(#SVGID_6_);}
	.st12{clip-path:url(#SVGID_8_);}
	.st13{clip-path:url(#SVGID_10_);}
	.st14{clip-path:url(#SVGID_12_);}
	.st15{fill:none;}
	.st16{clip-path:url(#SVGID_14_);}
	.st17{clip-path:url(#SVGID_16_);}
	.st18{clip-path:url(#SVGID_18_);}
	.st19{fill:none;stroke:#000000;stroke-linecap:square;stroke-linejoin:round;stroke-miterlimit:10;}
	.st20{clip-path:url(#SVGID_20_);}
	.st21{clip-path:url(#SVGID_22_);}
	.st22{clip-path:url(#SVGID_24_);}
	.st23{clip-path:url(#SVGID_26_);}
	.st24{fill:none;stroke:#000000;stroke-linecap:round;stroke-linejoin:round;stroke-miterlimit:10;stroke-dasharray:0,2;}
</style>
<g>
	<g>
		<path class="st3" d="M91.9,25.4c-7.6-4.6-16.5-7.3-26.1-7.3c-27.6,0-50,22.4-50,50c0,16.8,8.3,31.6,20.9,40.7
			c7.6,4.6,16.5,7.3,26.1,7.3c27.6,0,50-22.4,50-50C112.8,49.3,104.6,34.5,91.9,25.4z M62.8,62.1c-0.6,0-1-0.4-1-1s0.4-1,1-1
			s1,0.4,1,1S63.4,62.1,62.8,62.1z"/>
		<path class="st2" d="M64.8,4.1c-33.1,0-60,26.9-60,60s26.9,60,60,60s60-26.9,60-60S98,4.1,64.8,4.1z M64.8,114.1
			c-27.6,0-50-22.4-50-50c0-27.6,22.4-50,50-50c27.6,0,50,22.4,50,50C114.8,91.7,92.4,114.1,64.8,114.1z"/>
		<path class="st0" d="M62.7,64.8c-0.5-0.6-0.5-1.6-0.1-2.7c-0.4-0.1-0.8-0.5-0.8-1c0-0.6,0.4-1,1-1c0.3,0,0.6,0.1,0.8,0.4
			c0.3-0.4,0.7-0.9,1.2-1.3c1.1-1,2.4-2,3.8-3.1c-0.3-13.5-1.9-35.4-4-35.4c-2.2,0-4,26.2-4,38.9c0,5.7,1.8,7.1,4,7.1
			c1.4,0,2.7-0.5,3.4-2.6C65.8,65.8,63.5,65.9,62.7,64.8z"/>
		<path class="st1" d="M82.5,46.9c-0.9-1.2-13.3,6.3-18.7,11.3c-2.5,2.3-3,4.5-2.1,5.6s3.5,1.1,6-1.1C73.2,57.8,83.4,48.1,82.5,46.9
			z M62.8,62.1c-0.6,0-1-0.4-1-1s0.4-1,1-1s1,0.4,1,1S63.4,62.1,62.8,62.1z"/>
	</g>
	<g>
		<circle class="st5" cx="61" cy="61" r="60"/>
		<circle class="st4" cx="61" cy="61" r="50"/>
		<path class="st4" d="M79.7,45.8C78.8,44.6,66.4,52.1,61,57c-2.5,2.3-3,4.5-2.1,5.6c0.9,1.2,3.5,1.1,6-1.1
			C70.3,56.7,80.6,46.9,79.7,45.8z M61,62c-0.6,0-1-0.4-1-1c0-0.6,0.4-1,1-1s1,0.4,1,1C62,61.6,61.6,62,61,62z"/>
		<path class="st4" d="M58.9,62.7C58,61.5,58.5,59.3,61,57c1.1-1,2.4-2,3.8-3.1c-0.3-13.5-1.9-35.4-4-35.4c-2.2,0-4,26.2-4,38.9
			c0,5.7,1.8,7.1,4,7.1c1.4,0,2.7-0.5,3.4-2.6C62,63.7,59.7,63.8,58.9,62.7z"/>
		<g>
			<circle class="st6" cx="62" cy="61" r="45"/>
		</g>
		<path class="st5" d="M103.5,11.3c0,0,15.5,9.4,19.7,31.7"/>
		<path class="st4" d="M111.5,14.4c0,0,5.6,3.4,9.2,12.2"/>
		<path class="st5" d="M19.2,112.5c0,0-11.2-4.9-16-19.4"/>
		<path class="st4" d="M13.1,112.6c0,0-4.1-1.7-7.3-7.4"/>
	</g>
</g>
</svg>
