<?xml version="1.0" encoding="utf-8"?>
<!-- Generator: Adobe Illustrator 19.2.1, SVG Export Plug-In . SVG Version: 6.00 Build 0)  -->
<svg version="1.1" id="Слой_1" xmlns="http://www.w3.org/2000/svg" xmlns:xlink="http://www.w3.org/1999/xlink" x="0px" y="0px"
	 viewBox="0 0 102.5 235" style="enable-background:new 0 0 102.5 235;" xml:space="preserve">
<style type="text/css">
	.st0{fill:#004BA5;}
	.st1{fill:#72CDF4;}
	.st2{fill:#F8971D;}
	.st3{fill:#FFE06A;}
	.st4{fill:none;stroke:#000000;stroke-linecap:round;stroke-linejoin:round;stroke-miterlimit:10;}
	.st5{fill:none;stroke:#000000;stroke-width:2;stroke-linecap:round;stroke-linejoin:round;stroke-miterlimit:10;}
	.st6{fill:none;stroke:#000000;stroke-linecap:round;stroke-linejoin:round;stroke-dasharray:0,14.1335;}
	.st7{fill:none;stroke:#000000;stroke-linecap:round;stroke-linejoin:round;}
	.st8{fill:none;stroke:#000000;stroke-linecap:round;stroke-linejoin:round;stroke-dasharray:0,1.9842;}
	.st9{clip-path:url(#SVGID_2_);}
	.st10{clip-path:url(#SVGID_4_);}
	.st11{clip-path:url(#SVGID_6_);}
	.st12{clip-path:url(#SVGID_8_);}
	.st13{clip-path:url(#SVGID_10_);}
	.st14{clip-path:url(#SVGID_12_);}
	.st15{fill:none;}
	.st16{clip-path:url(#SVGID_14_);}
	.st17{clip-path:url(#SVGID_16_);}
	.st18{clip-path:url(#SVGID_18_);}
	.st19{fill:none;stroke:#000000;stroke-linecap:square;stroke-linejoin:round;stroke-miterlimit:10;}
	.st20{clip-path:url(#SVGID_20_);}
	.st21{clip-path:url(#SVGID_22_);}
	.st22{clip-path:url(#SVGID_24_);}
	.st23{clip-path:url(#SVGID_26_);}
	.st24{fill:none;stroke:#000000;stroke-linecap:round;stroke-linejoin:round;stroke-miterlimit:10;stroke-dasharray:0,2;}
</style>
<g>
	<g>
		<g>
			<path class="st3" d="M70.7,183.2c0,13.7-17.1,51.8-17.1,51.8s-17.1-38.1-17.1-51.8c0-13.7,7.6-24.9,17.1-24.9
				S70.7,169.5,70.7,183.2z"/>
		</g>
		<g>
			<g>
				<defs>
					<circle id="SVGID_7_" cx="52.3" cy="118.5" r="12.2"/>
				</defs>
				<clipPath id="SVGID_2_">
					<use xlink:href="#SVGID_7_"  style="overflow:visible;"/>
				</clipPath>
				<g class="st9">
					<circle class="st2" cx="52.5" cy="116.5" r="5.2"/>
					<path class="st2" d="M57.7,131.8H47.3c-1.7,0-3-1.4-3-3v-4.1c0-1.7,1.4-3,3-3h10.4c1.7,0,3,1.4,3,3v4.1
						C60.7,130.4,59.3,131.8,57.7,131.8z"/>
				</g>
			</g>
			<g>
				<defs>
					<circle id="SVGID_9_" cx="52.2" cy="85.5" r="12.2"/>
				</defs>
				<clipPath id="SVGID_4_">
					<use xlink:href="#SVGID_9_"  style="overflow:visible;"/>
				</clipPath>
				<g class="st10">
					<circle class="st2" cx="52.4" cy="83.5" r="5.2"/>
					<path class="st2" d="M57.6,98.8H47.2c-1.7,0-3-1.4-3-3v-4.1c0-1.7,1.4-3,3-3h10.4c1.7,0,3,1.4,3,3v4.1
						C60.6,97.4,59.3,98.8,57.6,98.8z"/>
				</g>
			</g>
			<g>
				<defs>
					<circle id="SVGID_11_" cx="52.4" cy="52.5" r="12.2"/>
				</defs>
				<clipPath id="SVGID_6_">
					<use xlink:href="#SVGID_11_"  style="overflow:visible;"/>
				</clipPath>
				<g class="st11">
					<circle class="st2" cx="52.6" cy="50.4" r="5.2"/>
					<path class="st2" d="M57.8,65.8H47.4c-1.7,0-3-1.4-3-3v-4.1c0-1.7,1.4-3,3-3h10.4c1.7,0,3,1.4,3,3v4.1
						C60.8,64.4,59.5,65.8,57.8,65.8z"/>
				</g>
			</g>
		</g>
		
			<ellipse transform="matrix(0.7071 -0.7071 0.7071 0.7071 -23.6437 53.2096)" class="st15" cx="52.4" cy="55.1" rx="12.2" ry="12.2"/>
		
			<ellipse transform="matrix(0.7071 -0.7071 0.7071 0.7071 -70.3924 72.4615)" class="st15" cx="52.3" cy="121.2" rx="12.2" ry="12.2"/>
		
			<ellipse transform="matrix(0.7071 -0.7071 0.7071 0.7071 -47.0798 62.7512)" class="st15" cx="52.2" cy="88.2" rx="12.2" ry="12.2"/>
		<g>
			<g>
				<path class="st1" d="M82.4,85.7c0-21.3-8.3-38.9-16-50.6l-24.2-0.2c-8,12.8-17.4,32.1-17.4,53.3c0,2.8,0.1,5.4,0.3,8l4.9,24.8
					c2.7,8.4,6.1,15.2,8.9,20.1l29.2,0.4c2.7-4.7,5.9-11.5,8.6-19.9l5.1-25.5C82.2,92.8,82.4,89.3,82.4,85.7z M62.3,129.8
					c-4.8,4.8-12.5,4.8-17.3,0c-4.8-4.8-4.8-12.5,0-17.3c4.8-4.8,12.5-4.8,17.3,0C67,117.3,67,125.1,62.3,129.8z M44.9,79.6
					c4.8-4.8,12.5-4.8,17.3,0c4.8,4.8,4.8,12.5,0,17.3c-4.8,4.8-12.5,4.8-17.3,0C40.2,92.1,40.2,84.3,44.9,79.6z M62.4,63.8
					c-4.8,4.8-12.5,4.8-17.3,0c-4.8-4.8-4.8-12.5,0-17.3c4.8-4.8,12.5-4.8,17.3,0C67.2,51.3,67.2,59,62.4,63.8z"/>
			</g>
		</g>
		<path class="st0" d="M5.4,115.1l-0.7,44.8l5.4,0.6l7.9-33.2l9.9-9.9c0.2,0.8,0.5,1.6,0.8,2.4l-4.9-24.8L5.4,115.1z"/>
		<path class="st0" d="M86.5,127l7.7,33.4l5.2-0.5L98.8,115L80.6,94.8l-5.1,25.5c0.4-1.1,0.7-2.2,1-3.4L86.5,127z"/>
		<path class="st0" d="M52.3,18c0,0-5.4,5.9-11.5,15.6L65,33.8C58.4,23.7,52.3,18,52.3,18z"/>
		<g>
			<path class="st0" d="M43.4,148.5l18.3-0.1c0,0,2.2-2.8,5.2-8.1l-29.2-0.4C40.8,145.4,43.4,148.5,43.4,148.5z"/>
		</g>
	</g>
	<g>
		<path class="st4" d="M42.2,147.3c0,0-19.9-24.2-19.9-61.6s28.9-68.9,28.9-68.9s28.7,26.8,28.7,66.4s-19.4,64-19.4,64L42.2,147.3z"
			/>
		<path class="st4" d="M97.6,113.9L79.4,93.6c-0.7,8.2-2.2,15.6-4.1,22.2l10,10l7.7,33.4l5.2-0.5L97.6,113.9z"/>
		<path class="st4" d="M22.6,93.8L4.3,114l-0.7,44.8l5.4,0.6l7.9-33.2l9.9-9.9C24.8,109.6,23.3,102.1,22.6,93.8z"/>
		<line class="st4" x1="39.7" y1="32.4" x2="64" y2="32.7"/>
		<line class="st4" x1="36.5" y1="138.6" x2="65.9" y2="138.7"/>
		
			<ellipse transform="matrix(0.7071 -0.7071 0.7071 0.7071 -68.9531 70.9285)" class="st4" cx="51.1" cy="118.7" rx="12.2" ry="12.2"/>
		
			<ellipse transform="matrix(0.7071 -0.7071 0.7071 0.7071 -45.6407 61.2182)" class="st4" cx="51.1" cy="85.7" rx="12.2" ry="12.2"/>
		
			<ellipse transform="matrix(0.7071 -0.7071 0.7071 0.7071 -22.2046 51.6766)" class="st4" cx="51.3" cy="52.6" rx="12.2" ry="12.2"/>
		<g>
			<defs>
				<circle id="SVGID_13_" cx="51.1" cy="118.7" r="12.2"/>
			</defs>
			<clipPath id="SVGID_8_">
				<use xlink:href="#SVGID_13_"  style="overflow:visible;"/>
			</clipPath>
			<g class="st12">
				<circle class="st4" cx="51.3" cy="116.7" r="5.2"/>
				<path class="st4" d="M56.5,132H46.1c-1.7,0-3-1.4-3-3v-4.1c0-1.7,1.4-3,3-3h10.4c1.7,0,3,1.4,3,3v4.1
					C59.6,130.6,58.2,132,56.5,132z"/>
			</g>
		</g>
		<g>
			<defs>
				<circle id="SVGID_15_" cx="51.1" cy="85.7" r="12.2"/>
			</defs>
			<clipPath id="SVGID_10_">
				<use xlink:href="#SVGID_15_"  style="overflow:visible;"/>
			</clipPath>
			<g class="st13">
				<circle class="st4" cx="51.3" cy="83.7" r="5.2"/>
				<path class="st4" d="M56.5,99H46.1c-1.7,0-3-1.4-3-3v-4.1c0-1.7,1.4-3,3-3h10.4c1.7,0,3,1.4,3,3V96C59.5,97.6,58.1,99,56.5,99z"
					/>
			</g>
		</g>
		<g>
			<defs>
				<circle id="SVGID_17_" cx="51.3" cy="52.6" r="12.2"/>
			</defs>
			<clipPath id="SVGID_12_">
				<use xlink:href="#SVGID_17_"  style="overflow:visible;"/>
			</clipPath>
			<g class="st14">
				<circle class="st4" cx="51.5" cy="50.6" r="5.2"/>
				<path class="st4" d="M56.7,65.9H46.3c-1.7,0-3-1.4-3-3v-4.1c0-1.7,1.4-3,3-3h10.4c1.7,0,3,1.4,3,3v4.1
					C59.7,64.6,58.3,65.9,56.7,65.9z"/>
			</g>
		</g>
		
			<ellipse transform="matrix(0.7071 -0.7071 0.7071 0.7071 -68.9531 70.9285)" class="st4" cx="51.1" cy="118.7" rx="12.2" ry="12.2"/>
		
			<ellipse transform="matrix(0.7071 -0.7071 0.7071 0.7071 -45.6407 61.2182)" class="st4" cx="51.1" cy="85.7" rx="12.2" ry="12.2"/>
		
			<ellipse transform="matrix(0.7071 -0.7071 0.7071 0.7071 -22.2046 51.6766)" class="st4" cx="51.3" cy="52.6" rx="12.2" ry="12.2"/>
		<g>
			<path d="M51.2,154.5c9.4,0,17.1,11.1,17.1,24.9c0,13.7-17.1,51.8-17.1,51.8s-17.1-38.1-17.1-51.8
				C34.1,165.6,41.8,154.5,51.2,154.5 M51.2,152.5c-10.5,0-19.1,12.1-19.1,26.9c0,14,16.5,51,17.3,52.6c0.3,0.7,1,1.2,1.8,1.2
				s1.5-0.5,1.8-1.2c0.7-1.6,17.3-38.6,17.3-52.6C70.3,164.5,61.7,152.5,51.2,152.5L51.2,152.5z"/>
		</g>
		<path class="st4" d="M68.3,177.7c0,11.3-17.1,36-17.1,36s-17.1-24.6-17.1-36c0-11.3,7.6-23.2,17.1-23.2S68.3,166.4,68.3,177.7z"/>
		<g>
			<path d="M51.2,16.8c0,0,28.7,26.8,28.7,66.4c0,3.6-0.2,7.1-0.5,10.4l18.2,20.2l0.6,44.9l-5.2,0.5l-7.7-33.4l-10-10
				c-5.7,19.9-14.8,31.4-14.8,31.4l-18.3,0.1c0,0-9.5-11.6-15.4-31.1l-9.9,9.9L9,159.4l-5.4-0.6L4.3,114l18.3-20.2
				c-0.2-2.6-0.3-5.3-0.3-8C22.3,48.3,51.2,16.8,51.2,16.8 M51.3,64.8c3.1,0,6.2-1.2,8.6-3.6c4.8-4.8,4.8-12.5,0-17.3
				c-2.4-2.4-5.5-3.6-8.6-3.6S45,41.6,42.6,44c-4.8,4.8-4.8,12.5,0,17.3C45,63.7,48.2,64.8,51.3,64.8 M51.1,97.9
				c3.1,0,6.2-1.2,8.6-3.6c4.8-4.8,4.8-12.5,0-17.3c-2.4-2.4-5.5-3.6-8.6-3.6s-6.2,1.2-8.6,3.6c-4.8,4.8-4.8,12.5,0,17.3
				C44.8,96.7,48,97.9,51.1,97.9 M51.1,130.9c3.1,0,6.2-1.2,8.6-3.6c4.8-4.8,4.8-12.5,0-17.3c-2.4-2.4-5.5-3.6-8.6-3.6
				c-3.1,0-6.2,1.2-8.6,3.6c-4.8,4.8-4.8,12.5,0,17.3C44.9,129.7,48,130.9,51.1,130.9 M51.2,14.8C51.1,14.8,51.1,14.8,51.2,14.8
				c-0.6,0-1.1,0.3-1.5,0.6c-0.3,0.3-7.4,8.2-14.7,20.8C28.3,47.9,20.3,66,20.3,85.7c0,2.4,0.1,4.8,0.3,7.3L2.8,112.6
				c-0.3,0.4-0.5,0.8-0.5,1.3l-0.7,44.8c0,1,0.7,1.9,1.8,2l5.4,0.6c0.1,0,0.2,0,0.2,0c0.9,0,1.7-0.6,1.9-1.5l7.7-32.7l7.2-7.2
				c5.9,17.8,14.4,28.2,14.8,28.6c0.4,0.5,0.9,0.7,1.5,0.7c0,0,0,0,0,0l18.3-0.1c0.6,0,1.2-0.3,1.6-0.8c0.4-0.5,8.4-10.8,14.2-28.8
				l7.2,7.2l7.6,32.8c0.2,0.9,1,1.6,1.9,1.6c0.1,0,0.1,0,0.2,0l5.2-0.5c1-0.1,1.8-1,1.8-2l-0.6-44.9c0-0.5-0.2-1-0.5-1.3L81.5,92.9
				c0.3-3.2,0.4-6.5,0.4-9.7c0-20.9-8-38.2-14.7-49.1C60,22.4,52.8,15.6,52.5,15.4C52.2,15,51.7,14.8,51.2,14.8L51.2,14.8z
				 M51.3,62.8c-2.7,0-5.3-1.1-7.2-3c-1.9-1.9-3-4.5-3-7.2c0-2.7,1.1-5.3,3-7.2c1.9-1.9,4.5-3,7.2-3c2.7,0,5.3,1.1,7.2,3
				c1.9,1.9,3,4.5,3,7.2c0,2.7-1.1,5.3-3,7.2C56.6,61.8,54,62.8,51.3,62.8L51.3,62.8z M51.1,95.9c-2.7,0-5.3-1.1-7.2-3
				c-4-4-4-10.5,0-14.4c1.9-1.9,4.5-3,7.2-3c2.7,0,5.3,1.1,7.2,3c4,4,4,10.5,0,14.4C56.4,94.8,53.8,95.9,51.1,95.9L51.1,95.9z
				 M51.1,128.9c-2.7,0-5.3-1.1-7.2-3c-4-4-4-10.5,0-14.4c1.9-1.9,4.5-3,7.2-3c2.7,0,5.3,1.1,7.2,3c4,4,4,10.5,0,14.4
				C56.4,127.8,53.9,128.9,51.1,128.9L51.1,128.9z"/>
		</g>
		<path class="st5" d="M36.1,20.2c0,0,6.6-14.4,14.9-14.4s14.9,14.4,14.9,14.4"/>
		<path class="st4" d="M58.7,3.5c0,0-3.8-3-7.7-3c-3.2,0-8.3,3.6-8.3,3.6"/>
		<g>
			<path class="st4" d="M0.5,167.6c0,0,4.7-3.1,9.8,2"/>
		</g>
		<g>
			<path class="st4" d="M92,168.6c0,0,4-3.9,10,0.1"/>
		</g>
	</g>
</g>
</svg>
