<?xml version="1.0" encoding="utf-8"?>
<!-- Generator: Adobe Illustrator 19.2.1, SVG Export Plug-In . SVG Version: 6.00 Build 0)  -->
<svg version="1.1" id="Слой_1" xmlns="http://www.w3.org/2000/svg" xmlns:xlink="http://www.w3.org/1999/xlink" x="0px" y="0px"
	 viewBox="0 0 103.4 148" style="enable-background:new 0 0 103.4 148;" xml:space="preserve">
<style type="text/css">
	.st0{fill:#004BA5;}
	.st1{fill:#72CDF4;}
	.st2{fill:#F8971D;}
	.st3{fill:#FFE06A;}
	.st4{fill:none;stroke:#000000;stroke-linecap:round;stroke-linejoin:round;stroke-miterlimit:10;}
	.st5{fill:none;stroke:#000000;stroke-width:2;stroke-linecap:round;stroke-linejoin:round;stroke-miterlimit:10;}
	.st6{fill:none;stroke:#000000;stroke-linecap:round;stroke-linejoin:round;stroke-dasharray:0,14.1335;}
	.st7{fill:none;stroke:#000000;stroke-linecap:round;stroke-linejoin:round;}
	.st8{fill:none;stroke:#000000;stroke-linecap:round;stroke-linejoin:round;stroke-dasharray:0,1.9842;}
	.st9{clip-path:url(#SVGID_2_);}
	.st10{clip-path:url(#SVGID_4_);}
	.st11{clip-path:url(#SVGID_6_);}
	.st12{clip-path:url(#SVGID_8_);}
	.st13{clip-path:url(#SVGID_10_);}
	.st14{clip-path:url(#SVGID_12_);}
	.st15{fill:none;}
	.st16{clip-path:url(#SVGID_14_);}
	.st17{clip-path:url(#SVGID_16_);}
	.st18{clip-path:url(#SVGID_18_);}
	.st19{fill:none;stroke:#000000;stroke-linecap:square;stroke-linejoin:round;stroke-miterlimit:10;}
	.st20{clip-path:url(#SVGID_20_);}
	.st21{clip-path:url(#SVGID_22_);}
	.st22{clip-path:url(#SVGID_24_);}
	.st23{clip-path:url(#SVGID_26_);}
	.st24{fill:none;stroke:#000000;stroke-linecap:round;stroke-linejoin:round;stroke-miterlimit:10;stroke-dasharray:0,2;}
</style>
<g>
	<g>
		<path class="st0" d="M87.2,116.3c-7.4,2.5-17.2,4.1-27.2,4.6v0.4c0,3.3-2.7,6-6,6c-3.3,0-6-2.7-6-6v-0.4
			c-10-0.5-19.7-2.1-27.1-4.6c-9.9,3.3-16.2,8.1-16.2,13.5c0,10.1,22.1,18.2,49.3,18.2s49.3-8.2,49.3-18.2
			C103.4,124.4,97.1,119.6,87.2,116.3z"/>
		<path class="st1" d="M60,88.8V94c0,3.3-2.7,6-6,6c-3.3,0-6-2.7-6-6v-5.2c-22,1.1-38,7.7-38,15.7c0,8.8,19.7,15.8,44.1,15.8
			c24.3,0,44-7.1,44-15.8C98.1,96.5,81,89.9,60,88.8z"/>
		<path class="st2" d="M60,61.3v4.4c0,2.8-3.4,5.1-6,5.1c-2.6,0-6-2.3-6-5.1v-4.4c-17,0.9-28.6,6.5-28.6,13.2C19.4,82,35,88,54,88
			c19,0,34.6-6,34.6-13.4C88.7,67.8,76,62.2,60,61.3z"/>
		<path class="st3" d="M60,19v3.4c0,2.2-4,4-6,4c-2,0-6-1.8-6-4V19c-14,0.7-21.4,5.1-21.4,10.4c0,5.8,12.1,10.5,27.1,10.5
			c15,0,27.4-4.7,27.4-10.5C81.2,24.1,72,19.7,60,19z"/>
	</g>
	<g>
		<path class="st4" d="M76.6,22.4c0.1,0.2,0.1,0.4,0.1,0.6c0,3.6-11.2,6.6-25.1,6.6s-25.1-3-25.1-6.6c0-0.3,0.1-0.5,0.2-0.8
			c-0.9,1-1.7,2.5-1.7,3.8c0,2-0.2,4.1,1.3,5.7c3.3,3.3,11.9,6.2,24.9,6.2c15,0,21.6-3.2,25.1-6.2c1.7-1.5,1.7-3.7,1.7-5.7
			C78.1,24.9,77.4,23.4,76.6,22.4z"/>
		<path class="st4" d="M57.5,16.7V20c0,3.3-2.7,4-6,4c-3.3,0-6-0.7-6-4v-3.3c-11,0.7-19.1,3.3-19.1,6.4c0,3.6,11.3,6.6,25.2,6.6
			s25.1-3,25.1-6.6C76.7,20,68.5,17.4,57.5,16.7z"/>
		<g>
			<g>
				<path d="M51.7,2c3.3,0,6,2.7,6,6v8.7c11,0.7,17.3,3,18.3,5.8c0.8,1,1.8,2.5,1.8,3.7c0,2-0.2,4.2-2,5.7c-3,2.5-7.2,5.2-18.2,6
					v20.9c14,0.7,24.3,3.7,25.9,7.5c1.1,1.2,2.3,3.1,2.3,4.7c0,2.5-1.1,5.4-2.5,6.8c-3.6,3.8-9.8,6.3-25.8,6.8v2
					c18,0.7,31.6,4.4,34.3,9.1c1.5,1.4,3.3,3.7,3.3,5.6c0,2.9-1,6.1-2.7,7.7c-1.9,1.8-3.6,3.4-7.4,4.9c6.6,1.7,10.3,3.9,12.2,6.3
					c1.7,1.2,3.2,3.6,3.7,7c0.4,3.2-1,6.7-2.9,8.6c-5.8,5.5-18.9,10.4-45.7,10.4c-25.6,0-41.7-4.9-47.5-10.5
					c-1.9-1.8-3.3-5.3-2.8-8.5c0.5-3.4,2-5.7,3.7-6.9c1.9-2.5,7.6-4.7,14.3-6.4c-4-1.4-8-3.1-9.9-4.9c-1.7-1.6-2.6-4.8-2.6-7.7
					c0-1.9,1.2-4.2,2.7-5.6c2.7-4.7,17.4-8.4,35.4-9.1v-2c-14-0.5-24-3.1-27.7-6.8c-1.3-1.4-1.4-4.3-1.4-6.8c0-1.6,0.8-3.6,2-4.8
					c1.8-3.7,14.1-6.7,27.1-7.3V37.8c-9-0.7-17.2-3.2-20-6c-1.5-1.5-1-3.7-1-5.7c0-1.3,0.6-2.8,1.5-3.8c1.2-2.8,9.5-5,19.5-5.6V8
					C45.7,4.7,48.4,2,51.7,2 M51.7,0c-4.4,0-8,3.6-8,8v6.8c-5.6,0.5-16.8,2-19.2,6.4c-1.1,1.3-1.8,3.2-1.8,5c0,0.4,0,0.7,0,1.2
					c-0.1,1.7-0.2,4.1,1.6,5.9c3,3,10.7,5.5,19.4,6.4v17.1c-9.4,0.7-23.7,3-26.7,8c-1.5,1.6-2.4,3.9-2.4,6c0,3.1,0.2,6.3,2,8.2
					c2.9,3,8.7,5.1,16.9,6.4c-11.1,1.4-21.7,4.2-24.7,8.8c-1.9,1.8-3.2,4.6-3.2,6.9c0,2.8,0.8,6.9,3.2,9.1c1.1,1,2.7,2,5.1,3.1
					c-4.8,1.6-8,3.4-9.5,5.3c-2.2,1.7-3.7,4.6-4.3,8.1c-0.5,3.6,0.9,7.9,3.4,10.3c7.2,6.9,25.5,11,48.9,11c23.6,0,39.5-3.7,47.1-11
					c2.6-2.4,4-6.7,3.5-10.3c-0.5-3.5-2-6.5-4.3-8.2c-1.7-2.1-4.5-3.9-8.3-5.3c1.4-0.9,2.4-1.9,3.4-2.9l0.1-0.1
					c2.4-2.3,3.3-6.4,3.3-9.1c0-3-2.6-5.8-3.7-6.9c-3-4.7-12.8-7.4-23.6-8.8c7.2-1.1,11.8-3.2,14.9-6.4c1.8-1.8,3-5.3,3-8.2
					c0-2.3-1.6-4.5-2.6-5.8c-3.1-6-18.6-7.8-25.6-8.2V39.6c9.9-1,14.2-3.6,17.4-6.3c2.4-2,2.7-4.9,2.7-7.2c0-1.4-0.7-2.9-2-4.7
					c-2-4.3-10.5-6-18.1-6.6V8C59.7,3.6,56.1,0,51.7,0L51.7,0z"/>
			</g>
		</g>
		<g>
			<path class="st4" d="M51.2,146c0,0,0.4,0,0.4,0l0,0c-0.1,0-0.1,0-0.2,0C51.4,146,51.3,146,51.2,146L51.2,146z"/>
			<path class="st4" d="M101.1,127c-0.5-3.4-2-5.8-3.7-7c0.6,0.8,0.9,1.6,0.9,2.4c0,6.8-20.9,12.3-46.7,12.3S5,129.2,5,122.4
				c0-0.8,0.3-1.6,0.9-2.4c-1.7,1.2-3.2,3.5-3.7,6.9c-0.5,3.2,0.9,6.7,2.8,8.5c5.8,5.5,20.9,10.4,46.5,10.5
				c26.9,0,40.9-4.9,46.7-10.4C100.1,133.7,101.5,130.2,101.1,127z"/>
		</g>
		<path class="st4" d="M84.4,113.6c-6,2.2-14.9,3.8-26.9,4.2v2.2c0,3.3-2.7,4-6,4c-3.3,0-6-0.7-6-4v-2.2c-12-0.4-20.1-2-26.2-4.2
			C10.6,115.8,5,119,5,122.4c0,6.8,20.9,12.3,46.7,12.3s46.7-5.5,46.7-12.3C98.4,119,93.1,115.9,84.4,113.6z"/>
		<path class="st4" d="M51.9,117.9c-2.2,0-4.4-0.1-6.4-0.1v2.2c0,3.3,2.7,4,6,4c3.3,0,6-0.7,6-4v-2.2
			C55.5,117.9,53.9,117.9,51.9,117.9z"/>
		<path class="st4" d="M92.5,95.5c0.3,0.5,0.5,1.1,0.5,1.6c0,6-18.5,10.8-41.3,10.8s-41.3-4.9-41.3-10.8c0-0.6,0.2-1.1,0.5-1.6
			c-1.6,1.4-3,3.7-3,5.6c0,2.9,0.8,6.1,2.5,7.7c5.2,4.9,18.5,9.2,41.3,9.2c24,0,35.9-4.3,41-9.2c1.7-1.6,2.7-4.8,2.7-7.7
			C95.3,99.2,94,96.9,92.5,95.5z"/>
		<path class="st4" d="M57.5,86.3V94c0,3.3-2.7,4-6,4c-3.3,0-6-0.7-6-4v-7.6c-20,0.8-35,5.3-35,10.7c0,6,18.4,10.8,41.2,10.8
			s41.4-4.9,41.4-10.8C93.1,91.6,77.5,87.1,57.5,86.3z"/>
		<path class="st4" d="M84.2,66.1c0.1,0.3,0.2,0.7,0.2,1c0,4.8-14.7,8.6-32.8,8.6s-32.8-3.9-32.8-8.6c0-0.4,0.1-0.8,0.3-1.1
			c-1.2,1.2-2.3,3.2-2.3,4.8c0,2.5,0.4,5.4,1.8,6.8c4.1,4.2,14.6,6.9,32.6,6.9c20,0,28.6-2.7,32.7-6.9c1.3-1.4,2.2-4.3,2.2-6.8
			C86.2,69.2,85.3,67.3,84.2,66.1z"/>
		<path class="st4" d="M57.5,58.6V63c0,3.3-2.7,4-6,4c-3.3,0-6-0.7-6-4v-4.3c-15,0.8-26.5,4.3-26.5,8.4c0,4.8,14.6,8.6,32.7,8.6
			s32.9-3.9,32.9-8.6C84.6,62.9,72.5,59.3,57.5,58.6z"/>
		<path class="st4" d="M51.7,125.5c-4.1,0-7.4-1.6-7.4-3.6"/>
		<line class="st4" x1="55.6" y1="123.2" x2="55.6" y2="117.9"/>
		<path class="st4" d="M51.7,99.6c-4.1,0-7.4-1.6-7.4-3.6"/>
		<path class="st4" d="M51.5,84.5c-2.1,0-4,0-6-0.1V94c0,3.3,2.7,4,6,4c3.3,0,6-0.7,6-4v-9.6C55.5,84.5,53.6,84.5,51.5,84.5z"/>
		<path class="st4" d="M51.7,68.6c-4.1,0-7.4-1.6-7.4-3.6"/>
		<path class="st4" d="M51.5,38c-2.1,0-4-0.1-6-0.2V63c0,3.3,2.7,4,6,4c3.3,0,6-0.7,6-4V37.8C55.5,37.9,53.7,38,51.5,38z"/>
		<path class="st4" d="M51.7,25.6c-4.1,0-7.4-1.6-7.4-3.6"/>
		<path class="st4" d="M51.6,24L51.6,24c-3.3,0-6-0.7-6-4V8c0-3.3,2.7-6,6-6h0c3.3,0,6,2.7,6,6v12C57.6,23.3,54.9,24,51.6,24z"/>
		<path class="st5" d="M78.3,18.9c0,0,3.4,1.8,3.2,6.1"/>
		<path class="st4" d="M81,17.6c0,0,2,1.4,2.5,3.3"/>
		<path class="st4" d="M23.6,35.8c0,0-2-1.4-2.5-3.3"/>
		<path class="st4" d="M17.6,83.4c0,0-3.6-2-4.5-4.8"/>
		<g>
			<path class="st4" d="M7.1,112.8c0,0-4.8-2.5-4.7-7.4"/>
		</g>
		<path class="st5" d="M86.3,62.5c0,0,4.7,3.2,4.4,10.9"/>
		<path class="st4" d="M90,61.8c0,0,2.8,2.5,3.5,5.8"/>
		<path class="st5" d="M95.3,91.6c0,0,4.7,3.7,4.4,12.8"/>
		<path class="st4" d="M99,90.8c0,0,2.8,2.9,3.5,6.8"/>
		<ellipse transform="matrix(0.7071 -0.7071 0.7071 0.7071 10.2323 36.703)" class="st4" cx="49.4" cy="6" rx="2.9" ry="1.5"/>
		<line class="st4" x1="55.6" y1="10.1" x2="55.6" y2="23.1"/>
		<line class="st4" x1="55.6" y1="38.1" x2="55.6" y2="65.9"/>
		<line class="st4" x1="55.6" y1="97.2" x2="55.6" y2="84.5"/>
	</g>
</g>
</svg>
