<?xml version="1.0" encoding="utf-8"?>
<!-- Generator: Adobe Illustrator 19.2.1, SVG Export Plug-In . SVG Version: 6.00 Build 0)  -->
<svg version="1.1" id="Слой_1" xmlns="http://www.w3.org/2000/svg" xmlns:xlink="http://www.w3.org/1999/xlink" x="0px" y="0px"
	 viewBox="0 0 123.9 197.5" style="enable-background:new 0 0 123.9 197.5;" xml:space="preserve">
<style type="text/css">
	.st0{fill:#004BA5;}
	.st1{fill:#72CDF4;}
	.st2{fill:#F8971D;}
	.st3{fill:#FFE06A;}
	.st4{fill:none;stroke:#000000;stroke-linecap:round;stroke-linejoin:round;stroke-miterlimit:10;}
	.st5{fill:none;stroke:#000000;stroke-width:2;stroke-linecap:round;stroke-linejoin:round;stroke-miterlimit:10;}
	.st6{fill:none;stroke:#000000;stroke-linecap:round;stroke-linejoin:round;stroke-dasharray:0,14.1335;}
	.st7{fill:none;stroke:#000000;stroke-linecap:round;stroke-linejoin:round;}
	.st8{fill:none;stroke:#000000;stroke-linecap:round;stroke-linejoin:round;stroke-dasharray:0,1.9842;}
	.st9{clip-path:url(#SVGID_2_);}
	.st10{clip-path:url(#SVGID_4_);}
	.st11{clip-path:url(#SVGID_6_);}
	.st12{clip-path:url(#SVGID_8_);}
	.st13{clip-path:url(#SVGID_10_);}
	.st14{clip-path:url(#SVGID_12_);}
	.st15{fill:none;}
	.st16{clip-path:url(#SVGID_14_);}
	.st17{clip-path:url(#SVGID_16_);}
	.st18{clip-path:url(#SVGID_18_);}
	.st19{fill:none;stroke:#000000;stroke-linecap:square;stroke-linejoin:round;stroke-miterlimit:10;}
	.st20{clip-path:url(#SVGID_20_);}
	.st21{clip-path:url(#SVGID_22_);}
	.st22{clip-path:url(#SVGID_24_);}
	.st23{clip-path:url(#SVGID_26_);}
	.st24{fill:none;stroke:#000000;stroke-linecap:round;stroke-linejoin:round;stroke-miterlimit:10;stroke-dasharray:0,2;}
</style>
<g>
	<g>
		<path class="st2" d="M54.7,83.9C54.7,83.9,54.7,83.9,54.7,83.9C54.6,83.9,54.6,83.8,54.7,83.9c-0.1,0-0.1,0-0.1,0c0,0,0,0,0,0
			l-3.6-0.1c-0.5,0-0.7,0.6-0.8,0.9c-0.2,0.5-0.3,1.1-0.4,1.8c-0.1,0.7-0.1,1.3,0,1.8c0,0.2,0.2,1,0.7,1l3.7,0.1c0,0,0.1,0,0.1,0
			c0.1,0,0.2-0.1,0.3-0.1c0.2-0.2,0.4-0.6,0.4-0.7c0.2-0.5,0.3-1.1,0.4-1.8c0.1-0.7,0.1-1.3,0-1.8C55.2,84.6,55.1,84,54.7,83.9z"/>
		<path class="st0" d="M56.6,170l-3.7,1.9c-0.1,0.1-0.2,0.2-0.2,0.3l0.4,8.9c0,0.1,0.1,0.3,0.3,0.3c0.1,0,0.2,0,0.2-0.1
			c0,0,0.1-0.1,0.1-0.1l3.3-10.8c0-0.1,0-0.2-0.1-0.3C56.8,170,56.7,170,56.6,170z"/>
		<path class="st0" d="M104.3,171.9c-0.9,0.2-1.5,1.3-2,3c0,0,0,0,0,0.1l0,6c0,0.1,0.1,0.2,0.2,0.3c0.1,0,1.7,0.6,2.7,0c0,0,0,0,0,0
			c0.9-0.7,0.8-6.3,0.7-8.7c0-0.1,0-0.1-0.1-0.2C105.8,172.3,105.1,171.6,104.3,171.9z"/>
		<path class="st3" d="M59.2,155.5c-0.1,0-0.2-0.1-0.3,0c-0.1,0-0.2,0.1-0.2,0.2l-1.7,8.2c0,0.1,0,0.2,0.1,0.3
			c0.1,0.1,0.2,0.1,0.3,0.1c0.1,0,1.6-0.5,2.8-1.5c0.8-0.6,1.5-1.5,1.6-2.6C62.1,157.3,59.3,155.6,59.2,155.5z"/>
		
			<ellipse transform="matrix(0.7757 -0.6312 0.6312 0.7757 -81.5228 101.3173)" class="st3" cx="101.8" cy="165.3" rx="5.9" ry="5.9"/>
		<ellipse transform="matrix(0.7757 -0.6312 0.6312 0.7757 -34.4302 78.0363)" class="st3" cx="92.6" cy="87.5" rx="2.4" ry="2.4"/>
		<ellipse transform="matrix(0.7757 -0.6312 0.6312 0.7757 -39.2333 63.8702)" class="st3" cx="70.2" cy="87.1" rx="2.4" ry="2.4"/>
		<path class="st2" d="M85.1,78.9l-2.6-0.3c-0.7-0.1-1.4,0.7-2,2.4c-0.6,1.5-1,3.5-1.2,5.7c-0.4,4.1,0,8.4,1.5,8.5l2.6,0.3
			c0.3,0,0.5-0.1,0.8-0.3c0.4-0.4,0.9-1.1,1.3-2.1c0.6-1.5,1-3.5,1.2-5.7C87,83.3,86.6,79,85.1,78.9z"/>
		<ellipse transform="matrix(0.7757 -0.6312 0.6312 0.7757 -17.5654 65.3827)" class="st3" cx="83.2" cy="57.4" rx="6" ry="6"/>
		<path class="st2" d="M113.1,84.7C113.1,84.7,113.1,84.7,113.1,84.7C113,84.7,113,84.7,113.1,84.7c-0.1,0-0.1,0-0.1,0c0,0,0,0,0,0
			l-3.9-0.1c-1-0.1-1.3,2.6-1.3,2.9c0,0.3-0.3,3,0.7,3.1l3.9,0.1c0,0,0.1,0,0.1,0c0.1,0,0.2,0,0.3-0.1c0.7-0.5,0.9-2.5,0.9-2.7
			C113.7,87.4,113.9,84.9,113.1,84.7z"/>
	</g>
	<g>
		<path class="st1" d="M98.8,160.2c0,0-0.1,0.1-0.1,0.1C98.7,160.3,98.8,160.3,98.8,160.2z"/>
		<path class="st1" d="M84.6,63.2C84.6,63.2,84.6,63.2,84.6,63.2C84.6,63.2,84.6,63.2,84.6,63.2z"/>
		<path class="st1" d="M85.3,79c-0.1,0-0.2-0.1-0.3-0.1C85.1,78.9,85.2,78.9,85.3,79z"/>
		<path class="st1" d="M80.4,95.1c-0.1,0-0.1-0.1-0.2-0.1C80.3,95,80.4,95,80.4,95.1z"/>
		<path class="st1" d="M83.9,63.4C83.9,63.3,83.9,63.3,83.9,63.4C83.9,63.3,83.9,63.3,83.9,63.4z"/>
		<path class="st1" d="M80.8,95.2c-0.1,0-0.2,0-0.3-0.1C80.6,95.1,80.7,95.2,80.8,95.2z"/>
		<path class="st1" d="M107.7,89c-0.1-0.7,0-1.4,0-1.6c0-0.2,0.1-1.1,0.4-1.9l-8.2-0.1c0,0,0,0,0,0l-5-28.2
			c4.5-4.8,4.9-12.3,0.7-17.6c-0.3-0.4-0.6-0.7-1-1.1c-0.3-0.4-0.5-0.8-0.9-1.2c-1.9-2.3-4.5-3.9-7.2-4.5l0-0.8
			c0.5-0.2,0.9-0.4,1.2-0.7c0.5-0.4,0.7-0.8,0.7-1.3c0-0.2,0-0.3-0.1-0.5c0,0,0,0,0,0c0,0,0,0,0.1,0c0.1-0.1,0.1-0.1,0.1-0.2
			L89,12.4c0-0.1,0-0.2-0.1-0.2c-4.2-3.1-8.8-0.2-8.8-0.1C80,12.1,80,12.2,80,12.3l-0.8,16.4c-0.2,0.3-0.4,0.6-0.4,0.9
			c0,0.7,0.5,1.4,1.4,1.9c0.1,0,0.2,0.1,0.3,0.1l0,1c-2,0.4-3.9,1.3-5.6,2.7C69.2,40,68.4,48.4,73,54.1c0.3,0.4,0.6,0.7,1,1.1
			c0.1,0.1,0.2,0.3,0.3,0.4l-7.4,29.2c-0.1,0-0.2,0-0.3,0l-10.8-0.2c-0.2,0-0.4,0-0.6,0.1c0,0,0,0,0,0c0,0.1,0,0.1,0,0.2
			c0.1,0.5,0.1,1.2,0,1.8c0,0.4-0.1,0.8-0.2,1.2c0.2,0.1,0.5,0.2,0.7,0.2L66,88.3l-17.9,70.5c0,0,0,0.1,0,0.1l2,13.4
			c0,0.1,0.1,0.2,0.3,0.2l2.3,0l0-0.3c0-0.1,0.1-0.2,0.2-0.3l3.7-1.9c0.1-0.1,0.2,0,0.3,0c0.1,0.1,0.1,0.2,0.1,0.3l-3.3,10.8l3-9.7
			l1.1-0.6c0,0,0,0,0.1,0c0,0,0.1-0.1,0.1-0.2l1.8-7.7c-1.1,0.7-2.2,1.1-2.3,1.1c-0.1,0-0.2,0-0.3-0.1c-0.1-0.1-0.1-0.2-0.1-0.3
			l1.7-8.2c0-0.1,0.1-0.2,0.2-0.2c0.1,0,0.2,0,0.3,0c0.1,0,1.1,0.7,1.8,1.8h0l15.7-68.8c0,0,0,0,0.1,0l2.3,0c0-0.6,0.1-1.2,0.1-1.8
			c0.1-1,0.3-2,0.5-2.9c-0.1,0.4-0.2,0.8-0.2,1.3l-1.9,0l4.9-21.6h0c-1.5-0.2-2.9-0.9-4-2.2c-2.1-2.6-1.7-6.3,0.9-8.4
			c0.5-0.4,1-0.7,1.6-0.9l-4.4-0.3c-0.2-1-0.3-2.1-0.2-3.1c0.3-2.7,1.6-5.1,3.6-6.8c3.6-3,8.7-2.8,12.2-0.1c1.2,2.5,1.2,5.5,0.2,8
			l-0.9-1c-0.1-0.1-0.1-0.2-0.2-0.2c0,0,0-0.1-0.1-0.2c-0.1,0-0.2-0.1-0.2,0l-6.8,3.4c1.3,0.3,2.6,1,3.6,2.1
			c2.1,2.6,1.7,6.3-0.9,8.4c-0.5,0.4-1.1,0.8-1.7,1l3.3,22.3l-1.8,0.1c0,0.7-0.1,1.3-0.1,2c-0.1,0.5-0.1,1-0.2,1.5c0,0,0,0,0,0
			l2.6-0.1l10.5,71.1c2.3-1,5.2-0.3,6.8,1.7c2.1,2.5,1.7,6.2-0.9,8.3c-1.4,1.2-3.3,1.5-4.9,1.2l-0.1,3.8c0,0.2-0.1,0.3,0.1,0.3
			l1.4,0.1V175c0,0,0.2-0.1,0.2-0.1c0.5-1.8,1.2-2.8,2.1-3c0.8-0.2,1.6,0.4,1.6,0.4c0.1,0.1,0.1,0.1,0.1,0.2c0,0.8,0,1.8,0,3
			c0,0,0,0,0,0c0,0,0.1,0,0.1,0l2.3-0.7c0,0,0.1,0,0.1-0.1c0,0,0.1-0.1,0.1-0.1l5.3-12c0-0.1,0-0.1,0-0.2l-13.1-73.6L107.7,89z
			 M71.7,89c-1,0.8-2.5,0.7-3.4-0.3c-0.8-1-0.7-2.5,0.3-3.4c1-0.8,2.5-0.7,3.4,0.3C72.9,86.6,72.8,88.2,71.7,89z M94.1,89.3
			c-1,0.8-2.5,0.7-3.4-0.3c-0.8-1-0.7-2.5,0.3-3.4c1-0.8,2.5-0.7,3.4,0.3C95.3,87,95.1,88.5,94.1,89.3z"/>
		<path class="st1" d="M105.7,179.7c0,0,0,0.1,0,0.1C105.7,179.8,105.7,179.8,105.7,179.7z"/>
		<path class="st1" d="M105.9,178.2c0,0.1,0,0.1,0,0.2C105.9,178.3,105.9,178.2,105.9,178.2z"/>
		<path class="st1" d="M98.7,170.4c0,0,0.1,0,0.1,0.1C98.7,170.4,98.7,170.4,98.7,170.4z"/>
		<path class="st1" d="M105.8,178.9c0,0.1,0,0.1,0,0.2C105.8,179.1,105.8,179,105.8,178.9z"/>
		<path class="st1" d="M97.8,169.7c0,0,0.1,0.1,0.1,0.1C97.9,169.8,97.9,169.8,97.8,169.7z"/>
		<path class="st1" d="M105.4,180.8c0,0,0,0.1,0,0.1C105.4,180.9,105.4,180.9,105.4,180.8z"/>
		<path class="st1" d="M105.6,180.4c0,0,0,0.1,0,0.1C105.6,180.5,105.6,180.4,105.6,180.4z"/>
		<path class="st1" d="M54.7,83.9c0.1,0,0.2,0.1,0.2,0.2C54.9,84,54.8,83.9,54.7,83.9z"/>
		<path class="st1" d="M108.5,84.8C108.5,84.8,108.5,84.8,108.5,84.8C108.5,84.8,108.5,84.8,108.5,84.8z"/>
		<path class="st1" d="M55,84.1c0,0.1,0.1,0.1,0.1,0.2C55.1,84.2,55,84.2,55,84.1z"/>
		<path class="st1" d="M108.7,84.6C108.7,84.6,108.8,84.6,108.7,84.6C108.8,84.6,108.7,84.6,108.7,84.6z"/>
		<path class="st1" d="M80,94.6c0-0.1-0.1-0.1-0.1-0.2C79.9,94.5,80,94.6,80,94.6z"/>
		<path class="st1" d="M108.2,90.4C108.2,90.4,108.3,90.4,108.2,90.4C108.3,90.4,108.2,90.4,108.2,90.4z"/>
		<path class="st1" d="M80.1,94.7c0,0.1,0.1,0.1,0.1,0.1C80.2,94.8,80.1,94.8,80.1,94.7z"/>
		<path class="st1" d="M79.6,93.9c0-0.1-0.1-0.2-0.1-0.3C79.6,93.7,79.6,93.8,79.6,93.9z"/>
		<path class="st1" d="M79.4,93.3c0-0.1,0-0.1-0.1-0.2C79.4,93.1,79.4,93.2,79.4,93.3z"/>
		<path class="st1" d="M79.8,94.3c0-0.1-0.1-0.1-0.1-0.2C79.7,94.2,79.8,94.2,79.8,94.3z"/>
		<path class="st1" d="M79.3,92.7c0-0.1,0-0.1,0-0.2C79.3,92.6,79.3,92.7,79.3,92.7z"/>
		<path class="st1" d="M79.2,92.2c0-0.1,0-0.1,0-0.2C79.2,92.1,79.2,92.1,79.2,92.2z"/>
		<path class="st1" d="M79.2,91.6c0,0,0-0.1,0-0.1C79.2,91.5,79.2,91.5,79.2,91.6z"/>
		<path class="st1" d="M79.8,83.3c0.1-0.3,0.1-0.6,0.2-0.9C79.9,82.7,79.9,83,79.8,83.3z"/>
		<path class="st1" d="M61.8,159.2c0,0,0,0.1,0,0.1C61.8,159.3,61.8,159.3,61.8,159.2z"/>
		<path class="st1" d="M55.2,84.6c0-0.1,0-0.1-0.1-0.2C55.1,84.5,55.2,84.5,55.2,84.6z"/>
		<path class="st1" d="M61.4,157.9C61.4,157.9,61.4,157.9,61.4,157.9C61.4,157.9,61.4,157.9,61.4,157.9z"/>
		<path class="st1" d="M61.6,158.5C61.6,158.5,61.6,158.5,61.6,158.5C61.6,158.5,61.6,158.5,61.6,158.5z"/>
		<path class="st1" d="M80.1,82.1c0.1-0.4,0.2-0.7,0.4-1.1C80.3,81.3,80.2,81.7,80.1,82.1z"/>
		<path class="st1" d="M86.7,82.4C86.7,82.4,86.7,82.4,86.7,82.4C86.7,82.4,86.7,82.4,86.7,82.4z"/>
		<path class="st1" d="M81.8,51.6C81.8,51.6,81.8,51.6,81.8,51.6C81.8,51.6,81.8,51.6,81.8,51.6z"/>
		<path class="st1" d="M108.1,90.3C108.1,90.3,108.1,90.3,108.1,90.3C108.1,90.3,108.1,90.3,108.1,90.3z"/>
		<path class="st1" d="M86.6,81.8c0,0.1,0,0.1,0,0.2C86.6,81.9,86.6,81.9,86.6,81.8z"/>
		<path class="st1" d="M107.8,89.7C107.8,89.7,107.8,89.7,107.8,89.7C107.8,89.7,107.8,89.7,107.8,89.7z"/>
		<path class="st1" d="M105.9,177.2c0,0.1,0,0.1,0,0.2C105.9,177.3,105.9,177.2,105.9,177.2z"/>
		<path class="st1" d="M107.8,89.5C107.8,89.5,107.8,89.5,107.8,89.5C107.8,89.5,107.8,89.5,107.8,89.5z"/>
		<path class="st1" d="M107.9,89.9C107.9,89.9,107.9,90,107.9,89.9C107.9,90,107.9,89.9,107.9,89.9z"/>
		<path class="st1" d="M108,90.1C108,90.1,108,90.2,108,90.1C108,90.2,108,90.1,108,90.1z"/>
		<path class="st1" d="M107.7,89.2C107.7,89.2,107.7,89.3,107.7,89.2C107.7,89.3,107.7,89.2,107.7,89.2z"/>
		<path class="st1" d="M86,90.7c-0.1,0.3-0.1,0.6-0.2,0.9C85.9,91.3,86,91,86,90.7z"/>
		<path class="st1" d="M85.6,79.1c-0.1,0-0.1-0.1-0.2-0.1C85.4,79,85.5,79.1,85.6,79.1z"/>
		<path class="st1" d="M86.3,89.2c-0.1,0.4-0.1,0.7-0.2,1C86.2,90,86.3,89.6,86.3,89.2z"/>
		<path class="st1" d="M86.5,81.5c0-0.1,0-0.1,0-0.2C86.5,81.3,86.5,81.4,86.5,81.5z"/>
		<path class="st1" d="M105.9,176.3c0,0.1,0,0.2,0,0.2C105.9,176.4,105.9,176.4,105.9,176.3z"/>
		<path class="st1" d="M99.7,170.8C99.6,170.8,99.6,170.8,99.7,170.8C99.6,170.8,99.6,170.8,99.7,170.8z"/>
		<path class="st1" d="M85.7,92c-0.1,0.4-0.2,0.8-0.4,1.1C85.5,92.7,85.6,92.4,85.7,92z"/>
		<path class="st1" d="M86.1,80c0-0.1-0.1-0.2-0.1-0.3C86.1,79.8,86.1,79.9,86.1,80z"/>
		<path class="st1" d="M86,79.6c0-0.1-0.1-0.1-0.1-0.2C85.9,79.5,85.9,79.6,86,79.6z"/>
		<path class="st1" d="M85.6,79.2c0,0,0.1,0.1,0.1,0.1C85.7,79.3,85.7,79.2,85.6,79.2z"/>
		<path class="st1" d="M86.4,81c0-0.1,0-0.1-0.1-0.2C86.4,80.8,86.4,80.9,86.4,81z"/>
		<path class="st1" d="M86.3,80.5c0-0.1-0.1-0.2-0.1-0.3C86.3,80.3,86.3,80.4,86.3,80.5z"/>
	</g>
	<line class="st3" x1="99.7" y1="159.8" x2="85.4" y2="63"/>
	<path class="st2" d="M80.8,95.2c0,0,2.8-2.6,3-8.8s-1.3-7.7-1.3-7.7"/>
	<path class="st3" d="M108.3,90c0,0,1.9-2.9,0.3-5"/>
	<path class="st2" d="M54,89.4c0,0-1.8-3.5,0.5-5.5"/>
</g>
<g>
	<path class="st4" d="M93,37c-0.3-0.4-0.6-0.7-1-1.1c-0.3-0.4-0.5-0.8-0.9-1.2c-4.6-5.7-13.1-6.6-18.8-1.9
		c-5.7,4.6-6.6,13.1-1.9,18.8c0.3,0.4,0.6,0.7,1,1.1c0.3,0.4,0.5,0.8,0.9,1.2c0.7,0.9,1.6,1.7,2.5,2.4c-0.4-1.6-0.1-3.2,0.8-4.6
		c-0.3-0.2-0.6-0.4-0.8-0.6c-0.8-1.6-1.1-3.4-0.9-5.2c0.3-2.7,1.6-5.1,3.6-6.8c3.6-3,8.7-2.9,12.3-0.2c1.9,4.1,0.9,9.1-2.7,12
		c-0.4,0.3-0.9,0.6-1.3,0.9c1.3,2.1,1.1,4.7-0.3,6.7c2-0.4,3.9-1.3,5.6-2.7C96.7,51.1,97.6,42.7,93,37z"/>
	<path class="st4" d="M82.5,76.3l-2.6-0.3c-0.7-0.1-1.4,0.7-2,2.4c-0.4,1.1-0.7,2.4-1,3.8l1.9,0c1,0,1.7,0.8,1.7,1.8
		c0,0.5-0.3,1-0.6,1.3c-0.3,0.3-0.7,0.4-1.1,0.4l-2.2,0c-0.2,3.5,0.3,6.7,1.7,6.9l2.6,0.3c0.3,0,0.5-0.1,0.8-0.3
		c0.4-0.4,0.9-1.1,1.3-2.1c0.6-1.5,1-3.5,1.2-5.7C84.4,80.7,84,76.5,82.5,76.3z"/>
	<g>
		<path class="st4" d="M75.9,2.8c0,0,2.4-2,4.7-2.2c5.1-0.4,7,1.8,7,1.8"/>
	</g>
	<path class="st5" d="M86.4,9.6c-4.2-3.1-8.8-0.2-8.8-0.1c-0.1,0.1-0.1,0.1-0.1,0.2l-0.8,16.4c-0.2,0.3-0.4,0.6-0.4,0.9
		c0,0.7,0.5,1.4,1.4,1.9c0.1,0,0.2,0.1,0.3,0.1l0,1c-2,0.4-3.9,1.3-5.6,2.7c-5.7,4.6-6.6,13.1-1.9,18.8c0.3,0.4,0.6,0.7,1,1.1
		c0.1,0.1,0.2,0.3,0.3,0.4l-7.4,29.2c-0.1,0-0.2,0-0.3,0L53.2,82c-0.2,0-0.4,0-0.6,0.1c-0.1-0.3-0.2-0.7-0.5-0.8c0,0,0,0,0,0
		c0,0,0,0-0.1,0c0,0,0,0,0,0c0,0,0,0,0,0l-3.6-0.1c-0.5,0-0.7,0.6-0.8,0.9c-0.2,0.5-0.3,1.1-0.4,1.8c-0.1,0.7-0.1,1.3,0,1.8
		c0,0.2,0.2,1,0.7,1l3.7,0.1c0,0,0.1,0,0.1,0c0.1,0,0.2-0.1,0.3-0.1c0.2-0.2,0.4-0.6,0.4-0.7c0.1-0.2,0.1-0.4,0.2-0.6
		c0.2,0.1,0.5,0.2,0.7,0.2l10.2,0.2l-17.9,70.5c0,0,0,0.1,0,0.1l2,13.4c0,0.1,0.1,0.2,0.3,0.2l2.3,0l0.4,8.6c0,0.1,0.1,0.3,0.3,0.3
		c0.1,0,0.2,0,0.2-0.1c0,0,0.1-0.1,0.1-0.1l3-9.7l1.1-0.6c0,0,0,0,0.1,0c0,0,0.1-0.1,0.1-0.2l1.8-7.7c0.2-0.1,0.3-0.2,0.5-0.4
		c0.8-0.6,1.5-1.5,1.6-2.6c0.1-1.1-0.3-2-0.8-2.8l15.7-68.8c0,0,0,0,0.1,0l2.3,0c-0.1,3.5,0.3,6.5,1.7,6.7l2.6,0.3
		c0.3,0,0.5-0.1,0.8-0.3c0.4-0.4,0.9-1.1,1.3-2.1c0.4-1.1,0.8-2.6,1-4.2l2.6-0.1l10.5,71.1c-0.5,0.2-1,0.5-1.5,0.9
		c-2.5,2.1-2.9,5.8-0.9,8.3c0.9,1.1,2.1,1.8,3.4,2l-0.1,3.8c0,0.2,0.1,0.3,0.3,0.3l1.6,0.1l0,5.7c0,0.1,0.1,0.2,0.2,0.3
		c0.1,0,1.7,0.6,2.7,0c0,0,0,0,0,0c0.6-0.5,0.7-3.3,0.7-5.7c0,0,0,0,0,0l2.2-0.7c0,0,0.1,0,0.1-0.1c0,0,0.1-0.1,0.1-0.1l5.3-12
		c0-0.1,0-0.1,0-0.2L98,86.3l7.2,0.1c0.1,0.7,0.2,1.4,0.7,1.5l3.9,0.1c0,0,0.1,0,0.1,0c0.1,0,0.2,0,0.3-0.1c0.7-0.5,0.9-2.5,0.9-2.7
		c0-0.3,0.3-2.8-0.6-3c0,0,0,0,0,0c0,0-0.1,0-0.1,0c0,0,0,0,0,0c0,0,0,0,0,0l-3.9-0.1c-0.4,0-0.7,0.4-0.9,1l-8.2-0.1c0,0,0,0,0,0
		l-5-28.2c4.5-4.8,4.9-12.3,0.7-17.6c-0.3-0.4-0.6-0.7-1-1.1c-0.3-0.4-0.5-0.8-0.9-1.2c-1.9-2.3-4.5-3.9-7.2-4.5l0-0.8
		c0.5-0.2,0.9-0.4,1.2-0.7c0.5-0.4,0.7-0.8,0.7-1.3c0-0.2,0-0.3-0.1-0.5c0,0,0,0,0,0c0,0,0,0,0.1,0c0.1-0.1,0.1-0.1,0.1-0.2
		l0.5-16.8C86.5,9.8,86.4,9.7,86.4,9.6z M84.2,82.8c0.1-3.4-0.4-6.4-1.7-6.5l-2.6-0.3c-0.7-0.1-1.4,0.7-2,2.4c-0.4,1.1-0.8,2.5-1,4
		l-1.9,0l4.9-21.6c0.9,0.1,1.8,0,2.7-0.3l3.3,22.3L84.2,82.8z M89.9,46.9l-0.9-1c-0.1-0.1-0.1-0.2-0.2-0.2c0,0,0-0.1-0.1-0.2
		c-0.1,0-0.2-0.1-0.2,0L81.7,49c-1.1-0.2-2.2-0.1-3.3,0.3L74,48.9c-0.2-1-0.3-2.1-0.2-3.1c0.3-2.7,1.6-5.1,3.6-6.8
		c3.6-3,8.7-2.8,12.2-0.1C90.9,41.4,90.8,44.4,89.9,46.9z"/>
	<path class="st4" d="M86.4,9.6c-4.2-3.1-8.8-0.2-8.8-0.1c-0.1,0.1-0.1,0.1-0.1,0.2l-0.8,16.4c-0.2,0.3-0.4,0.6-0.4,0.9
		c0,0.7,0.5,1.4,1.4,1.9c0.9,0.5,2.1,0.8,3.3,0.8c1.8,0.1,3.3-0.4,4.2-1.1c0.5-0.4,0.7-0.8,0.7-1.3c0-0.2,0-0.3-0.1-0.5c0,0,0,0,0,0
		c0,0,0,0,0.1,0c0.1-0.1,0.1-0.1,0.1-0.2l0.5-16.8C86.5,9.8,86.4,9.7,86.4,9.6z"/>
	<ellipse transform="matrix(0.7757 -0.6312 0.6312 0.7757 -80.4858 99.1173)" class="st4" cx="99.2" cy="162.8" rx="5.9" ry="5.9"/>
	<ellipse transform="matrix(0.7757 -0.6312 0.6312 0.7757 -33.3933 75.8363)" class="st4" cx="90" cy="84.9" rx="2.4" ry="2.4"/>
	<ellipse transform="matrix(0.7757 -0.6312 0.6312 0.7757 -38.1964 61.6703)" class="st4" cx="67.7" cy="84.6" rx="2.4" ry="2.4"/>
	<path class="st4" d="M84.4,30.2l-0.1-3.3c0-0.2-0.2-0.3-0.3-0.3l-5.4,0c-0.1,0-0.2,0-0.2,0.1c-0.1,0.1-0.1,0.1-0.1,0.2l0,3.2
		C80.3,29.7,82.4,29.7,84.4,30.2z"/>
	<path class="st4" d="M110.5,82.1C110.5,82.1,110.5,82.1,110.5,82.1C110.5,82.1,110.4,82.1,110.5,82.1c-0.1,0-0.1,0-0.1,0
		c0,0,0,0,0,0l-3.9-0.1c-1-0.1-1.3,2.6-1.3,2.9c0,0.3-0.3,3,0.7,3.1l3.9,0.1c0,0,0.1,0,0.1,0c0.1,0,0.2,0,0.3-0.1
		c0.7-0.5,0.9-2.5,0.9-2.7C111.1,84.9,111.3,82.4,110.5,82.1z"/>
	<polyline class="st4" points="77.4,60.1 51.9,169.7 47.8,169.7 45.8,156.4 71.9,53.3 	"/>
	<path class="st4" d="M53.4,85.3l10.3,0.2l0.9-3.5c-0.1,0-0.2,0-0.3,0l-10.8-0.2c-1,0-1.8,0.8-1.8,1.7
		C51.7,84.5,52.5,85.3,53.4,85.3z"/>
	<path class="st4" d="M51.7,83.6c0-0.7,0.4-1.2,0.9-1.5c-0.1-0.3-0.2-0.7-0.5-0.8c0,0,0,0.4,0,0.3c0,0,0,0.3-0.1,0.3c0,0,0,0,0,0
		c0,0,0-0.4,0-0.4l-3.6-0.3c-0.5,0-0.7,0.6-0.8,0.8c-0.2,0.5-0.3,1.1-0.4,1.8c-0.1,0.7-0.1,1.3,0,1.8c0,0.2,0.2,1,0.7,1l3.7,0.1
		c0,0,0.1,0,0.1,0c0.1,0,0.2-0.1,0.3-0.1c0.2-0.2,0.4-0.6,0.4-0.7c0.1-0.3,0.2-0.6,0.2-0.9C52,84.8,51.7,84.2,51.7,83.6z"/>
	<polyline class="st4" points="90.3,56.3 107.4,159.7 103.1,172.6 98.1,172.4 98.2,168.8 	"/>
	<path class="st4" d="M103.1,172.6l-3.4-0.1l0,5.9c0,0.1,0.1,0.2,0.2,0.3c0.1,0,1.7,0.6,2.7,0c0,0,0,0,0,0c0.7-0.6,0.8-4.1,0.7-6.8
		L103.1,172.6z"/>
	<path class="st24" d="M0.5,178.8c0,10,22.6,18.2,50.5,18.2c27.8,0,50.3-8.1,50.5-18.1c-0.8,0-1.6-0.3-1.6-0.3
		c-0.1,0-0.2-0.2-0.2-0.3l0-4.4c-5.2-6.8-21.2-12-40.9-13.1"/>
	<path class="st4" d="M78.2,92.6c0,0,2.8-2.6,3-8.8s-1.3-7.7-1.3-7.7"/>
	<path class="st4" d="M105.7,87.4c0,0,1.9-2.9,0.3-5"/>
	<path class="st4" d="M51.5,86.8c0,0-1.8-3.5,0.5-5.5"/>
	<line class="st4" x1="71.4" y1="52.6" x2="74.6" y2="54.9"/>
	<path class="st4" d="M86.5,53.8c0,0,9.1-6.1,5.5-17.9"/>
	<path class="st4" d="M75.2,51.6c0,0-3.2-0.5-5-6.2c-1.9-5.7,2.9-10.5,4.9-12c2.8-2.3,12.1-2.7,14.7,5.4"/>
	<path class="st4" d="M76.2,27.1c0,0,3.9-5.4,9.6-0.2"/>
	<g>
		<path class="st5" d="M39.5,164.7c0,0-2.2-3.1-1.6-9.1c0.7-6,2.7-7.6,2.7-7.6"/>
		<path class="st4" d="M34.3,161.8c0,0-1-2.5-0.9-4.8c0.3-5.1,1.9-6.8,1.9-6.8"/>
	</g>
	<g>
		<path class="st5" d="M114.6,172.4c0,0,3.1-2.3,4.3-8.2c1.2-5.9-0.2-8.1-0.2-8.1"/>
		<path class="st4" d="M120.4,171.2c0,0,1.7-2.1,2.3-4.3c1.3-4.9,0.3-7,0.3-7"/>
	</g>
	<path class="st4" d="M56.6,152.9c-0.1,0-0.2-0.1-0.3,0c-0.1,0-0.2,0.1-0.2,0.2l-1.7,8.2c0,0.1,0,0.2,0.1,0.3
		c0.1,0.1,0.2,0.1,0.3,0.1c0.1,0,1.6-0.5,2.8-1.5c0.8-0.6,1.5-1.5,1.6-2.6C59.5,154.8,56.7,153,56.6,152.9z"/>
	<path class="st4" d="M78.8,82.3L75,82.2l-0.8,3.5c0.1,0,0.2,0,0.3,0l4.3,0.1c0.4,0,0.8-0.1,1.1-0.4c0.4-0.3,0.6-0.8,0.6-1.3
		C80.6,83.1,79.8,82.3,78.8,82.3z"/>
	<path class="st4" d="M97.9,86.1l7.2,0.1c0-0.6,0-1.3,0-1.4c0-0.2,0.1-1.3,0.5-2.1l-8-0.1c-0.1,0-0.2,0-0.3,0L97.9,86.1z"/>
	<path class="st4" d="M52.2,169.9C52.1,169.9,52.1,169.9,52.2,169.9c-0.1,0-0.1,0-0.1,0l-1.8,0l0.4,8.6c0,0.1,0.1,0.3,0.3,0.3
		c0.1,0,0.2,0,0.2-0.1c0,0,0.1-0.1,0.1-0.1l3-9.7L52.2,169.9z"/>
	<path class="st4" d="M84,84.8c0,0.5-0.1,0.9-0.2,1.3l2.6-0.1l-0.5-3.5l-1.7,0.1C84.1,83.4,84.1,84.1,84,84.8z"/>
	<ellipse transform="matrix(0.7757 -0.6312 0.6312 0.7757 -16.5284 63.1828)" class="st4" cx="80.6" cy="54.8" rx="6" ry="6"/>
	<path class="st4" d="M93,37c-0.3-0.4-0.6-0.7-1-1.1c-0.3-0.4-0.5-0.8-0.9-1.2c-4.6-5.7-13.1-6.6-18.8-1.9
		c-5.7,4.6-6.6,13.1-1.9,18.8c0.3,0.4,0.6,0.7,1,1.1c0.3,0.4,0.5,0.8,0.9,1.2c0.7,0.9,1.6,1.7,2.5,2.4c-0.4-1.6-0.1-3.2,0.8-4.6
		c-0.3-0.2-0.6-0.4-0.8-0.6c-0.8-1.6-1.1-3.4-0.9-5.2c0.3-2.7,1.6-5.1,3.6-6.8c3.6-3,8.7-2.9,12.3-0.2c1.9,4.1,0.9,9.1-2.7,12
		c-0.4,0.3-0.9,0.6-1.3,0.9c1.3,2.1,1.1,4.7-0.3,6.7c2-0.4,3.9-1.3,5.6-2.7C96.7,51.1,97.6,42.7,93,37z"/>
	<path class="st4" d="M93,37c-0.3-0.4-0.6-0.7-1-1.1c-0.3-0.4-0.5-0.8-0.9-1.2c-4.6-5.7-13.1-6.6-18.8-1.9
		c-5.7,4.6-6.6,13.1-1.9,18.8c0.3,0.4,0.6,0.7,1,1.1c0.3,0.4,0.5,0.8,0.9,1.2c0.7,0.9,1.6,1.7,2.5,2.4c-0.4-1.6-0.1-3.2,0.8-4.6
		c-0.3-0.2-0.6-0.4-0.8-0.6c-0.8-1.6-1.1-3.4-0.9-5.2c0.3-2.7,1.6-5.1,3.6-6.8c3.6-3,8.7-2.9,12.3-0.2c1.9,4.1,0.9,9.1-2.7,12
		c-0.4,0.3-0.9,0.6-1.3,0.9c1.3,2.1,1.1,4.7-0.3,6.7c2-0.4,3.9-1.3,5.6-2.7C96.7,51.1,97.6,42.7,93,37z"/>
	<path class="st4" d="M92.3,54.5c-0.4,0.4-0.8,0.8-1.3,1.2c-1.7,1.4-3.6,2.3-5.6,2.7c-0.3,0.4-0.6,0.8-1,1.1c-0.5,0.4-1.1,0.8-1.8,1
		l14.3,96.9c2.3-1,5.2-0.3,6.8,1.7c2.1,2.5,1.7,6.2-0.9,8.3c-1.4,1.2-3.3,1.5-4.9,1.2l-0.1,3.8c0,0.2,0.1,0.3,0.3,0.3l5,0.2
		c0,0,0,0,0,0c0.1,0,0.2,0.1,0.2,0l2.2-0.7c0,0,0.1,0,0.1-0.1c0,0,0.1-0.1,0.1-0.1l5.3-12c0-0.1,0-0.1,0-0.2L92.3,54.5z"/>
	<g>
		<path class="st4" d="M75.6,51.6c0.3-0.5,0.8-1,1.3-1.4c0.5-0.4,1-0.7,1.6-0.9L74,48.9c0.2,0.7,0.4,1.4,0.7,2.1
			C75,51.2,75.3,51.4,75.6,51.6z"/>
		<path class="st4" d="M89,45.9c-0.1-0.1-0.1-0.2-0.2-0.2c0,0,0-0.1-0.1-0.2c-0.1,0-0.2-0.1-0.2,0L81.7,49c1.3,0.3,2.6,1,3.5,2.1
			c0.2,0.2,0.3,0.5,0.5,0.7c0.5-0.3,0.9-0.6,1.3-0.9c1.3-1,2.2-2.4,2.8-3.8L89,45.9z"/>
	</g>
	<path class="st4" d="M76,58.6c-0.6-0.7-1-1.6-1.2-2.5c-0.9-0.7-1.8-1.4-2.5-2.4c-0.2-0.3-0.4-0.5-0.6-0.8L45.6,156.2
		c0,0,0,0.1,0,0.1l2,13.4c0,0.1,0.1,0.2,0.3,0.2l4.1,0c0,0,0,0,0,0c0,0,0.1,0,0.1,0l3.1-1.5c0,0,0,0,0.1,0c0,0,0.1-0.1,0.1-0.2
		l1.8-7.7c-1.1,0.7-2.2,1.1-2.3,1.1c-0.1,0-0.2,0-0.3-0.1c-0.1-0.1-0.1-0.2-0.1-0.3l1.7-8.2c0-0.1,0.1-0.2,0.2-0.2
		c0.1,0,0.2,0,0.3,0c0.1,0,1.1,0.7,1.8,1.8l21.5-93.9C78.4,60.6,77,59.9,76,58.6z"/>
</g>
</svg>
