<?xml version="1.0" encoding="utf-8"?>
<!-- Generator: Adobe Illustrator 19.2.1, SVG Export Plug-In . SVG Version: 6.00 Build 0)  -->
<svg version="1.1" id="Слой_1" xmlns="http://www.w3.org/2000/svg" xmlns:xlink="http://www.w3.org/1999/xlink" x="0px" y="0px"
	 viewBox="0 0 162.2 161.9" style="enable-background:new 0 0 162.2 161.9;" xml:space="preserve">
<style type="text/css">
	.st0{fill:#004BA5;}
	.st1{fill:#72CDF4;}
	.st2{fill:#F8971D;}
	.st3{fill:#FFE06A;}
	.st4{fill:none;stroke:#000000;stroke-linecap:round;stroke-linejoin:round;stroke-miterlimit:10;}
	.st5{fill:none;stroke:#000000;stroke-width:2;stroke-linecap:round;stroke-linejoin:round;stroke-miterlimit:10;}
	.st6{fill:none;stroke:#000000;stroke-linecap:round;stroke-linejoin:round;stroke-dasharray:0,14.1335;}
	.st7{fill:none;stroke:#000000;stroke-linecap:round;stroke-linejoin:round;}
	.st8{fill:none;stroke:#000000;stroke-linecap:round;stroke-linejoin:round;stroke-dasharray:0,1.9842;}
	.st9{clip-path:url(#SVGID_2_);}
	.st10{clip-path:url(#SVGID_4_);}
	.st11{clip-path:url(#SVGID_6_);}
	.st12{clip-path:url(#SVGID_8_);}
	.st13{clip-path:url(#SVGID_10_);}
	.st14{clip-path:url(#SVGID_12_);}
	.st15{fill:none;}
	.st16{clip-path:url(#SVGID_14_);}
	.st17{clip-path:url(#SVGID_16_);}
	.st18{clip-path:url(#SVGID_18_);}
	.st19{fill:none;stroke:#000000;stroke-linecap:square;stroke-linejoin:round;stroke-miterlimit:10;}
	.st20{clip-path:url(#SVGID_20_);}
	.st21{clip-path:url(#SVGID_22_);}
	.st22{clip-path:url(#SVGID_24_);}
	.st23{clip-path:url(#SVGID_26_);}
	.st24{fill:none;stroke:#000000;stroke-linecap:round;stroke-linejoin:round;stroke-miterlimit:10;stroke-dasharray:0,2;}
</style>
<g>
	<g>
		<path class="st2" d="M156.4,78.7c-3.2,0-9.2,0.8-10.8,2c-0.4-1.2-1.1-2-1.9-2c-0.7,0-1.4,0.7-1.8,1.7c-0.3-1.1-0.7-1.4-1.1-1.4
			c0,0-0.2,0.3-0.2,0.3h-4.4c-0.9-11.6-5.5-22.1-12.5-30.4l3.1-3.3c0,0,0.1-0.2,0.2-0.2c0.3-0.3,0.1-1.2-0.5-2.1
			c1,0.5,2,0.4,2.5-0.1c0.6-0.6,0.5-1.6-0.1-2.8c2-0.3,6.8-4,9-6.2c3.5-3.5,2.8-5.5,1.1-7.1c-1.7-1.7-3.6-2.4-7.1,1.1
			c-2.3,2.3-5.9,7.1-6.2,9c-1.1-0.6-2.2-0.6-2.8-0.1c-0.5,0.5-0.5,1.5,0,2.5c-0.9-0.6-1.7-0.7-2-0.4c0,0-0.1,0.2-0.1,0.2l-3.4,3.1
			c-8.3-7-18.8-11.5-30.4-12.4v-4.6c0,0,0.3-0.2,0.3-0.2c0-0.5-0.5-0.9-1.6-1.1c1-0.4,1.8-1.1,1.8-1.8c0-0.8-0.8-1.5-2-1.9
			c1.2-1.6,2-7.6,2-10.8c0-5-1.9-5.8-4.2-5.8C80.9,4,79,4.9,79,9.8c0,3.2,0.8,9.2,2,10.8c-1.2,0.4-2,1.1-2,1.9
			c0,0.7,0.4,1.4,1.5,1.8c-1,0.3-2,0.7-2,1.1c0,0,0,0.2,0,0.2v4.6C67.9,31.2,57,35.7,48.8,42.7l-3.1-3.3c0,0-0.1-0.1-0.1-0.2
			c-0.3-0.3-1.1-0.1-2,0.5c0.5-1,0.5-2-0.1-2.5c-0.6-0.6-1.6-0.5-2.7,0.1c-0.3-2-3.9-6.8-6.2-9c-3.5-3.5-5.5-2.8-7.1-1.1
			c-1.7,1.7-2.4,3.6,1.1,7.1c2.3,2.3,7.1,5.9,9.1,6.2c-0.6,1.1-0.6,2.2-0.1,2.8c0.5,0.5,1.5,0.5,2.5,0c-0.6,0.9-0.7,1.7-0.4,2
			c0,0,0.2,0.1,0.2,0.1l3.3,3.5c-7,8.2-11.6,18.7-12.5,30.3H26c0,0-0.2-0.3-0.2-0.3c-0.5,0-0.9,0.5-1.1,1.6c-0.4-1-1.1-1.8-1.8-1.8
			c-0.8,0-1.5,0.8-1.9,2c-1.6-1.2-7.6-2-10.8-2c-5,0-5.8,1.9-5.8,4.2c0,2.3,0.9,4.2,5.8,4.2c3.2,0,9.2-0.8,10.8-2
			c0.4,1.2,1.1,2,1.9,2c0.7,0,1.4-0.4,1.8-1.4c0.3,1,0.7,2,1.1,2c0,0,0.2,0,0.2,0h4.6c0.9,10.6,5.4,21.5,12.4,29.8l-3.2,3.1
			c0,0-0.2,0-0.2,0.1c-0.3,0.3-0.2,1,0.4,2c-1-0.4-2-0.5-2.5,0c-0.6,0.6-0.5,1.6,0.1,2.7c-2,0.3-6.8,3.9-9.1,6.2
			c-3.5,3.5-2.8,5.5-1.1,7.1c1.7,1.7,3.6,2.4,7.1-1.1c2.3-2.3,5.9-7.1,6.2-9c1.1,0.6,2.2,0.6,2.8,0.1c0.5-0.5,0.5-1.5,0.1-2.5
			c0.9,0.5,1.7,0.8,2,0.5c0,0,0.2-0.2,0.2-0.2l2.9-3.2c8.2,7,19.2,11.6,29.8,12.5v4.4c0,0,0,0.2,0,0.2c0,0.4,1,0.8,2,1.1
			c-1,0.4-1.6,1.1-1.6,1.8c0,0.8,0.9,1.5,2.1,1.9c-1.2,1.6-2,7.6-2,10.8c0,5,1.9,5.8,4.3,5.8c2.3,0,4.2-0.9,4.2-5.8
			c0-3.2-0.8-9.2-2-10.8c1.2-0.4,2-1.1,2-1.9c0-0.7-0.7-1.4-1.7-1.8c1.1-0.3,1.5-0.7,1.5-1.1c0,0-0.3-0.2-0.3-0.2v-4.4
			c11.6-0.9,22.2-5.4,30.5-12.5l3.2,3.1c0,0,0.2,0.2,0.2,0.2c0.3,0.3,1.1,0.2,2-0.4c-0.4,1-0.5,2,0.1,2.5c0.6,0.6,1.6,0.5,2.8-0.1
			c0.3,2,4,6.8,6.2,9.1c3.5,3.5,5.5,2.8,7.1,1.1c1.7-1.7,2.4-3.6-1.1-7.1c-2.3-2.3-7.1-5.9-9-6.2c0.6-1.1,0.6-2.2,0.1-2.8
			c-0.5-0.5-1.5-0.5-2.5-0.1c0.5-0.9,0.8-1.7,0.5-2c0,0-0.2-0.2-0.2-0.2l-3.1-2.8c7-8.2,11.5-19.2,12.4-29.8h4.4c0,0,0.2,0,0.2,0
			c0.4,0,0.8-1,1.1-2c0.4,1,1.1,1.6,1.8,1.6c0.8,0,1.5-0.9,1.9-2.1c1.6,1.2,7.6,2,10.8,2c5,0,5.8-1.9,5.8-4.3S161.3,78.7,156.4,78.7
			z M122.8,79.3h-3.2c0,0-0.1-0.3-0.2-0.3c-0.6,0-1.1,1-1.3,2.8c-0.6-1-2-1.8-3.6-1.8s-3,0.7-3.6,1.7c-0.2-1.7-0.7-2.7-1.3-2.7
			c0,0-0.2,0.2-0.2,0.2h-5.2c-0.6-3.2-1.6-5.5-3.1-7.8l3.7-3.8c0,0,0.1-0.2,0.2-0.2c0.4-0.4-0.1-1.9-1.3-3.2
			c1.2,0.3,2.7-0.2,3.8-1.3c1.1-1.1,1.6-2.7,1.3-3.8c1.4,1.1,2.7,1.7,3.1,1.3c0,0,0.1-0.1,0.1-0.1l2.2-2
			C118.9,64.1,122,70.8,122.8,79.3z M103.6,107.7c1.1,1.1,2.6,1.6,3.8,1.3c-1.1,1.4-1.6,2.6-1.1,3c0,0,0.1,0.1,0.1,0.1l1.6,1.9
			c-5.8,4.7-12.5,7.7-21,8.5v-3.1c0,0,0.3-0.1,0.3-0.2c0-0.6-1-1.1-2.8-1.3c1-0.6,1.8-2,1.8-3.6c0-1.6-0.7-3-1.7-3.6
			c1.7-0.2,2.7-0.7,2.7-1.3c0,0-0.3-0.2-0.3-0.2v-5.3c3.2-0.5,5.5-1.6,7.7-3.1l4.2,4.1c0,0,0.2,0.1,0.2,0.2c0.4,0.4,1.7,0,3-1.1
			C101.9,105,102.4,106.5,103.6,107.7z M63.1,58.8c-1.1-1.1-2.6-1.6-3.8-1.3c1.1-1.4,1.7-2.7,1.3-3.1c0,0-0.1-0.1-0.1-0.1l-2.4-2.1
			c5.8-4.7,13-7.8,20.4-8.6v2.5c0,0,0,0.1,0,0.1c0,0.6,1.7,1.1,3.4,1.3c-1,0.6-1.6,2-1.6,3.6c0,1.6,0.5,3,1.6,3.6
			c-1.7,0.2-3.3,0.8-3.3,1.4c0,0,0,0.2,0,0.2v5.9c-2.1,0.6-4.9,1.6-7.1,3.1l-3.7-3.8c0,0-0.1-0.1-0.1-0.2c-0.4-0.4-1.8,0.1-3.1,1.3
			C64.7,61.5,64.3,60,63.1,58.8z M108,52.1l-2.1,2.2c0,0,0,0.1-0.1,0.1c-0.4,0.4,0.1,1.6,1.2,3c-1.2-0.3-2.7,0.2-3.8,1.3
			c-1.1,1.1-1.6,2.7-1.3,3.8c-1.4-1.1-2.6-1.6-3-1.1c0,0-0.2,0.2-0.2,0.2l-4,3.7c-2.2-1.5-4.6-2.5-7.7-3.1v-5.9c0,0,0.3-0.2,0.3-0.2
			c0-0.6-1-1.1-2.8-1.3c1-0.6,1.8-2,1.8-3.6c0-1.6-0.7-3-1.7-3.6c1.7-0.2,2.7-0.7,2.7-1.3c0,0-0.2-0.2-0.2-0.2v-2.6
			C95.4,44.3,102.2,47.4,108,52.1z M52.4,58.4l2.1,2c0,0,0.1,0,0.1,0.1c0.4,0.4,1.6-0.1,3-1.2c-0.3,1.2,0.2,2.7,1.3,3.8
			c1.1,1.1,2.7,1.6,3.8,1.3c-1.1,1.4-1.6,2.6-1.1,3c0,0,0.2,0.2,0.2,0.2l3.8,4.1c-1.4,2.2-2.5,4.5-3,7.6h-6c0,0-0.2-0.3-0.2-0.3
			c-0.6,0-1.1,1-1.3,2.8c-0.6-1-2-1.8-3.6-1.8c-1.6,0-3,0.7-3.6,1.7c-0.2-1.7-0.7-2.7-1.3-2.7c0,0-0.2,0.2-0.2,0.2h-2.5
			C44.7,70.8,47.8,64.2,52.4,58.4z M43.9,87.8h2.5c0,0,0.1,0,0.1,0c0.6,0,1.1-1.7,1.3-3.4c0.6,1,2,1.6,3.6,1.6c1.6,0,3-0.5,3.6-1.6
			c0.2,1.7,0.8,3.3,1.4,3.3c0,0,0.2,0,0.2,0h6c0.5,2.1,1.6,4.9,3,7.1L61.4,99c0,0-0.1,0.1-0.2,0.1c-0.4,0.4,0,1.6,1.1,3
			c-1.2-0.3-2.7,0.2-3.8,1.3c-1.1,1.1-1.6,2.6-1.3,3.8c-1.4-1.1-2.6-1.6-3-1.1c0,0-0.1,0.1-0.1,0.1l-1.7,2
			C47.8,102.4,44.7,95.2,43.9,87.8z M58.1,113.9l1.9-1.8c0,0,0.1-0.1,0.2-0.1c0.4-0.4-0.1-1.8-1.3-3.1c1.2,0.3,2.7-0.2,3.8-1.3
			c1.1-1.1,1.6-2.6,1.3-3.8c1.4,1.1,2.8,1.7,3.2,1.3c0,0,0.2-0.2,0.2-0.2l3.9-4.2c2.2,1.5,5,2.5,7.1,3.1v5.4c0,0,0,0.2,0,0.2
			c0,0.6,1.7,1.2,3.4,1.4c-1,0.6-1.6,2-1.6,3.6c0,1.6,0.5,3,1.6,3.6c-1.7,0.2-3.3,0.7-3.3,1.3c0,0,0,0.1,0,0.1v3.1
			C71.1,121.6,63.9,118.5,58.1,113.9z M114.2,108.3l-1.9-2c0,0-0.1-0.1-0.1-0.2c-0.4-0.4-1.8,0.1-3.1,1.3c0.3-1.2-0.2-2.7-1.3-3.8
			c-1.1-1.1-2.6-1.6-3.8-1.3c1.1-1.4,1.7-2.8,1.3-3.2c0,0-0.2-0.2-0.2-0.2L101,95c1.5-2.2,2.6-5.1,3.1-7.2h5.2c0,0,0.2,0,0.2,0
			c0.6,0,1.2-1.7,1.4-3.4c0.6,1,2,1.6,3.6,1.6s3-0.5,3.6-1.6c0.2,1.7,0.7,3.3,1.3,3.3c0,0,0.1,0,0.1,0h3.2
			C122,95.2,118.9,102.5,114.2,108.3z"/>
	</g>
</g>
<path class="st3" d="M82.4,61.8c-11.7,0-21.2,9.5-21.2,21.2s9.5,21.2,21.2,21.2c11.7,0,21.2-9.5,21.2-21.2S94.1,61.8,82.4,61.8z
	 M90.4,71.7c0.8-0.8,2.2-0.8,3,0c0.8,0.8,0.8,2.2,0,3c-0.8,0.8-2.2,0.8-3,0C89.6,73.9,89.6,72.5,90.4,71.7z M82.2,67.1
	c1.2,0,2.1,0.9,2.1,2.1c0,1.2-0.9,2.1-2.1,2.1s-2.1-0.9-2.1-2.1C80.1,68,81,67.1,82.2,67.1z M68.4,85.1c-1.2,0-2.1-0.9-2.1-2.1
	c0-1.2,0.9-2.1,2.1-2.1c1.2,0,2.1,0.9,2.1,2.1C70.5,84.1,69.6,85.1,68.4,85.1z M74,94.2c-0.8,0.8-2.2,0.8-3,0c-0.8-0.8-0.8-2.2,0-3
	c0.8-0.8,2.2-0.8,3,0C74.8,92,74.8,93.4,74,94.2z M74,74.7c-0.8,0.8-2.2,0.8-3,0c-0.8-0.8-0.8-2.2,0-3c0.8-0.8,2.2-0.8,3,0
	C74.8,72.5,74.8,73.9,74,74.7z M82.2,98.8c-1.2,0-2.1-0.9-2.1-2.1c0-1.2,0.9-2.1,2.1-2.1s2.1,0.9,2.1,2.1
	C84.3,97.9,83.4,98.8,82.2,98.8z M82.3,87.1c-2.3,0-4.2-1.9-4.2-4.2c0-2.3,1.9-4.2,4.2-4.2c2.3,0,4.2,1.9,4.2,4.2
	C86.5,85.2,84.6,87.1,82.3,87.1z M93.4,94.2c-0.8,0.8-2.2,0.8-3,0c-0.8-0.8-0.8-2.2,0-3c0.8-0.8,2.2-0.8,3,0
	C94.2,92,94.2,93.4,93.4,94.2z M96,85.1c-1.2,0-2.1-0.9-2.1-2.1c0-1.2,0.9-2.1,2.1-2.1s2.1,0.9,2.1,2.1C98.1,84.1,97.1,85.1,96,85.1
	z"/>
<g>
	<circle class="st1" cx="68.4" cy="81.9" r="2.1"/>
	<circle class="st1" cx="95.9" cy="81.9" r="2.1"/>
	<circle class="st1" cx="82.1" cy="95.7" r="2.1"/>
	<circle class="st1" cx="82.1" cy="68.1" r="2.1"/>
	<circle class="st1" cx="82.2" cy="81.8" r="4.2"/>
	<ellipse transform="matrix(0.7071 -0.7071 0.7071 0.7071 -37.881 91.7937)" class="st1" cx="91.9" cy="91.6" rx="2.1" ry="2.1"/>
	<ellipse transform="matrix(0.7071 -0.7071 0.7071 0.7071 -29.8185 72.3292)" class="st1" cx="72.4" cy="72.2" rx="2.1" ry="2.1"/>
	<ellipse transform="matrix(0.7071 -0.7071 0.7071 0.7071 -24.1175 86.0927)" class="st1" cx="91.9" cy="72.2" rx="2.1" ry="2.1"/>
	<ellipse transform="matrix(0.7071 -0.7071 0.7071 0.7071 -43.582 78.0302)" class="st1" cx="72.4" cy="91.6" rx="2.1" ry="2.1"/>
</g>
<g>
	<g>
		<path class="st4" d="M83.8,29v-6.3c0,0,0-0.2,0-0.2c0-0.5-0.7-0.9-1.7-1.1c1-0.4,1.7-1.1,1.7-1.8c0-0.8-0.8-1.5-2-1.9
			c1.2-1.6,2-7.6,2-10.8c0-5-1.9-5.8-4.2-5.8c-2.3,0-4.2,0.9-4.2,5.8c0,3.2,0.8,9.2,2,10.8c-1.2,0.4-2,1.1-2,1.9c0,0.7,1,1.4,2,1.8
			c-1,0.3-1.5,0.7-1.5,1.1c0,0,0,0.2,0,0.2V29"/>
		<path class="st4" d="M83.8,132v5.2c0,0,0,0.2,0,0.2c0,0.5-0.7,0.9-1.7,1.1c1,0.4,1.7,1.1,1.7,1.8c0,0.8-0.8,1.5-2,1.9
			c1.2,1.6,2,7.6,2,10.8c0,5-1.9,5.8-4.2,5.8c-2.3,0-4.2-0.9-4.2-5.8c0-3.2,0.8-9.2,2-10.8c-1.2-0.4-2-1.1-2-1.9c0-0.7,1-1.4,2-1.8
			c-1-0.3-1.5-0.7-1.5-1.1c0,0,0-0.2,0-0.2V132"/>
	</g>
	<g>
		<path class="st4" d="M28.3,76.5h-6.1c0,0-0.2-0.4-0.2-0.4c-0.5,0-0.9,0.5-1.1,1.5c-0.4-1-1.1-1.8-1.8-1.8c-0.8,0-1.5,0.8-1.9,1.9
			c-1.6-1.2-7.6-2-10.8-2c-5,0-5.8,1.9-5.8,4.2c0,2.3,0.9,4.2,5.8,4.2c3.2,0,9.2-0.8,10.8-2c0.4,1.2,1.1,2,1.9,2
			c0.7,0,1.4-0.5,1.8-1.6c0.3,1,0.7,1.9,1.1,1.9c0,0,0.2,0,0.2,0h6.1"/>
		<path class="st4" d="M131.3,76.5h5.4c0,0,0.2-0.4,0.2-0.4c0.5,0,0.9,0.5,1.1,1.5c0.4-1,1.1-1.8,1.8-1.8c0.8,0,1.5,0.8,1.9,1.9
			c1.6-1.2,7.6-2,10.8-2c5,0,5.8,1.9,5.8,4.2c0,2.3-0.9,4.2-5.8,4.2c-3.2,0-9.2-0.8-10.8-2c-0.4,1.2-1.1,2-1.9,2
			c-0.7,0-1.4-0.5-1.8-1.6c-0.3,1-0.7,1.9-1.1,1.9c0,0-0.2,0-0.2,0h-5.4"/>
	</g>
	<g>
		<path class="st4" d="M40.2,113.3l-4.2,4.2c0,0-0.2,0.1-0.2,0.1c-0.3,0.3-0.2,1.1,0.4,2c-1-0.4-2-0.5-2.5,0
			c-0.6,0.6-0.5,1.6,0.1,2.8c-2,0.3-6.8,4-9.1,6.2c-3.5,3.5-2.8,5.5-1.1,7.1c1.7,1.7,3.6,2.4,7.1-1.1c2.3-2.3,5.9-7.1,6.2-9
			c1.1,0.6,2.2,0.6,2.8,0.1c0.5-0.5,0.5-1.5,0.1-2.5c0.9,0.5,1.7,0.8,2,0.5c0,0,0.2-0.2,0.2-0.2l4.2-4.2"/>
		<path class="st4" d="M112.8,40.7l4.2-4.2c0,0,0.1-0.2,0.1-0.2c0.3-0.3,1.1-0.2,2,0.4c-0.4-1-0.5-2,0-2.5c0.6-0.6,1.6-0.5,2.8,0.1
			c0.3-2,4-6.8,6.2-9.1c3.5-3.5,5.5-2.8,7.1-1.1c1.7,1.7,2.4,3.6-1.1,7.1c-2.3,2.3-7.1,5.9-9,6.2c0.6,1.1,0.6,2.2,0.1,2.8
			c-0.5,0.5-1.5,0.5-2.5,0.1c0.5,0.9,0.8,1.7,0.5,2c0,0-0.2,0.2-0.2,0.2l-4.2,4.2"/>
	</g>
	<g>
		<path class="st4" d="M112.8,119.2l4.2,4.2c0,0,0.1,0.2,0.1,0.2c0.3,0.3,1.1,0.2,2-0.4c-0.4,1-0.5,2,0,2.5c0.6,0.6,1.6,0.5,2.8-0.1
			c0.3,2,4,6.8,6.2,9.1c3.5,3.5,5.5,2.8,7.1,1.1s2.4-3.6-1.1-7.1c-2.3-2.3-7.1-5.9-9-6.2c0.6-1.1,0.6-2.2,0.1-2.8
			c-0.5-0.5-1.5-0.5-2.5-0.1c0.5-0.9,0.8-1.7,0.5-2c0,0-0.2-0.2-0.2-0.2l-4.2-4.2"/>
		<path class="st4" d="M40.2,46.6L36,42.4c0,0-0.2-0.1-0.2-0.1c-0.3-0.3-0.2-1.1,0.4-2c-1,0.4-2,0.5-2.5,0c-0.6-0.6-0.5-1.6,0.1-2.8
			c-2-0.3-6.8-4-9.1-6.2c-3.5-3.5-2.8-5.5-1.1-7.1c1.7-1.7,3.6-2.4,7.1,1.1c2.3,2.3,5.9,7.1,6.2,9c1.1-0.6,2.2-0.6,2.8-0.1
			c0.5,0.5,0.5,1.5,0.1,2.5c0.9-0.5,1.7-0.8,2-0.5c0,0,0.2,0.2,0.2,0.2l4.2,4.2"/>
	</g>
	<g>
		<path class="st4" d="M83.8,40.5c8,0.8,14.9,3.9,20.8,8.6l1.9-1.9c-6.3-5.2-13.7-8.5-22.7-9.3V40.5z"/>
		<path class="st4" d="M54.7,49.2c5.8-4.7,13.1-7.8,21.1-8.6v-2.7c-9,0.8-16.5,4.2-22.9,9.4L54.7,49.2z"/>
		<path class="st4" d="M121.7,84.5H119c-0.8,8-3.9,14.9-8.6,20.7l1.9,2C117.5,100.9,120.9,92.5,121.7,84.5z"/>
		<path class="st4" d="M112.3,53.4l-1.9,2c4.8,5.9,7.9,13.1,8.7,21.1h2.7C120.9,67.5,117.5,59.7,112.3,53.4z"/>
		<path class="st4" d="M104.5,111c-5.8,4.7-12.8,7.8-20.8,8.6v2.7c9-0.8,16.4-4.2,22.7-9.3L104.5,111z"/>
		<path class="st4" d="M75.8,119.5c-8-0.8-15.2-3.9-21.1-8.6l-1.8,1.9c6.3,5.2,13.9,8.6,22.9,9.4V119.5z"/>
		<path class="st4" d="M48.6,105.1c-4.7-5.8-7.8-12.6-8.5-20.6h-2.7c0.8,8,4.2,16.3,9.3,22.6L48.6,105.1z"/>
		<path class="st4" d="M37.4,76.5H40c0.8-8,3.9-15.3,8.6-21.1l-1.9-1.8C41.5,59.9,38.2,67.5,37.4,76.5z"/>
	</g>
	<circle class="st5" cx="79.5" cy="80" r="21.2"/>
	<path class="st4" d="M35.3,84.5h7.3c0,0,0.1,0,0.1,0c0.6,0,1.1-1.5,1.3-3.3c0.6,1,2,1.7,3.6,1.7s3-0.6,3.6-1.7
		c0.2,1.7,0.8,3.2,1.4,3.2c0,0,0.2,0,0.2,0h5.9c-0.3-2-0.4-2.7-0.4-4.1c0-1.3,0.1-2.9,0.4-3.9h-5.9c0,0-0.2-0.4-0.2-0.4
		c-0.6,0-1.1,1-1.3,2.7c-0.6-1-2-1.9-3.6-1.9c-1.6,0-3,0.7-3.6,1.7c-0.2-1.7-0.7-2.6-1.3-2.6c0,0-0.2,0.3-0.2,0.3h-7.3"/>
	<path class="st4" d="M51.4,114.1l5-5c0,0,0.1-0.1,0.1-0.1c0.4-0.4-0.2-1.8-1.3-3.1c1.2,0.3,2.7-0.2,3.8-1.3
		c1.1-1.1,1.6-2.6,1.3-3.8c1.4,1.1,2.8,1.7,3.2,1.3c0,0,0.2-0.2,0.2-0.2l4.2-4.2c-2.4-1.6-4.4-3.6-6-6l-4.2,4.2c0,0-0.1,0.1-0.2,0.2
		c-0.4,0.4,0,1.6,1.1,3c-1.2-0.3-2.7,0.2-3.8,1.3c-1.1,1.1-1.6,2.6-1.3,3.8c-1.4-1.1-2.6-1.6-3-1.1c0,0-0.1,0.1-0.1,0.1l-5,5"/>
	<path class="st4" d="M83.8,125v-8.6c0,0,0-0.1,0-0.2c0-0.6-1.2-1.1-2.9-1.3c1-0.6,1.7-2,1.7-3.6s-0.8-3-1.8-3.6
		c1.7-0.2,3-0.7,3-1.3c0,0,0-0.2,0-0.2v-5.3c-1,0.2-2.6,0.4-3.9,0.4c-1.4,0-3.1-0.1-4.1-0.4v5.3c0,0,0,0.2,0,0.2
		c0,0.6,1.1,1.2,2.9,1.4c-1,0.6-1.9,2-1.9,3.6s0.9,3,1.9,3.6c-1.7,0.2-2.9,0.7-2.9,1.3c0,0,0,0.1,0,0.1v8.6"/>
	<path class="st4" d="M113.5,108.1l-5-5c0,0-0.1-0.1-0.1-0.1c-0.4-0.4-1.8,0.2-3.1,1.3c0.3-1.2-0.2-2.7-1.3-3.8
		c-1.1-1.1-2.6-1.6-3.8-1.3c1.1-1.4,1.7-2.8,1.3-3.2c0,0-0.2-0.2-0.2-0.2l-4.1-4.1c-1.6,2.4-3.6,4.4-6,6l4.1,4.1
		c0,0,0.1,0.1,0.2,0.2c0.4,0.4,1.6,0,3-1.1c-0.3,1.2,0.2,2.7,1.3,3.8c1.1,1.1,2.6,1.6,3.8,1.3c-1.1,1.4-1.6,2.6-1.1,3
		c0,0,0.1,0.1,0.1,0.1l5,5"/>
	<path class="st4" d="M122.3,76.5h-6.4c0,0-0.1-0.4-0.2-0.4c-0.6,0-1.1,0.9-1.3,2.7c-0.6-1-2-1.8-3.6-1.8s-3,0.7-3.6,1.8
		c-0.2-1.7-0.7-2.6-1.3-2.6c0,0-0.2,0.4-0.2,0.4h-5.2c0.2,1,0.4,2.6,0.4,3.9c0,1.4-0.1,2.1-0.4,4.1h5.2c0,0,0.2,0,0.2,0
		c0.6,0,1.2-1.5,1.4-3.3c0.6,1,2,1.7,3.6,1.7c1.6,0,3-0.6,3.6-1.7c0.2,1.7,0.7,3.2,1.3,3.2c0,0,0.1,0,0.1,0h6.4"/>
	<path class="st4" d="M107.5,45.9l-5.3,5.3c0,0-0.1,0.1-0.1,0.1c-0.4,0.4,0,1.6,1.1,3c-1.2-0.3-2.7,0.2-3.8,1.3
		c-1.1,1.1-1.6,2.7-1.3,3.8c-1.4-1.1-2.6-1.6-3-1.1c0,0-0.2,0.2-0.2,0.2l-3.7,3.7c2.4,1.6,4.4,3.6,6,6l3.7-3.7c0,0,0.1-0.1,0.2-0.2
		c0.4-0.4-0.1-1.8-1.3-3.2c1.2,0.3,2.7-0.2,3.8-1.3c1.1-1.1,1.6-2.6,1.3-3.8c1.4,1.1,2.7,1.7,3.1,1.3c0,0,0.1-0.1,0.1-0.1l5.3-5.3"
		/>
	<path class="st4" d="M75.8,38v5.1c0,0,0,0.1,0,0.1c0,0.6,1.1,1.1,2.9,1.3c-1,0.6-1.9,2-1.9,3.6s0.9,3,2,3.6
		c-1.7,0.2-2.9,0.8-2.9,1.4c0,0,0,0.2,0,0.2v5.8c1-0.3,2.7-0.4,4.1-0.4c1.4,0,2.9,0.1,3.9,0.4v-5.8c0,0,0-0.2,0-0.2
		c0-0.6-1.2-1.1-2.9-1.3c1-0.6,1.8-2,1.8-3.6s-0.7-3-1.8-3.6c1.7-0.2,3-0.7,3-1.3c0,0,0-0.2,0-0.2V38"/>
	<path class="st4" d="M45.4,51.9l5.3,5.3c0,0,0.1,0.1,0.1,0.1c0.4,0.4,1.6,0,3-1.1c-0.3,1.2,0.2,2.7,1.3,3.8
		c1.1,1.1,2.7,1.6,3.8,1.3c-1.1,1.4-1.6,2.6-1.1,3c0,0,0.2,0.2,0.2,0.2l3.8,3.8c1.6-2.4,3.6-4.4,6-6L64,58.6c0,0-0.1-0.1-0.2-0.2
		c-0.4-0.4-1.8,0.1-3.2,1.3c0.3-1.2-0.2-2.7-1.3-3.8c-1.1-1.1-2.6-1.6-3.8-1.3c1.1-1.4,1.7-2.7,1.3-3.1c0,0-0.1-0.1-0.1-0.1
		l-5.3-5.3"/>
	<path class="st5" d="M153.4,75.7c-3.2,0-9.2,0.8-10.8,2c-0.4-1.2-1.1-2-1.9-2c-0.7,0-1.4,0.7-1.8,1.8c-0.3-1.1-0.7-1.2-1.1-1.2
		c0,0-0.2,0.6-0.2,0.6h-4.4c-0.9-12-5.4-22.6-12.5-30.9l3.1-3.4c0,0,0.1-0.3,0.2-0.3c0.3-0.3,0.1-1.2-0.5-2.1c1,0.5,2,0.4,2.5-0.1
		c0.6-0.6,0.5-1.6-0.1-2.8c2-0.3,6.8-4,9-6.2c3.5-3.5,2.8-5.5,1.1-7.1s-3.6-2.4-7.1,1.1c-2.3,2.3-5.9,7.1-6.2,9
		c-1.1-0.6-2.2-0.6-2.8-0.1c-0.5,0.5-0.5,1.5,0,2.5c-0.9-0.6-1.7-0.7-2-0.4c0,0-0.1,0.2-0.1,0.2l-3.7,3.1
		c-8.3-7.1-18.9-11.6-30.9-12.4v-4.5c0,0,0.6-0.2,0.6-0.2c0-0.5-0.3-0.9-1.4-1.1c1-0.4,1.9-1.1,1.9-1.8c0-0.8-0.7-1.5-1.9-1.9
		c1.2-1.6,2-7.6,2-10.8c0-5-1.9-5.8-4.2-5.8s-4.2,0.9-4.2,5.8c0,3.2,0.8,9.2,2,10.8c-1.2,0.4-2,1.1-2,1.9c0,0.7,0.3,1.4,1.3,1.8
		c-1,0.3-2.1,0.7-2.1,1.1c0,0,0,0.2,0,0.2v4.6c-11,0.9-21.4,5.4-29.7,12.5l-3-3.3c0,0,0-0.1,0-0.2c-0.3-0.3-1.1-0.1-2,0.5
		c0.5-1,0.5-2,0-2.5c-0.6-0.6-1.6-0.5-2.7,0.1c-0.3-2-3.9-6.8-6.2-9c-3.5-3.5-5.5-2.8-7.1-1.1c-1.7,1.7-2.4,3.6,1.1,7.1
		c2.3,2.3,7.1,5.9,9.1,6.2c-0.6,1.1-0.6,2.2-0.1,2.8c0.5,0.5,1.5,0.5,2.5,0c-0.6,0.9-0.7,1.7-0.4,2c0,0,0.2,0.1,0.2,0.1l3.3,3.7
		C33.1,54.5,28.5,65,27.6,77h-4.6c0,0-0.2-0.6-0.2-0.6c-0.5,0-0.9,0.3-1.1,1.4c-0.4-1-1.1-1.9-1.8-1.9c-0.8,0-1.5,0.7-1.9,1.9
		c-1.6-1.2-7.6-2-10.8-2c-5,0-5.8,1.9-5.8,4.2c0,2.3,0.9,4.2,5.8,4.2c3.2,0,9.2-0.8,10.8-2c0.4,1.2,1.1,2,1.9,2
		c0.7,0,1.4-0.3,1.8-1.3c0.3,1,0.7,2.1,1.1,2.1c0,0,0.2,0,0.2,0h4.6c0.9,11,5.4,21.5,12.4,29.7l-3.2,3c0,0-0.2,0-0.2,0
		c-0.3,0.3-0.2,1,0.4,1.9c-1-0.4-2-0.5-2.5,0c-0.6,0.6-0.5,1.6,0.1,2.7c-2,0.3-6.8,3.9-9.1,6.2c-3.5,3.5-2.8,5.5-1.1,7.1
		c1.7,1.7,3.6,2.4,7.1-1.1c2.3-2.3,5.9-7.1,6.2-9.1c1.1,0.6,2.2,0.6,2.8,0.1c0.5-0.5,0.5-1.5,0.1-2.5c0.9,0.5,1.7,0.8,2,0.5
		c0,0,0.2-0.2,0.2-0.2l2.7-3.2c8.3,7.1,18.8,11.6,29.8,12.5v4.4c0,0,0,0.2,0,0.2c0,0.4,1.1,0.8,2.1,1.1c-1,0.4-1.6,1.1-1.6,1.8
		c0,0.8,0.9,1.5,2.1,1.9c-1.2,1.6-1.9,7.6-1.9,10.8c0,5,1.9,5.8,4.3,5.8s4.3-0.9,4.3-5.8c0-3.2-0.8-9.2-2-10.8c1.2-0.4,2-1.1,2-1.9
		c0-0.7-0.7-1.4-1.7-1.8c1.1-0.3,1.1-0.7,1.1-1.1c0,0-0.6-0.2-0.6-0.2v-4.4c12-0.9,22.6-5.4,30.9-12.5l3.4,3.1c0,0,0.2,0.2,0.3,0.2
		c0.3,0.3,1.1,0.2,2.1-0.4c-0.4,1-0.4,2,0.1,2.5c0.6,0.6,1.6,0.5,2.8-0.1c0.3,2,4,6.8,6.2,9.1c3.5,3.5,5.5,2.8,7.1,1.1
		c1.7-1.7,2.4-3.6-1.1-7.1c-2.3-2.3-7.1-5.9-9-6.2c0.6-1.1,0.6-2.2,0.1-2.8c-0.5-0.5-1.5-0.5-2.5-0.1c0.5-0.9,0.8-1.7,0.5-2
		c0,0-0.2-0.2-0.2-0.2l-3.1-2.6c7-8.3,11.6-18.8,12.5-29.8h4.4c0,0,0.2,0,0.2,0c0.4,0,0.8-1.1,1.1-2.1c0.4,1,1.1,1.6,1.8,1.6
		c0.8,0,1.5-0.9,1.9-2.1c1.6,1.2,7.6,1.9,10.8,1.9c5,0,5.8-1.9,5.8-4.3C159.3,77.6,158.4,75.7,153.4,75.7z M100.7,80.4
		c0,1.6-0.2,2.6-0.5,4.6h6.2c0,0,0.2,0,0.2,0c0.6,0,1.2-1.8,1.4-3.5c0.6,1,2,1.6,3.6,1.6c1.6,0,3-0.4,3.6-1.5
		c0.2,1.7,0.7,3.4,1.3,3.4c0,0,0.1,0,0.1,0h5.9c-0.8,8-4.2,16-9.4,22.3l-3.8-4c0,0-0.1-0.2-0.1-0.2c-0.4-0.4-1.8,0.1-3.1,1.2
		c0.3-1.2-0.2-2.7-1.3-3.8c-1.1-1.1-2.6-1.6-3.8-1.3c1.1-1.4,1.7-2.8,1.3-3.2c0,0-0.2-0.2-0.2-0.2l-4.6-4.6
		c-1.5,2.4-3.5,4.5-5.8,6.2l4.5,4.5c0,0,0.1,0.1,0.2,0.2c0.4,0.4,1.6,0,3-1.1c-0.3,1.2,0.2,2.7,1.3,3.8c1.1,1.1,2.6,1.6,3.8,1.3
		c-1.1,1.4-1.6,2.6-1.1,3c0,0,0.1,0.1,0.1,0.1l3.2,3.7c-6.3,5.2-14.3,8.5-23.3,9.3v-5.8c0,0,0.6-0.1,0.6-0.2c0-0.6-0.8-1.1-2.6-1.3
		c1-0.6,1.9-2,1.9-3.6s-0.7-3-1.7-3.6c1.7-0.2,2.4-0.7,2.4-1.3c0,0-0.6-0.2-0.6-0.2v-5.2c-1,0.2-2.3,0.3-3.4,0.3
		c-1.6,0-3.6-0.2-4.6-0.5v5.4c0,0,0,0.2,0,0.2c0,0.6,1.8,1.2,3.6,1.4c-1,0.6-1.6,2-1.6,3.6s0.4,3,1.4,3.6c-1.7,0.2-3.4,0.7-3.4,1.3
		c0,0,0,0.1,0,0.1v5.8c-8-0.8-15.9-4.2-22.3-9.4l3.9-3.6c0,0,0.2-0.1,0.2-0.1c0.4-0.4-0.1-1.8-1.2-3.1c1.2,0.3,2.7-0.2,3.9-1.3
		c1.1-1.1,1.6-2.6,1.3-3.8c1.4,1.1,2.8,1.7,3.2,1.3c0,0,0.2-0.2,0.2-0.2l3.9-3.9c-2.4-1.5-4.5-3.5-6.1-5.8l-3.7,3.7
		c0,0-0.1,0.1-0.2,0.2c-0.4,0.4,0,1.6,1.1,3c-1.2-0.3-2.7,0.2-3.8,1.3c-1.1,1.1-1.6,2.6-1.3,3.8c-1.4-1.1-2.6-1.6-3-1.1
		c0,0-0.1,0.1-0.1,0.1l-3.6,4.1c-5.1-6.3-8.5-14.2-9.3-22.2h5.1c0,0,0.1,0,0.1,0c0.6,0,1.1-1.8,1.3-3.5c0.6,1,2,1.6,3.6,1.6
		s3-0.4,3.6-1.5c0.2,1.7,0.8,3.4,1.4,3.4c0,0,0.2,0,0.2,0h5.2c-0.3-2-0.5-3-0.5-4.6c0-1.2,0.1-2.4,0.3-3.4h-5c0,0-0.2-0.6-0.2-0.6
		c-0.6,0-1.1,0.9-1.3,2.6c-0.6-1-2-1.9-3.6-1.9c-1.6,0-3,0.7-3.6,1.7c-0.2-1.7-0.7-2.3-1.3-2.3c0,0-0.2,0.6-0.2,0.6h-5.1
		c0.8-9,4.2-16.9,9.3-23.3l4,3.8c0,0,0.1,0,0.1,0c0.4,0.4,1.6-0.1,3-1.2c-0.3,1.2,0.2,2.6,1.3,3.8c1.1,1.1,2.7,1.6,3.8,1.3
		c-1.1,1.4-1.6,2.6-1.1,3c0,0,0.2,0.2,0.2,0.2l3.3,3.3c1.6-2.3,3.7-4.3,6.2-5.8l-3.5-3.5c0,0-0.1-0.1-0.2-0.2
		c-0.4-0.4-1.8,0.1-3.2,1.3c0.3-1.2-0.2-2.7-1.3-3.8c-1.1-1.1-2.6-1.6-3.8-1.3c1.1-1.4,1.7-2.7,1.3-3.1c0,0-0.1-0.1-0.1-0.1l-4.6-4
		c6.3-5.2,14.3-8.6,22.3-9.4v5.2c0,0,0,0.1,0,0.1c0,0.6,1.8,1.1,3.5,1.3c-1,0.6-1.6,2-1.6,3.6s0.4,3,1.5,3.6
		c-1.7,0.2-3.4,0.8-3.4,1.4c0,0,0,0.2,0,0.2v5.9c1-0.3,3-0.5,4.6-0.5c1.2,0,2.4,0.1,3.4,0.3v-5.7c0,0,0.6-0.2,0.6-0.2
		c0-0.6-0.9-1.1-2.6-1.3c1-0.6,1.9-2,1.9-3.6s-0.6-3-1.7-3.6c1.7-0.2,2.3-0.7,2.3-1.3c0,0-0.6-0.2-0.6-0.2v-5.2
		c9,0.8,17,4.2,23.3,9.3l-3.8,4.1c0,0,0.1,0.1,0,0.1c-0.4,0.4,0.1,1.6,1.2,3c-1.2-0.3-2.6,0.2-3.8,1.3c-1.1,1.1-1.6,2.7-1.3,3.8
		c-1.4-1.1-2.6-1.6-3-1.1c0,0-0.2,0.2-0.2,0.2l-4.1,4.1c2.3,1.6,4.3,3.7,5.8,6.2l4.3-4.3c0,0,0.1-0.1,0.2-0.2
		c0.4-0.4-0.1-1.8-1.3-3.2c1.2,0.3,2.7-0.2,3.8-1.3c1.1-1.1,1.6-2.6,1.3-3.8c1.4,1.1,2.7,1.7,3.1,1.3c0,0,0.1-0.1,0.1-0.1l4.1-3.7
		c5.2,6.4,8.6,14.4,9.4,23.4h-5.9c0,0-0.1-0.6-0.2-0.6c-0.6,0-1.1,0.8-1.3,2.5c-0.6-1-2-1.9-3.6-1.9s-3,0.7-3.6,1.7
		c-0.2-1.7-0.7-2.4-1.3-2.4c0,0-0.2,0.6-0.2,0.6h-6C100.6,78,100.7,79.3,100.7,80.4z"/>
	<g>
		<circle class="st4" cx="65.6" cy="79.9" r="2.1"/>
		<circle class="st4" cx="93.1" cy="79.9" r="2.1"/>
		<circle class="st4" cx="79.4" cy="93.7" r="2.1"/>
		<circle class="st4" cx="79.4" cy="66.2" r="2.1"/>
		<circle class="st4" cx="79.4" cy="79.9" r="4.2"/>
		<ellipse transform="matrix(0.7071 -0.7071 0.7071 0.7071 -37.3101 89.2724)" class="st4" cx="89.1" cy="89.7" rx="2.1" ry="2.1"/>
		<ellipse transform="matrix(0.7071 -0.7071 0.7071 0.7071 -29.2477 69.808)" class="st4" cx="69.6" cy="70.2" rx="2.1" ry="2.1"/>
		<ellipse transform="matrix(0.7071 -0.7071 0.7071 0.7071 -23.5467 83.5714)" class="st4" cx="89.1" cy="70.2" rx="2.1" ry="2.1"/>
		<ellipse transform="matrix(0.7071 -0.7071 0.7071 0.7071 -43.0111 75.509)" class="st4" cx="69.6" cy="89.7" rx="2.1" ry="2.1"/>
	</g>
	<g>
		<path class="st4" d="M21.3,142.2c0,0-3.7-2.1-4.8-5"/>
		<g>
			<path class="st5" d="M137.7,18.1c0,0,5.1,3,5.4,11"/>
			<path class="st4" d="M141.6,17.2c0,0,3,2.4,4,5.8"/>
		</g>
	</g>
</g>
</svg>
