<?xml version="1.0" encoding="utf-8"?>
<!-- Generator: Adobe Illustrator 19.2.1, SVG Export Plug-In . SVG Version: 6.00 Build 0)  -->
<svg version="1.1" id="Слой_1" xmlns="http://www.w3.org/2000/svg" xmlns:xlink="http://www.w3.org/1999/xlink" x="0px" y="0px"
	 viewBox="0 0 79.2 79.4" style="enable-background:new 0 0 79.2 79.4;" xml:space="preserve">
<style type="text/css">
	.st0{fill:#004BA5;}
	.st1{fill:#72CDF4;}
	.st2{fill:#F8971D;}
	.st3{fill:#FFE06A;}
	.st4{fill:none;stroke:#000000;stroke-linecap:round;stroke-linejoin:round;stroke-miterlimit:10;}
	.st5{fill:none;stroke:#000000;stroke-width:2;stroke-linecap:round;stroke-linejoin:round;stroke-miterlimit:10;}
	.st6{fill:none;stroke:#000000;stroke-linecap:round;stroke-linejoin:round;stroke-dasharray:0,14.1335;}
	.st7{fill:none;stroke:#000000;stroke-linecap:round;stroke-linejoin:round;}
	.st8{fill:none;stroke:#000000;stroke-linecap:round;stroke-linejoin:round;stroke-dasharray:0,1.9842;}
	.st9{clip-path:url(#SVGID_2_);}
	.st10{clip-path:url(#SVGID_4_);}
	.st11{clip-path:url(#SVGID_6_);}
	.st12{clip-path:url(#SVGID_8_);}
	.st13{clip-path:url(#SVGID_10_);}
	.st14{clip-path:url(#SVGID_12_);}
	.st15{fill:none;}
	.st16{clip-path:url(#SVGID_14_);}
	.st17{clip-path:url(#SVGID_16_);}
	.st18{clip-path:url(#SVGID_18_);}
	.st19{fill:none;stroke:#000000;stroke-linecap:square;stroke-linejoin:round;stroke-miterlimit:10;}
	.st20{clip-path:url(#SVGID_20_);}
	.st21{clip-path:url(#SVGID_22_);}
	.st22{clip-path:url(#SVGID_24_);}
	.st23{clip-path:url(#SVGID_26_);}
	.st24{fill:none;stroke:#000000;stroke-linecap:round;stroke-linejoin:round;stroke-miterlimit:10;stroke-dasharray:0,2;}
</style>
<g>
	<path class="st3" d="M41.5,3.8C22.8,3.8,7.2,17.6,4.3,35.6h17.6v-6.8c0-1.9,1.3-2.6,2.9-1.7l22.4,13c1.6,0.9,1.6,2.5,0,3.4
		l-22.4,13c-1.6,0.9-2.9,0.2-2.9-1.7v-5.1H4.6c3.5,16,18.7,29.8,36.9,29.8c20.8,0,37.7-17,37.7-37.8S62.3,3.8,41.5,3.8z"/>
	<g>
		<path class="st5" d="M38.2,1C19.4,1,3.9,14.6,1,32.6h16.9v-6.4c0-1.9,1.6-2.6,3.2-1.7l22.6,13c1.6,0.9,1.7,2.5,0.1,3.4l-22.7,13
			c-1.6,0.9-3.2,0.2-3.2-1.7v-5.5H1.3c3.5,17,18.7,30,36.9,30c20.8,0,37.7-17,37.7-37.8S59,1,38.2,1z"/>
	</g>
</g>
</svg>
